<?xml version="1.0" encoding="UTF-8"?>
<svg xmlns="http://www.w3.org/2000/svg" xmlns:xlink="http://www.w3.org/1999/xlink" width="96px" height="96px" viewBox="0 0 96 96" version="1.1">
<g id="surface1">
<path style=" stroke:none;fill-rule:nonzero;fill:rgb(0%,0%,0%);fill-opacity:1;" d="M 86.832031 0.480469 C 84.433594 1.199219 83.425781 2.015625 82.464844 4.175781 C 81.792969 5.664062 81.601562 6.863281 81.792969 7.921875 C 82.128906 9.503906 81.984375 9.601562 71.664062 18.625 C 62.160156 26.878906 61.105469 27.648438 60.238281 27.121094 C 58.703125 26.113281 56.542969 25.921875 54.71875 26.542969 C 53.089844 27.167969 52.992188 27.121094 49.390625 24.433594 C 45.886719 21.792969 45.792969 21.648438 45.984375 19.96875 C 46.558594 14.832031 41.425781 11.136719 36.863281 13.390625 C 34.273438 14.640625 33.457031 15.886719 33.121094 19.152344 L 32.878906 21.792969 L 22.65625 29.136719 L 12.382812 36.480469 L 9.984375 35.664062 C 7.726562 34.945312 7.488281 34.945312 5.375 35.808594 C 0.238281 37.96875 -0.144531 44.929688 4.800781 47.617188 C 9.214844 50.015625 14.734375 46.320312 14.257812 41.28125 L 14.015625 39.121094 L 24.238281 31.777344 C 29.855469 27.792969 34.703125 24.480469 34.945312 24.480469 C 35.183594 24.480469 36.046875 24.816406 36.769531 25.199219 C 38.542969 26.113281 39.839844 26.113281 42.191406 25.152344 L 44.113281 24.382812 L 47.375 26.878906 L 50.640625 29.375 L 50.496094 32.0625 C 50.351562 35.375 51.359375 37.34375 53.902344 38.542969 C 56.113281 39.601562 57.984375 39.550781 59.902344 38.398438 C 62.207031 37.007812 63.40625 34.753906 63.265625 32.257812 L 63.121094 30.191406 L 73.535156 21.121094 L 83.953125 12.046875 L 85.871094 12.816406 C 91.921875 15.167969 97.34375 8.496094 93.792969 3.121094 C 92.449219 1.054688 89.136719 -0.191406 86.832031 0.480469 Z M 90.71875 4.320312 C 92.785156 6.382812 91.390625 10.078125 88.511719 10.078125 C 85.34375 10.078125 83.855469 6.769531 86.015625 4.464844 C 87.3125 3.070312 89.425781 3.023438 90.71875 4.320312 Z M 41.808594 16.703125 C 44.113281 18.625 42.625 22.558594 39.550781 22.558594 C 37.871094 22.558594 36 20.785156 36 19.199219 C 36 18.71875 36.433594 17.808594 37.007812 17.089844 C 38.207031 15.601562 40.175781 15.40625 41.808594 16.703125 Z M 58.945312 30.046875 C 60.238281 30.960938 60.382812 33.792969 59.183594 35.136719 C 58.078125 36.335938 55.488281 36.289062 54.238281 34.945312 C 51.457031 31.921875 55.535156 27.648438 58.945312 30.046875 Z M 10.078125 39.359375 C 11.230469 40.511719 11.328125 43.054688 10.222656 44.257812 C 9.121094 45.457031 6.527344 45.40625 5.28125 44.0625 C 2.398438 40.945312 7.054688 36.335938 10.078125 39.359375 Z M 10.078125 39.359375 "/>
<path style=" stroke:none;fill-rule:nonzero;fill:rgb(0%,0%,0%);fill-opacity:1;" d="M 74.257812 28.609375 C 74.0625 28.800781 73.921875 42.527344 73.921875 59.089844 C 73.921875 86.0625 74.015625 89.183594 74.6875 89.472656 C 75.121094 89.617188 78.289062 89.761719 81.839844 89.761719 C 86.640625 89.761719 88.320312 89.617188 88.753906 89.089844 C 89.136719 88.65625 89.230469 80.207031 89.183594 58.511719 L 89.039062 28.558594 L 81.792969 28.414062 C 77.855469 28.367188 74.449219 28.464844 74.257812 28.609375 Z M 85.921875 58.800781 L 85.921875 86.398438 L 76.800781 86.398438 L 76.800781 31.199219 L 85.921875 31.199219 Z M 85.921875 58.800781 "/>
<path style=" stroke:none;fill-rule:nonzero;fill:rgb(0%,0%,0%);fill-opacity:1;" d="M 28.414062 38.015625 C 27.601562 38.832031 27.601562 88.367188 28.414062 89.183594 C 29.039062 89.808594 40.992188 90.046875 42.433594 89.472656 C 43.105469 89.230469 43.199219 86.496094 43.199219 63.886719 C 43.199219 44.832031 43.054688 38.449219 42.625 38.015625 C 41.808594 37.199219 29.230469 37.199219 28.414062 38.015625 Z M 40.320312 63.601562 L 40.320312 86.398438 L 31.199219 86.398438 L 31.199219 40.800781 L 40.320312 40.800781 Z M 40.320312 63.601562 "/>
<path style=" stroke:none;fill-rule:nonzero;fill:rgb(0%,0%,0%);fill-opacity:1;" d="M 5.375 52.414062 C 4.464844 53.328125 4.558594 88.464844 5.472656 89.230469 C 5.902344 89.617188 8.351562 89.761719 13.007812 89.664062 L 19.921875 89.519531 L 20.0625 71.089844 C 20.160156 56.640625 20.015625 52.558594 19.585938 52.222656 C 18.574219 51.601562 6.046875 51.742188 5.375 52.414062 Z M 17.28125 70.800781 L 17.28125 86.398438 L 8.160156 86.398438 L 8.160156 55.199219 L 17.28125 55.199219 Z M 17.28125 70.800781 "/>
<path style=" stroke:none;fill-rule:nonzero;fill:rgb(0%,0%,0%);fill-opacity:1;" d="M 51.457031 57.214844 C 50.640625 58.03125 50.640625 88.367188 51.457031 89.183594 C 52.273438 90 64.847656 90 65.664062 89.183594 C 66.480469 88.367188 66.480469 58.03125 65.664062 57.214844 C 64.847656 56.398438 52.273438 56.398438 51.457031 57.214844 Z M 63.359375 73.199219 L 63.359375 86.398438 L 54.238281 86.398438 L 54.238281 60 L 63.359375 60 Z M 63.359375 73.199219 "/>
<path style=" stroke:none;fill-rule:nonzero;fill:rgb(0%,0%,0%);fill-opacity:1;" d="M 1.535156 93.214844 C 0.671875 94.078125 0.816406 94.945312 1.871094 95.519531 C 2.542969 95.855469 17.136719 95.953125 47.089844 95.902344 C 87.214844 95.761719 91.390625 95.664062 91.824219 94.992188 C 92.113281 94.558594 92.160156 93.839844 92.015625 93.40625 C 91.726562 92.6875 87.9375 92.640625 46.894531 92.640625 C 12.71875 92.640625 1.96875 92.785156 1.535156 93.214844 Z M 1.535156 93.214844 "/>
</g>
</svg>
