<?xml version="1.0" encoding="UTF-8"?>
<svg xmlns="http://www.w3.org/2000/svg" xmlns:xlink="http://www.w3.org/1999/xlink" width="96px" height="96px" viewBox="0 0 96 96" version="1.1">
<g id="surface1">
<path style=" stroke:none;fill-rule:nonzero;fill:rgb(0%,0%,0%);fill-opacity:1;" d="M 46.746094 3.164062 C 45.996094 3.546875 45.496094 4.199219 45.34375 4.925781 C 45.167969 5.789062 45.359375 6.402344 46.035156 7.167969 C 46.785156 8.011719 46.765625 8.359375 45.9375 8.625 C 45.148438 8.894531 45.070312 9.238281 45.746094 9.546875 C 46.132812 9.71875 46.226562 9.910156 46.226562 10.429688 C 46.226562 10.832031 46.113281 11.117188 45.9375 11.195312 C 45.726562 11.273438 45.648438 11.597656 45.648438 12.460938 C 45.648438 13.09375 45.613281 13.609375 45.574219 13.609375 C 45.535156 13.609375 44.996094 13.378906 44.378906 13.113281 C 42.492188 12.269531 40.738281 11.886719 38.621094 11.886719 C 36 11.886719 34.921875 12.191406 31.472656 13.992188 C 28.757812 15.429688 28.46875 15.527344 27.371094 15.527344 C 26.351562 15.527344 25.984375 15.414062 24.519531 14.644531 C 22.59375 13.648438 21.996094 13.628906 20.898438 14.472656 C 20.511719 14.761719 20.207031 14.875 20.128906 14.761719 C 20.070312 14.664062 19.878906 14.570312 19.742188 14.570312 C 19.394531 14.570312 18.105469 15.679688 18.105469 15.96875 C 18.105469 16.351562 19.109375 17.617188 19.511719 17.75 C 19.78125 17.828125 19.992188 17.75 20.226562 17.425781 L 20.570312 17.003906 L 21.148438 17.464844 C 21.824219 18 22.421875 19.226562 22.246094 19.761719 C 22.09375 20.242188 21.4375 20.222656 21.148438 19.746094 C 20.859375 19.285156 20.28125 19.246094 19.683594 19.667969 L 19.261719 19.957031 L 19.742188 20.914062 C 20.011719 21.429688 20.359375 21.910156 20.511719 21.988281 C 20.917969 22.121094 20.878906 22.371094 20.417969 22.484375 C 20.070312 22.582031 20.03125 22.753906 20.03125 24.097656 C 20.03125 25.707031 19.722656 28.886719 19.53125 29.386719 C 19.359375 29.847656 18.894531 29.921875 18.261719 29.597656 C 17.644531 29.273438 17.394531 29.386719 17.335938 30 C 17.238281 30.84375 17.355469 31.074219 17.914062 31.265625 C 18.242188 31.378906 18.492188 31.535156 18.492188 31.589844 C 18.492188 31.839844 15.292969 41.136719 12.078125 50.222656 C 9.285156 58.082031 4.835938 70.390625 4.738281 70.484375 C 4.699219 70.523438 4.160156 70.675781 3.542969 70.851562 C 1.886719 71.273438 1.734375 71.5 2.292969 72.554688 C 3.832031 75.429688 8.726562 78.976562 13.117188 80.394531 C 16.160156 81.375 17.566406 81.566406 21.476562 81.566406 C 25.328125 81.566406 27.179688 81.296875 30.277344 80.300781 C 32.03125 79.726562 35.539062 77.980469 36.980469 76.945312 C 39.253906 75.316406 41.796875 72.613281 41.796875 71.789062 C 41.796875 71.425781 41.125 71.15625 39.757812 71.003906 C 39.023438 70.90625 38.640625 70.773438 38.523438 70.523438 C 38.332031 70.179688 34.84375 60.59375 32.648438 54.34375 C 31.972656 52.449219 30.933594 49.515625 30.335938 47.828125 C 28.527344 42.671875 27.371094 39.375 26.003906 35.347656 L 24.695312 31.476562 L 25.253906 31.359375 C 25.636719 31.285156 25.886719 31.09375 26.003906 30.746094 C 26.40625 29.730469 25.773438 29.195312 24.847656 29.75 C 23.921875 30.34375 23.539062 28.945312 23.519531 24.765625 L 23.5 22.429688 L 22.980469 22.429688 C 22.476562 22.429688 22.476562 22.429688 23.230469 21.777344 C 23.980469 21.144531 23.980469 21.105469 23.960938 19.820312 C 23.960938 18.84375 23.828125 18.269531 23.519531 17.675781 C 23.289062 17.214844 23.132812 16.792969 23.171875 16.753906 C 23.230469 16.695312 24.328125 16.964844 25.617188 17.347656 C 26.910156 17.710938 28.390625 18.019531 28.929688 18.019531 C 29.566406 18.019531 30.855469 17.691406 32.785156 17.0625 C 34.382812 16.523438 36.308594 16.007812 37.058594 15.890625 C 39.371094 15.527344 41.992188 15.988281 44.339844 17.175781 C 45.496094 17.75 45.648438 17.921875 45.648438 18.613281 C 45.648438 18.902344 45.785156 19.226562 45.9375 19.359375 C 46.152344 19.535156 46.171875 19.667969 45.976562 19.957031 C 45.785156 20.242188 45.84375 20.394531 46.285156 20.855469 L 46.824219 21.414062 L 46.324219 21.738281 L 45.84375 22.042969 L 45.84375 80.050781 L 44.976562 80.894531 C 44.496094 81.355469 44.109375 81.832031 44.109375 81.949219 C 44.109375 82.0625 44.320312 82.371094 44.589844 82.621094 C 44.859375 82.867188 45.070312 83.136719 45.070312 83.195312 C 45.070312 83.273438 43.878906 83.386719 42.433594 83.445312 C 37.039062 83.691406 32.648438 84.824219 32.648438 85.9375 C 32.648438 86.148438 32.339844 86.414062 31.839844 86.644531 C 30.550781 87.21875 30.414062 87.585938 30.472656 90.210938 L 30.53125 92.472656 L 31.300781 92.914062 C 32.339844 93.488281 34.746094 94.027344 38.136719 94.429688 C 41.644531 94.851562 53.777344 94.925781 57.109375 94.542969 C 61.675781 94.027344 64.855469 93.144531 65.179688 92.300781 C 65.375 91.761719 65.316406 88.027344 65.085938 87.527344 C 64.890625 87.105469 64.160156 86.625 63.332031 86.378906 C 63.140625 86.320312 63.042969 86.167969 63.101562 85.992188 C 63.523438 84.921875 58.863281 83.691406 53.316406 83.445312 C 51.851562 83.386719 50.65625 83.273438 50.65625 83.195312 C 50.65625 83.136719 50.871094 82.867188 51.140625 82.621094 C 51.410156 82.371094 51.621094 82.0625 51.621094 81.949219 C 51.621094 81.816406 51.234375 81.355469 50.753906 80.914062 L 49.886719 80.128906 L 49.886719 22.0625 L 49.308594 21.738281 L 48.75 21.394531 L 49.367188 20.875 C 49.90625 20.433594 49.945312 20.320312 49.714844 20.050781 C 49.484375 19.78125 49.503906 19.6875 49.773438 19.398438 C 49.945312 19.207031 50.082031 18.765625 50.082031 18.441406 C 50.082031 17.886719 50.195312 17.769531 51.199219 17.273438 C 53.757812 15.988281 56.28125 15.507812 58.691406 15.890625 C 59.460938 16.007812 61.40625 16.542969 63.023438 17.078125 C 65.722656 17.980469 66.085938 18.058594 67.222656 17.960938 C 67.917969 17.902344 69.378906 17.578125 70.460938 17.253906 C 71.558594 16.925781 72.5 16.695312 72.558594 16.734375 C 72.597656 16.792969 72.441406 17.214844 72.210938 17.65625 C 71.902344 18.25 71.789062 18.863281 71.769531 19.800781 C 71.75 21.105469 71.769531 21.144531 72.480469 21.757812 L 73.234375 22.410156 L 72.675781 22.464844 L 72.136719 22.523438 L 72.039062 25.917969 C 71.960938 28.832031 71.882812 29.367188 71.59375 29.65625 C 71.324219 29.941406 71.191406 29.960938 70.882812 29.75 C 70.671875 29.636719 70.324219 29.519531 70.113281 29.519531 C 69.246094 29.519531 69.398438 30.957031 70.304688 31.304688 C 70.632812 31.417969 70.882812 31.570312 70.882812 31.628906 C 70.882812 31.878906 67.992188 40.390625 66.164062 45.527344 C 65.566406 47.214844 64.699219 49.667969 64.238281 50.992188 C 63.773438 52.3125 62.214844 56.664062 60.769531 60.671875 C 59.304688 64.675781 57.9375 68.511719 57.707031 69.183594 C 57.285156 70.449219 57.226562 70.503906 55.761719 70.90625 C 53.972656 71.386719 53.953125 71.730469 55.667969 73.878906 C 58.441406 77.347656 63.179688 80.03125 68.609375 81.203125 C 70.882812 81.699219 76.605469 81.699219 79.164062 81.21875 C 84.441406 80.183594 89.046875 77.789062 92.398438 74.300781 C 93.9375 72.726562 94.441406 71.867188 94.054688 71.484375 C 93.957031 71.386719 93.246094 71.175781 92.476562 71.042969 C 91.703125 70.886719 91.050781 70.734375 91.011719 70.714844 C 90.953125 70.640625 89.664062 67.09375 87.429688 60.902344 C 86.910156 59.464844 86.0625 57.085938 85.539062 55.628906 C 85 54.191406 84.019531 51.355469 83.304688 49.359375 C 82.613281 47.347656 81.785156 45.027344 81.476562 44.183594 C 81.167969 43.34375 80.226562 40.582031 79.359375 38.050781 C 78.492188 35.519531 77.644531 33.007812 77.449219 32.453125 L 77.125 31.476562 L 77.703125 31.304688 C 78.222656 31.167969 78.296875 31.035156 78.355469 30.402344 C 78.433594 29.425781 78.203125 29.214844 77.46875 29.597656 C 76.21875 30.230469 75.988281 29.65625 75.757812 25.398438 C 75.601562 22.5625 75.601562 22.542969 75.121094 22.429688 L 74.640625 22.3125 L 75.082031 22.082031 C 75.3125 21.949219 75.71875 21.414062 75.988281 20.914062 L 76.449219 19.972656 L 75.988281 19.667969 C 75.351562 19.246094 74.871094 19.285156 74.582031 19.761719 C 74.425781 20.011719 74.175781 20.128906 73.90625 20.089844 C 73.539062 20.03125 73.484375 19.917969 73.503906 19.285156 C 73.523438 18.691406 73.675781 18.402344 74.351562 17.75 L 75.160156 16.964844 L 75.449219 17.386719 C 75.621094 17.636719 75.851562 17.828125 75.988281 17.828125 C 76.296875 17.828125 77.625 16.332031 77.625 15.988281 C 77.625 15.679688 76.332031 14.570312 75.988281 14.570312 C 75.851562 14.570312 75.660156 14.664062 75.601562 14.78125 C 75.503906 14.914062 75.371094 14.894531 75.160156 14.703125 C 74.65625 14.261719 73.636719 13.800781 73.195312 13.800781 C 72.980469 13.800781 72.058594 14.183594 71.152344 14.664062 C 69.746094 15.414062 69.359375 15.527344 68.339844 15.527344 C 67.261719 15.527344 66.972656 15.414062 64.449219 14.089844 C 60.867188 12.210938 59.789062 11.886719 57.207031 11.886719 C 54.972656 11.886719 53.179688 12.269531 51.332031 13.113281 C 50.714844 13.378906 50.195312 13.609375 50.15625 13.609375 C 50.117188 13.609375 50.082031 13.09375 50.082031 12.480469 C 50.082031 11.65625 50.003906 11.328125 49.792969 11.234375 C 49.617188 11.175781 49.503906 10.867188 49.503906 10.449219 C 49.503906 9.910156 49.597656 9.71875 49.984375 9.546875 C 50.65625 9.238281 50.582031 8.894531 49.792969 8.625 C 49 8.378906 48.90625 7.917969 49.523438 7.359375 C 49.753906 7.167969 50.042969 6.765625 50.195312 6.480469 C 51.253906 4.429688 48.828125 2.089844 46.746094 3.164062 Z M 22.152344 23.886719 C 22.152344 24.039062 21.957031 24.152344 21.667969 24.152344 C 21.324219 24.152344 21.1875 24.058594 21.1875 23.789062 C 21.1875 23.519531 21.304688 23.464844 21.667969 23.539062 C 21.9375 23.578125 22.152344 23.75 22.152344 23.886719 Z M 74.542969 23.828125 C 74.542969 24.097656 74.425781 24.171875 74.023438 24.113281 C 73.253906 24.039062 73.195312 23.425781 73.964844 23.464844 C 74.386719 23.484375 74.542969 23.578125 74.542969 23.828125 Z M 21.265625 28.238281 C 21.1875 28.886719 21.070312 29.5 20.976562 29.597656 C 20.878906 29.710938 20.800781 30.25 20.800781 30.804688 C 20.800781 31.609375 20.878906 31.839844 21.1875 32.011719 C 21.574219 32.222656 21.574219 32.414062 21.574219 50.875 L 21.574219 69.527344 L 16.332031 69.640625 C 13.425781 69.699219 9.804688 69.890625 8.226562 70.0625 C 6.644531 70.238281 5.335938 70.351562 5.296875 70.3125 C 5.257812 70.273438 5.796875 68.644531 6.492188 66.710938 C 7.164062 64.753906 8.207031 61.859375 8.765625 60.289062 C 9.324219 58.695312 10.265625 56.03125 10.863281 54.34375 C 13.578125 46.792969 14.386719 44.453125 16.0625 39.585938 C 17.066406 36.746094 18.066406 33.757812 18.335938 32.972656 C 18.683594 31.898438 18.933594 31.476562 19.28125 31.304688 C 20.167969 30.882812 20.398438 30.421875 20.570312 28.8125 C 20.667969 27.96875 20.820312 27.164062 20.878906 27.046875 C 21.1875 26.550781 21.359375 27.125 21.265625 28.238281 Z M 22.632812 27.203125 C 22.691406 27.414062 22.824219 28.238281 22.902344 29.042969 C 23.074219 30.515625 23.382812 31.132812 24.078125 31.34375 C 24.289062 31.398438 24.578125 31.9375 24.847656 32.742188 C 25.386719 34.351562 27.46875 40.410156 28.738281 44.089844 C 29.644531 46.695312 30.277344 48.460938 34.382812 60 C 37.695312 69.257812 38.15625 70.601562 38.082031 70.65625 C 38.0625 70.695312 36.980469 70.601562 35.730469 70.449219 C 30.894531 69.871094 29.257812 69.757812 25.675781 69.640625 L 21.957031 69.527344 L 21.957031 61.550781 C 21.957031 57.164062 21.902344 48.726562 21.824219 42.785156 C 21.726562 32.972656 21.726562 32.011719 22.015625 32.011719 C 22.441406 32.011719 22.652344 30.824219 22.363281 29.902344 C 22.113281 29.042969 22.074219 26.835938 22.324219 26.835938 C 22.421875 26.835938 22.554688 27.007812 22.632812 27.203125 Z M 73.523438 28.21875 C 73.464844 28.984375 73.347656 29.941406 73.289062 30.324219 C 73.117188 31.226562 73.308594 32.011719 73.675781 32.011719 C 73.945312 32.011719 73.964844 34.042969 73.964844 49.496094 C 73.945312 59.117188 73.886719 67.570312 73.828125 68.261719 L 73.714844 69.527344 L 68.496094 69.640625 C 65.625 69.699219 62.117188 69.890625 60.710938 70.0625 C 59.304688 70.238281 58.035156 70.351562 57.882812 70.3125 C 57.6875 70.273438 58.015625 69.183594 59.132812 66.039062 C 62.445312 56.835938 63.621094 53.539062 63.851562 52.8125 C 63.988281 52.390625 64.507812 50.914062 65.007812 49.550781 C 65.992188 46.851562 68.550781 39.507812 70.226562 34.601562 C 70.804688 32.914062 71.363281 31.496094 71.480469 31.457031 C 71.59375 31.417969 71.902344 31.207031 72.171875 30.976562 C 72.597656 30.613281 72.675781 30.34375 72.808594 28.886719 C 72.964844 27.183594 73.078125 26.835938 73.40625 26.835938 C 73.539062 26.835938 73.578125 27.355469 73.523438 28.21875 Z M 75.121094 28.753906 C 75.234375 29.980469 75.351562 30.402344 75.699219 30.765625 C 75.949219 31.035156 76.257812 31.246094 76.390625 31.246094 C 76.757812 31.246094 76.910156 31.589844 78.085938 35.097656 C 79.511719 39.414062 82.1875 47.0625 84.945312 54.726562 C 85.773438 57.046875 86.945312 60.324219 87.542969 62.011719 C 88.140625 63.699219 89.066406 66.308594 89.605469 67.820312 C 90.144531 69.316406 90.550781 70.582031 90.492188 70.640625 C 90.453125 70.675781 89.414062 70.601562 88.199219 70.464844 C 84.078125 69.949219 81.1875 69.71875 77.722656 69.605469 L 74.253906 69.488281 L 74.195312 50.835938 C 74.15625 32.511719 74.15625 32.167969 74.523438 32.070312 C 74.734375 32.011719 74.945312 31.839844 75.023438 31.667969 C 75.160156 31.285156 74.945312 29.75 74.714844 29.597656 C 74.621094 29.539062 74.542969 28.886719 74.542969 28.121094 C 74.542969 26.242188 74.929688 26.664062 75.121094 28.753906 Z M 75.121094 28.753906 "/>
</g>
</svg>
