<?xml version="1.0" encoding="UTF-8"?>
<svg xmlns="http://www.w3.org/2000/svg" xmlns:xlink="http://www.w3.org/1999/xlink" width="96px" height="96px" viewBox="0 0 96 96" version="1.1">
<g id="surface1">
<path style=" stroke:none;fill-rule:nonzero;fill:rgb(0%,0%,0%);fill-opacity:1;" d="M 27.878906 12.34375 C 27.761719 12.460938 27.628906 12.84375 27.550781 13.152344 C 27.476562 13.476562 27.378906 13.882812 27.320312 14.074219 C 27.28125 14.265625 26.824219 14.609375 26.34375 14.839844 C 25.152344 15.398438 25.132812 15.898438 26.265625 16.28125 C 26.878906 16.472656 27.089844 16.664062 27.1875 17.050781 C 27.53125 18.585938 27.6875 18.988281 27.957031 19.085938 C 28.414062 19.257812 28.78125 18.875 29.011719 17.914062 C 29.242188 17.050781 29.933594 16.320312 30.507812 16.320312 C 30.699219 16.320312 30.929688 16.222656 31.066406 16.089844 C 31.527344 15.628906 31.296875 15.246094 30.296875 14.765625 C 29.414062 14.363281 29.242188 14.1875 28.992188 13.441406 C 28.53125 12.078125 28.300781 11.847656 27.878906 12.34375 Z M 27.878906 12.34375 "/>
<path style=" stroke:none;fill-rule:nonzero;fill:rgb(0%,0%,0%);fill-opacity:1;" d="M 46.078125 19.21875 C 35.710938 20.179688 26.804688 26.996094 23.230469 36.691406 C 21.636719 41.011719 21.195312 44.910156 21.792969 49.632812 C 22.695312 56.945312 26.554688 63.550781 32.449219 67.851562 C 33.140625 68.351562 33.753906 68.890625 33.832031 69.023438 C 33.925781 69.175781 33.695312 69.621094 33.214844 70.195312 C 32.792969 70.714844 32.371094 71.5 32.238281 72.019531 C 32.0625 72.710938 31.796875 73.09375 31.179688 73.613281 C 29.605469 74.9375 29.164062 76.800781 30.027344 78.644531 C 31.160156 81.101562 34.886719 82.828125 40.800781 83.65625 C 44.042969 84.113281 52.050781 84.097656 55.871094 83.65625 C 63.359375 82.753906 67.585938 80.332031 67.585938 76.933594 C 67.585938 75.6875 67.160156 74.765625 66.066406 73.632812 C 65.414062 72.960938 65.089844 72.460938 65.011719 71.941406 C 64.914062 71.460938 64.609375 70.90625 64.109375 70.367188 C 63.707031 69.925781 63.359375 69.390625 63.359375 69.195312 C 63.378906 68.964844 63.878906 68.46875 64.703125 67.890625 C 66.527344 66.605469 69.773438 63.226562 71.097656 61.230469 C 73.996094 56.851562 75.378906 52.472656 75.589844 46.945312 C 76.089844 34.386719 67.640625 23.175781 55.296875 19.988281 C 53.375 19.488281 49.441406 18.949219 48.289062 19.027344 C 48.078125 19.046875 47.078125 19.140625 46.078125 19.21875 Z M 53.144531 21.714844 C 55.929688 22.136719 60.078125 23.828125 62.59375 25.535156 C 67.890625 29.125 71.558594 34.503906 72.882812 40.609375 C 73.59375 43.851562 73.535156 48.652344 72.769531 51.6875 C 70.347656 61.09375 63.109375 68.027344 53.472656 70.117188 C 52.742188 70.273438 50.976562 70.367188 48.671875 70.347656 C 44.5625 70.347656 43.027344 70.078125 40.03125 68.832031 C 32.101562 65.546875 26.726562 59.175781 24.824219 50.785156 C 24.308594 48.460938 24.34375 43.160156 24.921875 40.78125 C 26.074219 35.960938 28.03125 32.3125 31.257812 28.953125 C 33.121094 27.015625 34.273438 26.09375 36.460938 24.789062 C 41.300781 21.867188 47.25 20.773438 53.144531 21.714844 Z M 64.011719 75.1875 C 65.183594 76.339844 62.726562 78.375 60.113281 78.414062 C 59.15625 78.433594 58.847656 78.355469 58.675781 78.085938 C 58.367188 77.605469 58.695312 77.222656 59.808594 76.742188 C 60.34375 76.511719 61.324219 76.011719 62.015625 75.609375 C 63.417969 74.804688 63.589844 74.765625 64.011719 75.1875 Z M 56.792969 77.992188 C 57.621094 78.816406 56.273438 79.851562 55.027344 79.371094 C 54.605469 79.21875 54.625 78.222656 55.066406 77.972656 C 55.527344 77.703125 56.503906 77.703125 56.792969 77.992188 Z M 56.792969 77.992188 "/>
<path style=" stroke:none;fill-rule:nonzero;fill:rgb(0%,0%,0%);fill-opacity:1;" d="M 48.613281 24.730469 C 48.460938 24.824219 48.382812 25.054688 48.421875 25.246094 C 48.460938 25.535156 48.863281 25.671875 50.417969 25.921875 C 52.664062 26.304688 54.46875 26.859375 56.390625 27.78125 C 57.140625 28.148438 57.90625 28.414062 58.097656 28.378906 C 58.273438 28.359375 58.597656 28.070312 58.828125 27.78125 C 59.136719 27.378906 59.175781 27.167969 59.019531 26.917969 C 58.714844 26.457031 56.601562 25.613281 54.546875 25.152344 C 52.550781 24.710938 49 24.460938 48.613281 24.730469 Z M 48.613281 24.730469 "/>
<path style=" stroke:none;fill-rule:nonzero;fill:rgb(0%,0%,0%);fill-opacity:1;" d="M 60.980469 29.089844 C 60.421875 29.914062 60.59375 30.394531 61.804688 31.546875 C 63.148438 32.832031 63.667969 32.929688 64.398438 32.042969 C 64.664062 31.71875 64.894531 31.335938 64.894531 31.179688 C 64.894531 30.816406 63.417969 29.222656 62.765625 28.875 C 61.957031 28.472656 61.34375 28.53125 60.980469 29.089844 Z M 60.980469 29.089844 "/>
<path style=" stroke:none;fill-rule:nonzero;fill:rgb(0%,0%,0%);fill-opacity:1;" d="M 34.425781 29.992188 C 34.308594 30.125 34.175781 30.566406 34.097656 30.949219 C 33.964844 31.738281 33.332031 32.351562 32.449219 32.542969 C 31.199219 32.8125 31.21875 33.621094 32.523438 34.175781 C 33.5625 34.65625 33.773438 34.886719 34.0625 36.019531 C 34.484375 37.707031 35.425781 37.652344 35.828125 35.921875 C 36.078125 34.789062 36.402344 34.367188 37.285156 34.0625 C 38.574219 33.636719 38.4375 32.929688 36.960938 32.273438 C 36.210938 31.949219 36.097656 31.8125 35.828125 30.835938 C 35.558594 29.933594 35.441406 29.761719 35.058594 29.761719 C 34.808594 29.761719 34.523438 29.875 34.425781 29.992188 Z M 34.425781 29.992188 "/>
<path style=" stroke:none;fill-rule:nonzero;fill:rgb(0%,0%,0%);fill-opacity:1;" d="M 65.894531 34.484375 C 65.28125 34.90625 65.355469 35.460938 66.316406 37.382812 C 67.890625 40.550781 68.542969 43.199219 68.542969 46.464844 C 68.542969 49.863281 67.871094 52.972656 66.488281 55.910156 C 65.816406 57.371094 65.761719 58.078125 66.335938 57.867188 C 66.777344 57.695312 68.46875 54.835938 69.160156 53.089844 C 71.269531 47.636719 71.078125 41.835938 68.621094 36.5 C 67.585938 34.253906 66.910156 33.753906 65.894531 34.484375 Z M 65.894531 34.484375 "/>
<path style=" stroke:none;fill-rule:nonzero;fill:rgb(0%,0%,0%);fill-opacity:1;" d="M 28.664062 42.816406 C 27.320312 43.355469 27.800781 45.503906 29.28125 45.503906 C 29.742188 45.503906 30.027344 45.371094 30.316406 45.003906 C 30.835938 44.351562 30.816406 43.910156 30.296875 43.316406 C 29.777344 42.757812 29.242188 42.585938 28.664062 42.816406 Z M 28.664062 42.816406 "/>
<path style=" stroke:none;fill-rule:nonzero;fill:rgb(0%,0%,0%);fill-opacity:1;" d="M 46.273438 63.1875 C 43.832031 63.320312 42.277344 63.589844 40.742188 64.167969 C 39.476562 64.644531 39.167969 65.125 39.707031 65.835938 C 40.511719 66.929688 42.96875 67.851562 46.347656 68.292969 C 49.785156 68.773438 53.300781 68.332031 56.042969 67.105469 C 57.292969 66.546875 58.234375 65.644531 58.136719 65.105469 C 57.984375 64.261719 54.085938 63.265625 50.496094 63.128906 C 49.382812 63.089844 47.480469 63.109375 46.273438 63.1875 Z M 46.273438 63.1875 "/>
<path style=" stroke:none;fill-rule:nonzero;fill:rgb(0%,0%,0%);fill-opacity:1;" d="M 21.542969 22.195312 C 21.003906 22.558594 20.964844 23.617188 21.464844 24.058594 C 22.253906 24.789062 23.617188 24.25 23.617188 23.210938 C 23.617188 22.636719 23.441406 22.386719 22.90625 22.097656 C 22.347656 21.8125 22.0625 21.832031 21.542969 22.195312 Z M 21.542969 22.195312 "/>
<path style=" stroke:none;fill-rule:nonzero;fill:rgb(0%,0%,0%);fill-opacity:1;" d="M 15.28125 28.453125 C 15.128906 28.703125 14.878906 29.394531 14.707031 29.992188 C 14.398438 31.066406 14.34375 31.125 13.246094 31.679688 C 11.789062 32.410156 11.769531 32.753906 13.113281 33.621094 C 14.113281 34.273438 14.285156 34.578125 14.667969 36.34375 C 14.839844 37.132812 15.476562 37.691406 15.917969 37.460938 C 16.359375 37.210938 16.492188 36.882812 16.703125 35.539062 C 16.914062 34.347656 17.183594 33.984375 18.238281 33.503906 C 19.507812 32.929688 19.410156 32.3125 17.953125 31.679688 C 16.933594 31.238281 16.78125 31.027344 16.628906 29.683594 C 16.453125 28.050781 15.878906 27.53125 15.28125 28.453125 Z M 15.28125 28.453125 "/>
<path style=" stroke:none;fill-rule:nonzero;fill:rgb(0%,0%,0%);fill-opacity:1;" d="M 79.929688 54.679688 C 79.8125 54.757812 79.546875 55.296875 79.355469 55.871094 C 79.046875 56.832031 78.929688 56.945312 78.144531 57.234375 C 76.644531 57.792969 76.644531 58.464844 78.144531 58.925781 C 78.96875 59.175781 79.179688 59.441406 79.371094 60.5 C 79.507812 61.304688 79.910156 61.726562 80.351562 61.554688 C 80.660156 61.441406 80.871094 61.019531 81.195312 59.769531 C 81.390625 59.078125 81.503906 58.945312 82.234375 58.714844 C 83.328125 58.367188 83.308594 57.886719 82.175781 57.351562 C 81.425781 56.984375 81.273438 56.792969 81.023438 56.027344 C 80.699219 55.007812 80.273438 54.46875 79.929688 54.679688 Z M 79.929688 54.679688 "/>
<path style=" stroke:none;fill-rule:nonzero;fill:rgb(0%,0%,0%);fill-opacity:1;" d="M 73.671875 64.089844 C 73.285156 64.511719 73.246094 65.453125 73.613281 65.953125 C 73.921875 66.375 74.976562 66.433594 75.359375 66.027344 C 75.898438 65.472656 75.917969 64.761719 75.378906 64.242188 C 74.804688 63.667969 74.113281 63.609375 73.671875 64.089844 Z M 73.671875 64.089844 "/>
</g>
</svg>
