<?xml version="1.0" encoding="UTF-8"?>
<svg xmlns="http://www.w3.org/2000/svg" xmlns:xlink="http://www.w3.org/1999/xlink" width="96px" height="96px" viewBox="0 0 96 96" version="1.1">
<g id="surface1">
<path style=" stroke:none;fill-rule:evenodd;fill:rgb(0%,0%,0%);fill-opacity:1;" d="M 86.535156 4.871094 C 80.191406 5.140625 76.503906 5.980469 74.503906 7.605469 C 73.5625 8.371094 73.578125 8.371094 73.578125 7.632812 C 73.578125 6.769531 73.507812 6.75 72.117188 7.21875 C 62.875 10.335938 49.878906 16.398438 49.398438 17.8125 C 49.316406 18.058594 48.882812 19.300781 48.433594 20.578125 L 47.621094 22.898438 L 47.710938 20.949219 C 47.820312 18.570312 47.945312 18.601562 45.367188 20.394531 C 39.0625 24.789062 33.46875 30.289062 33.214844 32.339844 C 33.011719 33.976562 32.769531 38.6875 32.757812 41.261719 C 32.738281 44.976562 31.824219 42.011719 31.355469 36.726562 C 31.085938 33.695312 31.175781 33.800781 29.914062 34.964844 C 25.222656 39.28125 23.5625 43.421875 23.320312 51.394531 L 23.203125 55.191406 L 22.90625 54.03125 C 22.746094 53.394531 22.527344 51.875 22.417969 50.65625 C 22.171875 47.859375 22.109375 47.796875 21.144531 49.425781 C 16.53125 57.210938 13.3125 67.394531 13.3125 74.195312 C 13.3125 75.097656 13.167969 75.476562 11.9375 77.757812 C 9.128906 82.964844 4.960938 92.042969 5.179688 92.472656 C 5.429688 92.953125 5.988281 92.574219 6.714844 91.433594 C 7.722656 89.859375 8.480469 89.042969 10.46875 87.402344 C 11.359375 86.667969 12.085938 85.984375 12.085938 85.878906 C 12.085938 85.472656 13.414062 81.644531 14.535156 78.816406 L 15.710938 75.84375 L 17.796875 74.511719 C 23.972656 70.574219 29.03125 66.175781 33.066406 61.242188 C 35.40625 58.378906 35.363281 58.664062 33.6875 57.105469 C 32.019531 55.554688 32.171875 55.476562 34.703125 56.578125 C 39.128906 58.503906 41.34375 57.023438 45.289062 49.503906 C 46.636719 46.933594 48.042969 44.722656 49.28125 43.230469 C 49.734375 42.691406 50.101562 42.203125 50.101562 42.148438 C 50.101562 42.097656 49.195312 42.011719 48.085938 41.960938 C 44.773438 41.808594 45.167969 41.296875 49.109375 40.628906 C 50.585938 40.382812 50.945312 40.246094 51.207031 39.847656 C 52.414062 38 55.972656 33.570312 58.859375 30.328125 C 63.59375 25.011719 65.003906 23.371094 64.917969 23.269531 C 64.878906 23.21875 63.953125 23.554688 62.859375 24.015625 C 60.398438 25.054688 59.183594 25.347656 59.554688 24.808594 C 60.097656 24.019531 62.613281 22.828125 65.128906 22.160156 C 66.316406 21.847656 66.652344 21.667969 66.964844 21.179688 C 70.800781 15.148438 77.582031 10.441406 88.511719 6.222656 C 91.417969 5.101562 92.183594 4.597656 90.867188 4.675781 C 90.558594 4.695312 88.609375 4.78125 86.535156 4.871094 M 86.015625 6.730469 C 76.988281 10.507812 72.089844 13.894531 67.859375 19.28125 C 66.292969 21.277344 66.058594 21.496094 65.34375 21.632812 C 62.554688 22.167969 58.660156 24.320312 58.914062 25.1875 C 59.035156 25.59375 60.769531 25.394531 62.175781 24.8125 C 62.890625 24.515625 63.5 24.300781 63.527344 24.335938 C 63.554688 24.371094 61.757812 26.4375 59.535156 28.925781 C 56.027344 32.851562 53.257812 36.234375 51.203125 39.101562 C 50.664062 39.855469 50.566406 39.902344 48.839844 40.210938 C 46.152344 40.695312 45.371094 41.003906 45.371094 41.589844 C 45.371094 42.089844 45.839844 42.253906 47.679688 42.40625 L 49.195312 42.527344 L 48.066406 44.113281 C 47.109375 45.453125 45.726562 47.832031 43.464844 52.027344 C 41.109375 56.398438 38.542969 57.640625 34.914062 56.164062 C 31.453125 54.757812 30.992188 55.128906 33.367188 57.40625 C 33.996094 58.007812 34.511719 58.578125 34.511719 58.671875 C 34.511719 59.042969 30.519531 63.636719 28.503906 65.585938 C 25.21875 68.761719 16.675781 75.25 16.332031 74.832031 C 16.195312 74.671875 18.558594 70.128906 20.09375 67.59375 C 23.019531 62.75 25.289062 59.648438 33.722656 48.96875 C 35.601562 46.585938 37.136719 44.496094 37.132812 44.324219 C 37.132812 44.148438 36.519531 44.769531 35.777344 45.703125 C 25.507812 58.566406 23.011719 61.925781 19.859375 67.117188 C 16.910156 71.96875 14.113281 78.078125 12.40625 83.398438 C 11.269531 86.941406 10.644531 87.355469 8.96875 85.691406 L 8.566406 85.292969 L 10.015625 82.378906 C 19.308594 63.71875 32.902344 46.078125 54.617188 24.511719 C 57.128906 22.019531 57.726562 21.316406 57.359375 21.316406 C 57.191406 21.316406 50.984375 27.472656 47.125 31.464844 C 33.617188 45.433594 23.546875 58.226562 15.15625 72.078125 L 13.621094 74.609375 L 13.742188 73.238281 C 14.261719 67.292969 15.425781 62.648438 17.859375 56.796875 C 18.855469 54.410156 21.671875 49.046875 21.832031 49.242188 C 21.875 49.292969 21.992188 50.21875 22.09375 51.300781 C 22.292969 53.464844 22.632812 54.878906 23.164062 55.785156 C 23.683594 56.667969 23.738281 56.394531 23.675781 53.121094 C 23.539062 45.410156 25.15625 40.34375 28.996094 36.449219 C 30.886719 34.535156 30.753906 34.492188 30.992188 37.054688 C 31.25 39.820312 31.726562 42.082031 32.4375 43.941406 C 33.207031 45.957031 33.339844 45.792969 33.199219 43.003906 C 33.09375 40.828125 33.300781 35.03125 33.570312 32.644531 C 33.808594 30.566406 39.246094 25.171875 45.425781 20.886719 L 47.210938 19.648438 L 47.261719 22.082031 C 47.316406 24.882812 47.496094 25.078125 48.085938 22.996094 C 48.5625 21.308594 49.511719 18.628906 49.851562 17.992188 C 50.449219 16.894531 56.445312 13.882812 64.996094 10.382812 C 67.957031 9.171875 72.78125 7.386719 73.089844 7.386719 C 73.132812 7.386719 73.132812 7.671875 73.089844 8.019531 C 72.929688 9.3125 73.132812 9.367188 74.289062 8.34375 C 76.515625 6.367188 80.804688 5.386719 87.503906 5.320312 L 89.429688 5.300781 L 86.015625 6.730469 "/>
</g>
</svg>
