<?xml version="1.0" encoding="UTF-8"?>
<svg xmlns="http://www.w3.org/2000/svg" xmlns:xlink="http://www.w3.org/1999/xlink" width="96px" height="96px" viewBox="0 0 96 96" version="1.1">
<g id="surface1">
<path style=" stroke:none;fill-rule:nonzero;fill:rgb(0%,0%,0%);fill-opacity:1;" d="M 51.726562 29.84375 C 51.558594 30.4375 51.332031 31.453125 51.21875 32.132812 C 51.105469 32.78125 50.964844 33.375 50.851562 33.429688 C 50.765625 33.488281 50.0625 33.429688 49.296875 33.347656 L 47.886719 33.175781 L 47.546875 31.765625 L 47.179688 30.351562 L 47.238281 31.679688 L 47.292969 33.035156 L 46.109375 33.035156 C 45.429688 33.035156 44.894531 32.894531 44.808594 32.667969 C 44.695312 32.386719 44.640625 32.386719 44.640625 32.667969 C 44.613281 32.921875 44.046875 33.035156 42.804688 33.035156 C 41.140625 33.035156 40.96875 32.980469 40.855469 32.386719 C 40.742188 31.847656 40.742188 31.878906 40.6875 32.527344 C 40.660156 33.289062 40.601562 33.316406 39.246094 33.316406 C 37.921875 33.316406 37.835938 33.289062 37.582031 32.386719 L 37.328125 31.480469 L 37.296875 32.527344 C 37.269531 33.542969 37.242188 33.570312 35.800781 33.796875 C 34.984375 33.9375 34.25 34.023438 34.191406 33.996094 C 34.136719 33.9375 33.996094 33.488281 33.882812 32.980469 L 33.65625 32.046875 L 33.628906 33.089844 C 33.601562 34.277344 33.570312 34.304688 32.160156 34.558594 L 31.117188 34.730469 L 30.832031 33.402344 L 30.523438 32.046875 L 30.605469 33.488281 L 30.691406 34.957031 L 29.648438 35.265625 C 28.234375 35.6875 28.292969 35.6875 27.980469 34.644531 L 27.726562 33.742188 L 27.699219 34.757812 C 27.671875 35.773438 27.671875 35.773438 25.242188 36.707031 L 22.8125 37.664062 L 21.289062 36.085938 C 19.453125 34.164062 19.339844 34.304688 21.007812 36.394531 L 22.222656 37.890625 L 19.117188 39.445312 C 16.660156 40.6875 15.980469 40.914062 15.753906 40.628906 C 15.558594 40.320312 15.53125 40.347656 15.585938 40.714844 C 15.640625 41.054688 14.796875 41.789062 12.847656 43.117188 C 11.292969 44.160156 9.570312 45.375 9.007812 45.796875 C 8.046875 46.53125 7.992188 46.558594 7.3125 46.109375 L 6.636719 45.628906 L 7.171875 46.25 C 7.738281 46.898438 7.738281 46.898438 6.75 47.746094 C 5.761719 48.648438 6.097656 48.566406 7.371094 47.632812 C 8.074219 47.125 8.160156 47.125 8.867188 47.578125 C 9.289062 47.859375 10.390625 48.367188 11.324219 48.707031 L 13.042969 49.328125 L 10.984375 50.625 C 8.980469 51.925781 8.949219 51.953125 9.910156 51.953125 C 10.445312 51.953125 11.578125 52.152344 12.421875 52.375 C 14.34375 52.855469 20.046875 55.117188 20.046875 55.371094 C 20.046875 55.480469 19.707031 55.652344 19.285156 55.765625 C 18.382812 55.992188 12.707031 58.644531 12.707031 58.84375 C 12.707031 58.898438 13.695312 58.617188 14.910156 58.164062 C 16.09375 57.742188 18.128906 57.089844 19.425781 56.726562 L 21.742188 56.105469 L 24.140625 57.175781 C 25.46875 57.769531 26.542969 58.25 26.542969 58.304688 C 26.542969 58.335938 25.976562 58.925781 25.269531 59.660156 C 24.59375 60.394531 23.800781 61.382812 23.546875 61.890625 C 23.097656 62.796875 23.097656 62.796875 24.453125 61.554688 C 25.214844 60.847656 26.316406 59.972656 26.878906 59.605469 L 27.953125 58.984375 L 30.777344 60.054688 C 33.234375 60.988281 33.601562 61.214844 33.457031 61.695312 C 32.921875 63.785156 32.921875 63.753906 33.742188 62.738281 C 34.136719 62.257812 34.703125 61.835938 34.957031 61.835938 C 35.210938 61.863281 36.648438 62.203125 38.117188 62.625 L 40.800781 63.417969 L 41.109375 64.6875 L 41.421875 65.929688 L 41.789062 64.773438 L 42.128906 63.613281 L 43.453125 63.867188 C 44.160156 64.007812 46.730469 64.207031 49.128906 64.320312 L 53.507812 64.519531 L 53.816406 65.449219 C 54.15625 66.492188 54.492188 66.351562 54.492188 65.195312 C 54.492188 64.488281 54.578125 64.433594 55.992188 64.261719 C 56.78125 64.179688 58.730469 64.039062 60.28125 63.925781 L 63.105469 63.753906 L 63.585938 64.6875 L 64.066406 65.648438 L 64.066406 64.574219 C 64.09375 64.007812 64.179688 63.53125 64.320312 63.53125 C 64.433594 63.53125 65.789062 63.332031 67.339844 63.105469 C 70.957031 62.597656 70.757812 62.570312 71.464844 63.273438 L 72.085938 63.894531 L 71.914062 63.164062 C 71.746094 62.511719 71.800781 62.457031 72.875 62.34375 C 73.949219 62.257812 74.089844 62.316406 74.710938 63.21875 C 75.417969 64.261719 75.585938 64.09375 75.105469 62.851562 C 74.851562 62.175781 74.878906 62.144531 76.375 61.976562 C 77.703125 61.808594 78.410156 61.921875 81.203125 62.796875 C 84.847656 63.925781 86.117188 64.066406 86.117188 63.359375 C 86.117188 62.34375 77.535156 53.140625 74.03125 50.398438 C 73.242188 49.777344 72.59375 49.1875 72.566406 49.101562 C 72.566406 49.015625 73.101562 48.59375 73.777344 48.167969 L 74.964844 47.378906 L 77.449219 50.003906 C 78.832031 51.472656 80.667969 53.535156 81.542969 54.636719 C 84.394531 58.222656 84.566406 58.164062 81.996094 54.492188 C 79.566406 50.992188 75.953125 46.871094 73.101562 44.386719 C 71.433594 42.890625 70.445312 41.816406 70.476562 41.476562 C 70.476562 41.082031 70.390625 41.027344 70.136719 41.25 C 69.882812 41.449219 69.121094 41.082031 67.371094 39.953125 C 66.042969 39.078125 64.941406 38.230469 64.941406 38.089844 C 64.941406 37.921875 64.828125 37.863281 64.6875 37.949219 C 64.546875 38.03125 63.472656 37.664062 62.285156 37.101562 C 60.648438 36.3125 60.140625 35.945312 60.113281 35.464844 C 60.085938 34.984375 60.054688 34.984375 59.945312 35.351562 C 59.800781 35.972656 59.800781 35.972656 57.9375 35.324219 C 56.105469 34.703125 56.074219 34.644531 56.46875 33.824219 L 56.78125 33.175781 L 56.246094 33.855469 C 55.707031 34.503906 55.679688 34.53125 53.789062 34.136719 C 52.742188 33.9375 51.8125 33.601562 51.753906 33.375 C 51.671875 33.175781 51.753906 32.105469 51.925781 31.003906 C 52.292969 28.773438 52.207031 28.261719 51.726562 29.84375 Z M 41.082031 35.210938 C 41.167969 35.660156 41.5625 36.480469 41.957031 37.042969 L 42.636719 38.117188 L 41.535156 38.117188 C 40.601562 38.117188 40.292969 37.976562 39.699219 37.1875 C 39.332031 36.707031 38.878906 35.945312 38.710938 35.519531 C 38.398438 34.671875 38.570312 34.503906 39.980469 34.476562 C 40.742188 34.445312 40.914062 34.589844 41.082031 35.210938 Z M 45.375 36.28125 L 45.96875 38.117188 L 45.347656 38.117188 C 44.300781 38.117188 41.507812 35.605469 41.507812 34.671875 C 41.507812 34.558594 42.238281 34.445312 43.144531 34.445312 L 44.78125 34.445312 Z M 47.800781 36.339844 C 48.027344 37.410156 48.199219 38.316406 48.140625 38.371094 C 47.832031 38.683594 46.558594 36.988281 45.796875 35.210938 C 45.488281 34.476562 45.488281 34.445312 46.417969 34.445312 C 47.378906 34.445312 47.378906 34.476562 47.800781 36.339844 Z M 38.257812 36.535156 L 38.851562 38.34375 L 37.722656 38.542969 C 36.453125 38.738281 36.113281 38.429688 35.011719 36.367188 L 34.445312 35.292969 L 35.066406 35.179688 C 37.777344 34.589844 37.636719 34.53125 38.257812 36.535156 Z M 50.765625 36.761719 C 50.878906 39.359375 50.257812 39.386719 49.101562 36.847656 C 48.648438 35.859375 48.28125 34.957031 48.28125 34.871094 C 48.28125 34.757812 48.820312 34.730469 49.496094 34.785156 L 50.683594 34.871094 Z M 54.945312 35.945312 C 55.085938 36.054688 54.550781 39.132812 54.351562 39.445312 C 54.324219 39.472656 53.871094 39.386719 53.308594 39.246094 C 52.433594 38.992188 52.261719 38.796875 51.980469 37.695312 C 51.8125 37.015625 51.671875 36.140625 51.671875 35.746094 L 51.671875 35.066406 L 53.222656 35.433594 C 54.097656 35.632812 54.859375 35.859375 54.945312 35.945312 Z M 34.25 36.761719 C 34.476562 37.441406 34.757812 38.175781 34.871094 38.457031 C 35.097656 39.050781 34.023438 39.445312 33.457031 38.964844 C 33.121094 38.683594 31.625 36.253906 31.625 35.972656 C 31.625 35.859375 32.527344 35.632812 33.234375 35.605469 C 33.683594 35.578125 33.910156 35.832031 34.25 36.761719 Z M 31.566406 37.863281 C 31.933594 38.796875 32.1875 39.613281 32.132812 39.671875 C 32.105469 39.699219 31.765625 39.8125 31.453125 39.925781 C 30.945312 40.09375 30.664062 39.839844 29.789062 38.542969 C 29.222656 37.664062 28.800781 36.902344 28.855469 36.847656 C 29.027344 36.675781 30.324219 36.167969 30.636719 36.167969 C 30.804688 36.167969 31.226562 36.933594 31.566406 37.863281 Z M 58.109375 36.875 L 59.039062 37.242188 L 58.277344 38.597656 C 57.234375 40.433594 57.234375 40.433594 56.386719 40.121094 C 55.707031 39.867188 55.625 39.671875 55.625 38.625 C 55.625 37.949219 55.707031 37.128906 55.792969 36.761719 C 55.992188 36.085938 56.1875 36.085938 58.109375 36.875 Z M 28.800781 38.597656 C 29.195312 39.472656 29.535156 40.261719 29.589844 40.375 C 29.617188 40.488281 29.222656 40.6875 28.6875 40.855469 C 27.785156 41.140625 27.585938 41.082031 26.003906 40.039062 C 25.074219 39.417969 24.226562 38.824219 24.140625 38.683594 C 24.054688 38.542969 24.648438 38.203125 25.46875 37.890625 C 26.285156 37.582031 27.164062 37.269531 27.386719 37.1875 C 27.613281 37.101562 27.867188 37.015625 27.953125 37.015625 C 28.039062 37.015625 28.40625 37.722656 28.800781 38.597656 Z M 61.949219 38.511719 C 63.132812 39.050781 64.09375 39.558594 64.09375 39.640625 C 64.09375 39.980469 62.03125 42.070312 61.75 42.070312 C 61.554688 42.070312 60.761719 41.789062 59.914062 41.449219 C 58.8125 40.996094 58.476562 40.714844 58.617188 40.40625 C 58.703125 40.152344 58.984375 39.417969 59.210938 38.738281 C 59.433594 38.089844 59.660156 37.554688 59.71875 37.554688 C 59.773438 37.554688 60.789062 37.976562 61.949219 38.511719 Z M 24.820312 40.375 L 26.34375 41.789062 L 25.269531 42.238281 C 24.28125 42.636719 24.085938 42.636719 23.292969 42.269531 C 22.304688 41.789062 20.613281 40.433594 20.613281 40.09375 C 20.613281 39.867188 22.503906 38.992188 23.011719 38.992188 C 23.179688 38.992188 23.972656 39.613281 24.820312 40.375 Z M 22.277344 42.75 L 22.898438 43.3125 L 21.96875 43.792969 C 21.148438 44.214844 20.949219 44.214844 19.90625 43.847656 C 18.691406 43.425781 16.941406 42.351562 16.941406 42.015625 C 16.941406 41.902344 17.675781 41.421875 18.550781 40.96875 L 20.160156 40.179688 L 20.921875 41.195312 C 21.316406 41.761719 21.9375 42.464844 22.277344 42.75 Z M 66.464844 40.996094 C 68.667969 42.382812 68.949219 42.664062 68.554688 43.117188 C 68.386719 43.339844 67.738281 43.765625 67.144531 44.074219 L 66.070312 44.613281 L 64.519531 43.738281 C 62.878906 42.804688 62.738281 42.605469 63.359375 42.097656 C 63.585938 41.929688 63.894531 41.394531 64.09375 40.941406 C 64.292969 40.460938 64.574219 40.09375 64.742188 40.09375 C 64.914062 40.09375 65.675781 40.488281 66.464844 40.996094 Z M 35.378906 42.691406 C 34.785156 44.328125 34.558594 49.609375 35.011719 51.640625 C 36.113281 56.726562 39.613281 60.421875 44.582031 61.695312 C 46.644531 62.230469 51.105469 62.285156 52.882812 61.808594 C 58.757812 60.226562 62.738281 54.550781 62.796875 47.632812 C 62.796875 46.136719 62.851562 44.894531 62.878906 44.894531 C 63.21875 44.894531 68.695312 48.140625 70.730469 49.523438 C 72.933594 51.019531 73.296875 51.386719 73.496094 52.320312 C 74.117188 54.917969 72.875 57.515625 70.191406 59.324219 C 66.210938 62.003906 59.800781 63.246094 50.003906 63.246094 C 46.589844 63.246094 44.273438 63.105469 42.859375 62.824219 C 37.722656 61.75 29.84375 58.503906 25.695312 55.765625 C 23.292969 54.183594 21.289062 51.980469 20.835938 50.484375 C 20.582031 49.582031 20.582031 49.128906 20.921875 48.199219 C 21.289062 47.125 21.515625 46.898438 23.660156 45.855469 C 26.597656 44.386719 29.761719 43.117188 32.78125 42.238281 C 35.972656 41.28125 35.914062 41.28125 35.378906 42.691406 Z M 18.605469 44.359375 L 19.539062 45.089844 L 18.492188 45.742188 C 17.507812 46.363281 17.421875 46.363281 16.292969 45.910156 C 14.851562 45.347656 13.269531 44.414062 13.269531 44.105469 C 13.269531 43.992188 13.949219 43.480469 14.765625 43.03125 L 16.234375 42.15625 L 16.941406 42.890625 C 17.335938 43.285156 18.070312 43.960938 18.605469 44.359375 Z M 71.097656 44.246094 L 72.339844 45.261719 L 71.6875 45.628906 C 69.96875 46.589844 69.261719 46.644531 68.246094 45.996094 L 67.285156 45.347656 L 68.300781 44.328125 C 68.867188 43.738281 69.429688 43.257812 69.570312 43.226562 C 69.714844 43.226562 70.390625 43.652344 71.097656 44.246094 Z M 16.066406 47.066406 C 16.152344 47.125 15.953125 47.351562 15.640625 47.578125 C 14.910156 48.113281 12.421875 48.113281 10.390625 47.546875 C 9.488281 47.292969 8.753906 47.011719 8.753906 46.898438 C 8.753906 46.8125 9.601562 46.191406 10.617188 45.542969 L 12.507812 44.359375 L 14.230469 45.683594 C 15.164062 46.390625 16.007812 47.039062 16.066406 47.066406 Z M 43.566406 46.417969 C 44.726562 47.179688 45.855469 49.722656 45.65625 51.132812 C 45.289062 53.84375 42.382812 54.664062 39.953125 52.742188 C 38.457031 51.558594 37.636719 48.566406 38.429688 47.066406 C 39.273438 45.488281 41.675781 45.203125 43.566406 46.417969 Z M 73.777344 47.632812 C 72.761719 48.054688 71.066406 48.085938 70.671875 47.6875 C 70.445312 47.464844 70.671875 47.125 71.519531 46.445312 L 72.707031 45.542969 L 73.636719 46.417969 L 74.570312 47.292969 Z M 60.226562 47.773438 C 60.707031 49.554688 58.84375 54.128906 56.667969 56.613281 C 55.960938 57.402344 54.71875 58.417969 53.902344 58.871094 C 52.519531 59.632812 52.121094 59.71875 49.695312 59.71875 C 46.757812 59.71875 43.707031 58.925781 42.351562 57.855469 L 41.648438 57.261719 L 42.492188 57.457031 C 44.386719 57.855469 47.324219 57.9375 48.820312 57.601562 C 51.105469 57.121094 53.648438 55.820312 55.285156 54.351562 C 56.949219 52.855469 57.65625 51.8125 58.304688 49.863281 C 58.8125 48.339844 59.519531 47.152344 59.859375 47.152344 C 59.972656 47.152344 60.140625 47.433594 60.226562 47.773438 Z M 79.058594 58.445312 C 81.148438 59.519531 80.019531 60.761719 77.421875 60.28125 C 75.980469 60.027344 75.386719 59.632812 75.386719 59.011719 C 75.386719 57.824219 77.28125 57.542969 79.058594 58.445312 Z M 79.058594 58.445312 "/>
</g>
</svg>
