<svg id="svg" version="1.1" xmlns="http://www.w3.org/2000/svg" xmlns:xlink="http://www.w3.org/1999/xlink" width="400" height="400" viewBox="0, 0, 400,400"><g id="svgg"><path id="path0" d="M124.600 68.000 C 124.464 68.220,123.913 68.400,123.376 68.400 C 122.839 68.400,122.400 68.580,122.400 68.800 C 122.400 69.020,122.040 69.200,121.600 69.200 C 121.160 69.200,120.800 69.380,120.800 69.600 C 120.800 69.820,120.518 70.000,120.173 70.000 C 119.403 70.000,113.600 75.864,113.600 76.641 C 113.600 76.948,113.420 77.200,113.200 77.200 C 112.980 77.200,112.800 77.549,112.800 77.976 C 112.800 78.403,112.620 78.864,112.400 79.000 C 112.180 79.136,112.000 79.777,112.000 80.424 C 112.000 81.071,111.820 81.600,111.600 81.600 C 111.380 81.600,111.200 81.960,111.200 82.400 C 111.200 83.137,110.933 83.200,107.800 83.200 C 105.800 83.200,104.400 83.365,104.400 83.600 C 104.400 83.820,103.860 84.000,103.200 84.000 C 102.540 84.000,102.000 84.150,102.000 84.332 C 102.000 84.515,101.506 84.920,100.903 85.232 C 99.399 86.011,97.200 88.240,97.200 88.987 C 97.200 89.324,97.020 89.600,96.800 89.600 C 96.580 89.600,96.400 89.935,96.400 90.344 C 96.400 90.946,95.998 91.132,94.300 91.318 C 91.794 91.591,87.473 92.981,87.274 93.577 C 87.197 93.810,86.863 94.000,86.532 94.000 C 85.794 94.000,81.600 98.297,81.600 99.054 C 81.600 99.354,81.420 99.600,81.200 99.600 C 80.980 99.600,80.800 99.960,80.800 100.400 C 80.800 100.840,80.620 101.200,80.400 101.200 C 80.180 101.200,80.000 101.740,80.000 102.400 C 80.000 103.060,79.820 103.600,79.600 103.600 C 79.359 103.600,79.200 105.267,79.200 107.800 C 79.200 110.333,79.359 112.000,79.600 112.000 C 79.820 112.000,80.000 112.433,80.000 112.962 C 80.000 116.693,86.513 123.394,90.842 124.117 C 91.369 124.205,92.101 124.409,92.469 124.569 C 93.109 124.849,98.001 124.752,118.000 124.065 C 128.400 123.707,127.200 123.947,127.200 122.224 C 127.200 120.177,127.514 120.215,109.000 120.000 L 91.800 119.800 89.910 118.689 C 79.010 112.281,83.037 96.000,95.522 96.000 C 98.635 96.000,99.777 95.413,100.134 93.630 C 100.794 90.330,105.139 87.685,109.103 88.169 C 116.204 89.037,115.397 89.451,115.996 84.632 C 117.960 68.827,137.867 66.087,143.261 80.879 C 144.325 83.798,145.219 84.387,147.072 83.389 C 147.802 82.996,148.400 82.541,148.400 82.379 C 148.400 82.216,149.559 81.525,150.975 80.842 C 159.040 76.952,168.000 82.626,168.000 91.624 C 168.000 93.939,167.879 94.464,167.300 94.650 C 162.698 96.129,160.219 98.982,160.478 102.502 C 160.632 104.589,161.764 103.781,162.186 101.283 C 163.566 93.112,176.774 95.283,179.396 104.111 C 180.656 108.353,180.372 109.351,176.534 114.200 C 171.638 120.385,172.634 119.983,162.050 120.040 C 153.270 120.087,152.650 120.200,152.466 121.796 C 152.234 123.807,152.968 124.000,160.853 124.000 C 164.758 124.000,168.035 124.135,168.136 124.300 C 168.236 124.465,166.075 127.480,163.333 131.000 C 160.591 134.520,157.373 138.660,156.182 140.200 C 154.992 141.740,152.965 144.350,151.678 146.000 C 150.390 147.650,146.602 152.510,143.259 156.800 C 139.916 161.090,136.960 164.870,136.690 165.200 C 136.419 165.530,132.420 170.660,127.802 176.600 C 123.184 182.540,119.184 187.670,118.912 188.000 C 113.134 195.020,98.927 213.798,98.245 215.318 C 93.404 226.098,100.192 238.456,112.008 240.373 C 113.712 240.650,130.388 240.795,160.700 240.797 L 206.800 240.800 206.802 272.100 C 206.804 289.969,206.968 304.396,207.185 305.721 C 209.017 316.907,223.073 321.854,231.337 314.222 C 232.065 313.550,235.513 309.400,238.999 305.000 C 242.486 300.600,245.443 296.910,245.571 296.800 C 245.700 296.690,246.278 295.970,246.857 295.200 C 247.436 294.430,248.266 293.395,248.702 292.900 L 249.494 292.000 281.870 292.000 C 317.111 292.000,315.797 292.087,315.534 289.780 L 315.400 288.600 282.600 288.376 C 248.194 288.140,248.573 288.161,244.638 286.236 C 230.329 279.235,235.021 256.965,250.992 256.079 C 254.970 255.858,255.459 255.607,256.028 253.495 C 258.527 244.215,269.038 240.967,276.224 247.255 C 279.798 250.382,280.185 249.918,280.241 242.438 C 280.269 238.706,280.462 236.561,280.857 235.600 C 288.277 217.544,312.204 220.335,316.005 239.700 C 316.627 242.866,317.931 242.938,321.060 239.979 C 330.896 230.676,347.031 237.063,347.895 250.600 L 348.099 253.800 345.750 254.343 C 340.646 255.521,334.682 261.330,336.423 263.427 C 337.058 264.193,337.478 263.850,338.461 261.760 C 339.536 259.472,342.309 257.041,344.563 256.410 C 361.620 251.635,371.613 274.746,356.876 284.886 C 353.082 287.496,352.363 287.600,338.186 287.600 C 324.417 287.600,324.400 287.603,324.400 289.666 C 324.400 291.604,324.990 291.679,338.936 291.518 C 351.084 291.378,351.942 291.319,354.355 290.462 C 372.453 284.033,372.351 259.210,354.200 252.780 C 352.259 252.092,352.191 252.014,351.884 250.136 C 350.864 243.890,349.587 241.160,346.014 237.586 C 339.399 230.972,328.748 229.795,321.328 234.859 C 319.496 236.109,318.800 236.279,318.800 235.475 C 318.800 232.198,312.566 224.823,307.771 222.428 C 306.797 221.942,306.000 221.478,306.000 221.398 C 306.000 221.242,310.786 215.134,311.170 214.800 C 311.296 214.690,312.028 213.790,312.794 212.800 C 313.561 211.810,314.405 210.730,314.670 210.400 C 314.934 210.070,317.104 207.370,319.490 204.400 C 321.877 201.430,324.382 198.190,325.056 197.200 C 331.029 188.431,327.700 175.587,318.226 170.856 C 314.078 168.784,315.281 168.830,263.919 168.814 L 216.039 168.800 215.919 135.900 L 215.800 103.000 214.473 100.286 C 211.336 93.871,204.850 90.619,198.269 92.162 C 193.596 93.258,190.867 95.412,186.200 101.690 C 183.759 104.974,184.061 104.986,182.452 101.532 C 180.500 97.341,177.273 94.342,173.066 92.808 L 171.932 92.394 172.213 89.397 C 172.411 87.288,172.362 86.400,172.047 86.400 C 171.801 86.400,171.600 85.984,171.600 85.475 C 171.600 84.967,171.240 84.164,170.800 83.692 C 170.360 83.220,170.000 82.630,170.000 82.382 C 170.000 81.751,165.613 77.600,164.946 77.600 C 164.646 77.600,164.400 77.420,164.400 77.200 C 164.400 76.980,164.040 76.800,163.600 76.800 C 163.160 76.800,162.800 76.640,162.800 76.444 C 162.800 74.980,152.719 74.977,149.905 76.439 C 149.523 76.638,148.953 76.800,148.639 76.800 C 148.324 76.800,148.003 76.990,147.926 77.223 C 147.727 77.819,146.400 77.234,146.400 76.551 C 146.400 75.911,140.631 70.000,140.006 70.000 C 139.783 70.000,139.600 69.820,139.600 69.600 C 139.600 69.380,139.240 69.200,138.800 69.200 C 138.360 69.200,138.000 69.020,138.000 68.800 C 138.000 68.580,137.460 68.400,136.800 68.400 C 136.140 68.400,135.600 68.220,135.600 68.000 C 135.600 67.753,133.541 67.600,130.224 67.600 C 127.071 67.600,124.745 67.765,124.600 68.000 M204.538 100.853 C 207.777 102.941,207.598 100.698,207.614 139.426 C 207.626 168.471,207.717 173.955,208.200 174.800 C 208.621 175.536,208.775 177.323,208.786 181.569 C 208.801 187.608,209.129 188.810,210.762 188.794 C 212.410 188.778,212.593 188.215,212.800 182.515 L 213.000 177.000 261.200 176.883 C 287.710 176.818,310.344 176.876,311.497 177.011 C 316.438 177.590,319.804 181.629,319.794 186.969 C 319.787 191.117,320.222 190.403,309.421 204.000 C 304.440 210.270,299.878 216.022,299.282 216.782 C 296.895 219.832,296.648 220.013,294.395 220.374 C 284.913 221.892,277.986 229.164,276.084 239.600 C 275.721 241.589,275.798 241.567,272.413 240.615 C 264.712 238.449,256.905 242.375,252.880 250.437 C 252.246 251.708,252.011 251.830,249.400 252.242 C 232.331 254.939,226.130 274.269,238.420 286.470 L 241.512 289.539 236.656 295.701 C 227.163 307.746,226.302 308.755,224.994 309.376 C 222.079 310.759,217.804 309.492,216.205 306.770 C 215.419 305.432,215.395 304.567,215.200 270.104 L 215.000 234.807 213.900 233.787 L 212.800 232.768 212.795 214.484 C 212.789 194.701,212.775 194.509,211.336 194.148 C 208.796 193.511,208.819 193.340,208.704 213.958 L 208.600 232.600 161.000 232.716 C 110.782 232.838,111.693 232.867,109.000 231.034 C 103.110 227.026,103.265 220.909,109.458 212.976 C 115.889 204.738,144.697 167.819,147.306 164.472 C 148.795 162.562,150.982 159.740,152.167 158.200 C 154.162 155.607,165.957 140.494,167.513 138.536 C 167.891 138.062,174.500 129.573,182.200 119.673 C 195.146 103.028,197.175 100.698,199.400 99.920 C 200.747 99.449,202.992 99.857,204.538 100.853 M141.800 120.257 C 138.533 121.116,140.094 124.000,143.826 124.000 C 146.669 124.000,147.600 123.509,147.600 122.010 C 147.600 120.431,144.595 119.523,141.800 120.257 M132.416 121.171 C 131.603 122.688,133.258 124.425,134.753 123.625 C 136.531 122.674,136.000 120.400,134.000 120.400 C 133.252 120.400,132.679 120.679,132.416 121.171 M289.968 248.410 C 286.168 249.041,282.753 251.746,281.221 255.341 C 280.545 256.925,280.265 257.223,279.696 256.960 C 274.494 254.547,268.248 257.696,266.239 263.744 C 266.037 264.350,265.738 264.440,264.624 264.231 C 259.332 263.238,252.400 268.818,252.400 274.071 C 252.400 276.289,253.204 275.868,253.926 273.273 C 255.186 268.745,258.524 266.286,263.535 266.195 C 267.007 266.132,267.581 265.854,267.594 264.226 C 267.634 259.148,274.161 256.032,278.982 258.790 C 281.160 260.036,282.000 259.904,282.000 258.316 C 282.000 254.102,287.242 250.000,292.625 250.000 C 294.235 250.000,295.651 249.840,295.772 249.645 C 296.399 248.631,292.999 247.908,289.968 248.410 " stroke="none" fill="#47302f" fill-rule="evenodd"></path><path id="path1" d="M233.777 55.638 C 233.654 55.837,232.134 56.000,230.400 56.000 C 228.666 56.000,227.136 56.180,227.000 56.400 C 226.864 56.620,225.773 56.800,224.576 56.800 C 223.379 56.800,222.400 56.980,222.400 57.200 C 222.400 57.420,221.691 57.600,220.824 57.600 C 219.957 57.600,219.136 57.780,219.000 58.000 C 218.864 58.220,218.232 58.400,217.595 58.400 C 216.959 58.400,216.024 58.565,215.519 58.767 C 213.950 59.395,213.016 59.720,212.600 59.784 C 212.380 59.818,211.840 59.987,211.400 60.160 C 210.960 60.333,210.060 60.659,209.400 60.884 C 206.766 61.783,202.854 63.568,201.538 64.471 C 200.954 64.872,200.269 65.200,200.016 65.200 C 199.763 65.200,198.496 65.920,197.200 66.800 C 195.904 67.680,194.654 68.400,194.422 68.400 C 194.190 68.400,194.000 68.580,194.000 68.800 C 194.000 69.020,193.730 69.200,193.400 69.200 C 193.070 69.200,192.800 69.338,192.800 69.506 C 192.800 69.674,192.080 70.256,191.200 70.800 C 190.320 71.344,189.600 71.926,189.600 72.094 C 189.600 72.262,189.359 72.400,189.064 72.400 C 188.769 72.400,187.670 73.210,186.622 74.200 C 185.574 75.190,184.596 76.000,184.449 76.000 C 184.015 76.000,179.200 80.777,179.200 81.207 C 179.200 81.423,178.969 81.600,178.686 81.600 C 178.404 81.600,177.878 82.095,177.519 82.700 C 177.159 83.305,176.041 84.658,175.033 85.707 C 174.025 86.756,173.200 87.881,173.200 88.207 C 173.200 88.533,173.020 88.800,172.800 88.800 C 171.196 88.800,172.884 92.758,174.500 92.787 C 174.885 92.794,175.200 92.980,175.200 93.200 C 175.200 93.420,175.425 93.604,175.700 93.610 C 177.583 93.647,181.864 98.385,183.203 101.912 L 183.881 103.698 187.183 99.621 C 191.300 94.537,193.193 93.094,197.628 91.661 C 199.382 91.095,204.261 91.052,204.600 91.600 C 204.736 91.820,205.188 92.000,205.604 92.000 C 207.585 92.000,212.027 95.237,213.836 98.000 C 216.325 101.799,216.181 99.622,216.307 135.500 L 216.422 168.400 264.745 168.400 C 312.484 168.400,313.098 168.410,315.582 169.225 C 320.905 170.973,325.609 175.406,327.227 180.200 C 327.524 181.080,327.935 182.029,328.140 182.309 C 328.701 183.075,328.643 191.517,328.072 192.088 C 327.812 192.348,327.600 192.879,327.600 193.268 C 327.600 194.014,326.480 196.188,325.059 198.200 C 324.204 199.411,323.617 200.150,322.255 201.734 C 321.845 202.210,321.036 203.230,320.457 204.000 C 319.878 204.770,319.312 205.490,319.198 205.600 C 319.085 205.710,316.842 208.500,314.213 211.800 C 311.584 215.100,309.156 218.102,308.817 218.471 C 307.737 219.646,306.727 221.600,307.199 221.600 C 309.419 221.600,315.778 227.795,317.875 232.000 C 318.698 233.650,319.401 235.053,319.438 235.119 C 319.474 235.184,320.651 234.608,322.052 233.839 C 335.741 226.322,349.642 234.128,352.626 251.008 C 352.726 251.575,353.315 251.977,354.596 252.356 C 371.949 257.479,372.809 284.685,355.800 290.427 C 354.920 290.724,353.947 291.154,353.639 291.383 C 353.274 291.654,346.568 291.842,334.506 291.919 L 315.934 292.038 316.217 291.119 C 316.476 290.277,316.426 290.292,315.621 291.300 L 314.742 292.400 282.241 292.400 L 249.740 292.400 245.418 297.823 C 243.041 300.806,240.895 303.461,240.648 303.723 C 240.402 303.985,239.708 304.859,239.106 305.665 C 238.504 306.471,237.779 307.371,237.494 307.665 C 237.208 307.959,236.133 309.302,235.104 310.648 C 229.216 318.353,221.892 320.447,214.400 316.569 C 211.506 315.070,207.600 310.785,207.600 309.108 C 207.600 308.807,207.375 308.335,207.100 308.060 C 206.711 307.672,206.555 300.193,206.400 274.480 L 206.200 241.400 158.400 241.200 C 119.019 241.035,110.389 240.903,109.400 240.450 C 108.740 240.148,107.750 239.703,107.200 239.461 C 100.784 236.642,96.000 229.556,96.000 222.873 C 96.000 219.316,97.249 215.432,99.163 213.037 C 99.850 212.178,100.805 210.828,101.285 210.037 C 101.765 209.247,102.258 208.510,102.380 208.400 C 102.502 208.290,103.412 207.124,104.401 205.809 C 106.315 203.266,107.154 202.190,107.800 201.455 C 108.020 201.205,109.010 199.920,110.000 198.600 C 110.990 197.280,111.980 196.001,112.200 195.758 C 112.420 195.515,113.680 193.918,115.000 192.209 C 116.320 190.500,118.210 188.072,119.200 186.814 C 120.190 185.556,121.450 183.930,122.000 183.200 C 122.550 182.470,123.186 181.677,123.413 181.437 C 123.640 181.196,124.262 180.370,124.794 179.600 C 125.327 178.830,126.049 177.930,126.400 177.600 C 126.751 177.270,127.477 176.370,128.013 175.600 C 128.550 174.830,129.290 173.840,129.659 173.400 C 130.331 172.599,136.055 165.230,137.716 163.029 C 138.857 161.517,140.524 159.456,140.813 159.200 C 140.937 159.090,141.477 158.370,142.014 157.600 C 142.550 156.830,143.211 155.930,143.483 155.600 C 143.755 155.270,146.157 152.210,148.822 148.800 C 151.487 145.390,153.967 142.236,154.334 141.791 C 154.700 141.346,155.810 139.906,156.800 138.591 C 157.790 137.276,158.780 136.004,159.000 135.763 C 159.220 135.523,159.850 134.733,160.400 134.008 C 160.950 133.282,162.814 130.869,164.543 128.644 L 167.687 124.600 160.564 124.490 C 154.646 124.399,153.320 124.271,152.721 123.728 C 152.286 123.335,152.000 123.259,152.000 123.538 C 152.000 123.826,151.246 124.000,150.000 124.000 C 148.754 124.000,148.000 123.826,148.000 123.538 C 148.000 123.262,147.706 123.342,147.269 123.738 C 145.966 124.917,141.462 124.659,140.429 123.346 C 139.866 122.630,139.600 122.491,139.600 122.913 C 139.600 123.254,139.825 123.624,140.100 123.735 C 140.375 123.846,139.464 123.951,138.076 123.968 C 136.162 123.992,135.623 123.879,135.845 123.500 C 136.006 123.225,135.777 123.315,135.337 123.700 C 133.326 125.460,130.706 122.412,132.500 120.399 C 132.925 119.922,132.896 119.918,132.300 120.368 C 131.488 120.983,131.373 122.810,132.100 123.547 C 132.503 123.957,132.097 124.041,130.000 123.982 C 128.570 123.942,127.130 124.013,126.800 124.142 C 126.470 124.270,121.895 124.425,116.633 124.487 C 109.416 124.572,107.025 124.723,106.900 125.100 C 106.808 125.375,106.468 125.600,106.143 125.600 C 105.799 125.600,105.672 125.792,105.838 126.062 C 106.000 126.323,105.949 126.416,105.722 126.275 C 105.346 126.043,104.163 126.778,101.482 128.911 C 100.057 130.045,94.700 135.200,94.947 135.200 C 95.049 135.200,94.518 135.833,93.767 136.607 C 93.015 137.381,92.400 138.183,92.400 138.389 C 92.400 138.595,91.995 139.177,91.500 139.682 C 91.005 140.187,90.345 141.095,90.032 141.700 C 89.720 142.305,89.315 142.800,89.132 142.800 C 88.950 142.800,88.800 143.094,88.800 143.453 C 88.800 143.812,88.485 144.397,88.100 144.753 C 87.715 145.109,86.950 146.342,86.400 147.494 C 85.850 148.645,85.265 149.590,85.100 149.594 C 84.935 149.597,84.800 149.949,84.800 150.376 C 84.800 150.803,84.620 151.264,84.400 151.400 C 84.180 151.536,84.000 151.991,84.000 152.411 C 84.000 152.832,83.640 153.817,83.200 154.600 C 82.760 155.383,82.400 156.368,82.400 156.789 C 82.400 157.209,82.240 157.652,82.044 157.773 C 81.708 157.981,81.585 158.476,80.967 162.104 C 80.827 162.931,80.551 163.706,80.356 163.827 C 80.160 163.948,80.000 164.962,80.000 166.080 C 80.000 168.421,79.351 169.167,77.300 169.187 C 76.585 169.194,76.000 169.380,76.000 169.600 C 76.000 169.820,75.561 170.000,75.024 170.000 C 74.487 170.000,73.936 170.180,73.800 170.400 C 73.664 170.620,73.113 170.800,72.576 170.800 C 72.039 170.800,71.600 170.980,71.600 171.200 C 71.600 171.420,71.240 171.600,70.800 171.600 C 70.360 171.600,70.000 171.780,70.000 172.000 C 70.000 172.220,69.640 172.400,69.200 172.400 C 68.760 172.400,68.400 172.580,68.400 172.800 C 68.400 173.020,68.040 173.200,67.600 173.200 C 67.160 173.200,66.800 173.380,66.800 173.600 C 66.800 173.820,66.564 174.000,66.275 174.000 C 65.987 174.000,65.364 174.360,64.892 174.800 C 64.420 175.240,63.923 175.600,63.789 175.600 C 62.634 175.600,52.800 184.637,52.800 185.697 C 52.800 185.922,52.485 186.398,52.100 186.754 C 51.304 187.491,50.059 189.458,49.729 190.500 C 49.607 190.885,49.348 191.200,49.153 191.200 C 48.959 191.200,48.800 191.560,48.800 192.000 C 48.800 192.440,48.665 192.801,48.500 192.803 C 48.141 192.807,47.200 194.744,47.200 195.480 C 47.200 195.766,47.057 196.000,46.883 196.000 C 46.292 196.000,45.607 199.356,46.130 199.689 C 46.389 199.853,52.099 199.991,58.820 199.994 C 71.876 200.000,72.000 200.019,72.000 202.000 C 72.000 203.988,71.920 204.000,58.196 204.000 C 43.982 204.000,44.303 203.942,43.786 206.600 C 43.395 208.606,43.375 218.726,43.756 221.400 C 44.193 224.466,45.538 229.568,46.070 230.180 C 46.251 230.389,46.400 230.974,46.400 231.480 C 46.400 231.986,46.580 232.400,46.800 232.400 C 47.020 232.400,47.200 232.760,47.200 233.200 C 47.200 233.640,47.380 234.000,47.600 234.000 C 47.820 234.000,48.000 234.287,48.000 234.638 C 48.000 234.989,48.321 235.754,48.714 236.338 C 49.107 236.922,49.662 237.866,49.948 238.436 C 50.233 239.006,50.991 240.086,51.632 240.836 C 52.274 241.586,52.799 242.337,52.799 242.505 C 52.800 242.945,61.120 251.200,61.562 251.200 C 61.766 251.200,61.993 251.345,62.067 251.523 C 62.259 251.991,65.865 254.400,66.372 254.400 C 66.607 254.400,66.800 254.580,66.800 254.800 C 66.800 255.020,67.145 255.200,67.567 255.200 C 67.988 255.200,68.393 255.350,68.467 255.534 C 68.634 255.955,73.977 258.000,74.908 258.000 C 75.289 258.000,75.600 258.180,75.600 258.400 C 75.600 258.620,76.219 258.800,76.976 258.800 C 77.733 258.800,78.464 258.980,78.600 259.200 C 78.736 259.420,79.737 259.600,80.824 259.600 C 81.911 259.600,82.800 259.780,82.800 260.000 C 82.800 260.241,84.467 260.400,87.000 260.400 L 91.200 260.400 91.200 263.800 C 91.200 265.800,91.365 267.200,91.600 267.200 C 91.838 267.200,92.000 268.711,92.000 270.933 C 92.000 272.987,92.129 274.796,92.287 274.953 C 92.444 275.111,92.589 275.636,92.608 276.120 C 92.683 278.045,93.322 281.395,93.859 282.679 C 94.170 283.425,94.327 284.195,94.206 284.390 C 94.086 284.585,94.170 284.858,94.393 284.996 C 94.617 285.134,94.800 285.762,94.800 286.390 C 94.800 287.019,94.978 287.593,95.197 287.667 C 95.415 287.740,95.634 288.295,95.684 288.900 C 95.734 289.505,95.883 290.000,96.015 290.000 C 96.147 290.000,96.500 290.900,96.800 292.000 C 97.100 293.100,97.492 294.000,97.672 294.000 C 97.853 294.000,98.000 294.349,98.000 294.776 C 98.000 295.203,98.180 295.664,98.400 295.800 C 98.620 295.936,98.800 296.397,98.800 296.824 C 98.800 297.251,98.980 297.600,99.200 297.600 C 99.420 297.600,99.600 297.960,99.600 298.400 C 99.600 298.840,99.780 299.200,100.000 299.200 C 100.220 299.200,100.400 299.560,100.400 300.000 C 100.400 300.440,100.580 300.800,100.800 300.800 C 101.020 300.800,101.200 301.070,101.200 301.400 C 101.200 301.730,101.346 302.000,101.525 302.000 C 101.704 302.000,102.098 302.630,102.400 303.400 C 102.702 304.170,103.096 304.800,103.275 304.800 C 103.454 304.800,103.600 305.036,103.600 305.325 C 103.600 305.613,103.960 306.236,104.400 306.708 C 104.840 307.180,105.200 307.709,105.201 307.883 C 105.201 308.057,105.741 308.830,106.400 309.600 C 107.059 310.370,107.599 311.153,107.599 311.340 C 107.600 311.526,108.140 312.183,108.800 312.800 C 109.460 313.417,110.000 314.105,110.000 314.330 C 110.000 315.254,120.779 326.000,121.705 326.000 C 121.911 326.000,122.583 326.540,123.200 327.200 C 123.817 327.860,124.492 328.400,124.701 328.400 C 124.910 328.400,125.646 328.940,126.337 329.600 C 127.028 330.260,127.782 330.800,128.013 330.800 C 128.244 330.800,128.789 331.131,129.223 331.536 C 129.658 331.941,130.505 332.526,131.107 332.835 C 131.708 333.145,132.290 333.489,132.400 333.599 C 132.919 334.120,138.762 337.200,139.231 337.200 C 139.423 337.200,140.742 337.732,142.163 338.383 C 143.584 339.034,145.703 339.858,146.873 340.215 C 148.043 340.572,149.413 341.030,149.919 341.232 C 150.424 341.434,151.369 341.600,152.019 341.600 C 152.668 341.600,153.200 341.780,153.200 342.000 C 153.200 342.220,154.010 342.400,155.000 342.400 C 155.990 342.400,156.800 342.580,156.800 342.800 C 156.800 343.020,157.801 343.200,159.024 343.200 C 160.404 343.200,161.153 343.352,161.000 343.600 C 160.842 343.856,162.129 344.000,164.576 344.000 C 166.961 344.000,168.400 344.157,168.400 344.417 C 168.400 344.689,170.410 344.814,174.200 344.778 C 177.390 344.748,180.000 344.560,180.000 344.361 C 180.000 344.163,181.530 344.000,183.400 344.000 C 185.270 344.000,186.800 343.837,186.800 343.639 C 186.800 343.440,187.745 343.167,188.900 343.032 C 194.158 342.418,194.800 342.301,194.800 341.961 C 194.800 341.763,195.271 341.600,195.846 341.600 C 197.134 341.600,201.656 340.190,203.695 339.153 C 204.077 338.959,204.617 338.794,204.895 338.787 C 205.173 338.781,206.475 338.241,207.790 337.587 C 209.104 336.934,210.394 336.400,210.656 336.400 C 210.919 336.400,211.193 336.265,211.267 336.100 C 211.340 335.935,212.615 335.172,214.100 334.404 C 215.585 333.637,216.800 332.872,216.800 332.704 C 216.800 332.537,217.160 332.400,217.600 332.400 C 218.040 332.400,218.400 332.262,218.400 332.094 C 218.400 331.926,219.120 331.344,220.000 330.800 C 220.880 330.256,221.600 329.674,221.600 329.506 C 221.600 329.338,221.804 329.200,222.053 329.200 C 222.302 329.200,222.797 328.868,223.153 328.463 C 223.509 328.057,224.205 327.511,224.699 327.249 C 225.933 326.595,228.580 324.179,233.635 319.094 L 237.915 314.787 240.211 316.994 C 241.474 318.207,242.738 319.200,243.020 319.200 C 243.303 319.200,243.593 319.371,243.667 319.581 C 243.876 320.179,250.301 323.915,251.617 324.204 C 252.268 324.347,252.800 324.629,252.800 324.832 C 252.800 325.034,253.239 325.200,253.776 325.200 C 254.313 325.200,254.864 325.380,255.000 325.600 C 255.136 325.820,255.676 326.000,256.200 326.000 C 256.724 326.000,257.264 326.180,257.400 326.400 C 257.536 326.620,258.177 326.800,258.824 326.800 C 259.471 326.800,260.000 326.980,260.000 327.200 C 260.000 327.420,260.799 327.600,261.776 327.600 C 262.753 327.600,263.664 327.780,263.800 328.000 C 264.136 328.543,280.000 328.543,280.000 328.000 C 280.000 327.780,280.900 327.600,282.000 327.600 C 283.100 327.600,284.000 327.420,284.000 327.200 C 284.000 326.980,284.529 326.800,285.176 326.800 C 285.823 326.800,286.464 326.620,286.600 326.400 C 286.736 326.180,287.287 326.000,287.824 326.000 C 288.361 326.000,288.800 325.820,288.800 325.600 C 288.800 325.380,289.250 325.200,289.800 325.200 C 290.350 325.200,290.800 325.020,290.800 324.800 C 290.800 324.580,291.072 324.400,291.405 324.400 C 291.738 324.400,292.323 324.241,292.705 324.048 C 293.087 323.854,294.210 323.314,295.200 322.847 C 297.156 321.925,299.282 320.732,299.600 320.377 C 299.710 320.254,300.179 319.894,300.643 319.577 C 302.535 318.281,308.000 313.397,308.000 313.001 C 308.000 312.780,308.924 311.640,310.500 309.918 C 311.105 309.256,311.600 308.563,311.600 308.376 C 311.600 308.189,312.050 307.586,312.600 307.036 C 313.150 306.486,313.600 305.758,313.600 305.418 C 313.600 305.078,313.780 304.800,314.000 304.800 C 314.220 304.800,314.400 304.607,314.400 304.371 C 314.400 303.657,315.562 302.729,316.066 303.041 C 316.891 303.551,319.682 304.066,323.600 304.432 C 328.355 304.876,327.516 304.878,332.200 304.413 C 338.474 303.792,340.000 303.546,340.000 303.160 C 340.000 302.962,340.525 302.800,341.167 302.800 C 341.808 302.800,342.393 302.622,342.467 302.403 C 342.540 302.185,343.095 301.966,343.700 301.916 C 344.305 301.866,344.800 301.685,344.800 301.513 C 344.800 301.341,344.991 301.200,345.225 301.200 C 345.686 301.200,350.872 298.789,351.200 298.423 C 351.310 298.299,351.895 297.944,352.500 297.632 C 353.105 297.320,353.600 296.915,353.600 296.732 C 353.600 296.550,353.782 296.400,354.003 296.400 C 354.396 296.400,355.980 295.121,357.843 293.300 C 358.349 292.805,358.909 292.400,359.087 292.400 C 359.265 292.400,359.768 291.922,360.205 291.338 C 360.642 290.754,361.450 289.782,362.000 289.178 C 363.771 287.234,364.400 286.400,364.400 285.995 C 364.400 285.778,364.550 285.600,364.732 285.600 C 364.915 285.600,365.320 285.105,365.632 284.500 C 365.944 283.895,366.293 283.310,366.407 283.200 C 366.964 282.667,369.695 276.594,370.455 274.200 C 370.735 273.320,371.107 272.429,371.282 272.220 C 371.457 272.011,371.600 271.192,371.600 270.400 C 371.600 269.608,371.792 268.768,372.027 268.533 C 372.693 267.867,372.589 252.902,371.906 251.200 C 371.773 250.870,371.560 250.105,371.432 249.500 C 371.305 248.895,371.096 247.905,370.970 247.300 C 370.731 246.158,370.596 245.795,369.301 242.800 C 368.873 241.810,368.271 240.415,367.964 239.700 C 367.656 238.985,367.269 238.400,367.102 238.400 C 366.936 238.400,366.800 238.130,366.800 237.800 C 366.800 237.470,366.620 237.200,366.400 237.200 C 366.180 237.200,366.000 236.880,366.000 236.488 C 366.000 236.097,365.640 235.517,365.200 235.200 C 364.760 234.883,364.400 234.399,364.400 234.125 C 364.400 233.572,362.780 231.620,359.900 228.702 C 358.161 226.940,357.416 225.200,358.400 225.200 C 358.620 225.200,358.800 224.750,358.800 224.200 C 358.800 223.650,358.980 223.200,359.200 223.200 C 359.420 223.200,359.600 222.851,359.600 222.424 C 359.600 221.997,359.780 221.536,360.000 221.400 C 360.220 221.264,360.400 220.713,360.400 220.176 C 360.400 219.639,360.580 219.200,360.800 219.200 C 361.020 219.200,361.200 218.761,361.200 218.224 C 361.200 217.687,361.380 217.136,361.600 217.000 C 361.820 216.864,362.000 216.223,362.000 215.576 C 362.000 214.929,362.180 214.400,362.400 214.400 C 362.620 214.400,362.800 213.579,362.800 212.576 C 362.800 211.463,362.956 210.849,363.200 211.000 C 363.447 211.152,363.600 210.471,363.600 209.224 C 363.600 208.111,363.768 207.200,363.973 207.200 C 364.191 207.200,364.362 203.389,364.385 198.000 C 364.411 191.922,364.285 188.800,364.012 188.800 C 363.779 188.800,363.600 187.837,363.600 186.576 C 363.600 185.196,363.448 184.447,363.200 184.600 C 362.959 184.749,362.800 184.212,362.800 183.247 C 362.800 182.367,362.620 181.536,362.400 181.400 C 362.180 181.264,362.000 180.623,362.000 179.976 C 362.000 179.329,361.820 178.800,361.600 178.800 C 361.380 178.800,361.200 178.260,361.200 177.600 C 361.200 176.940,361.020 176.400,360.800 176.400 C 360.580 176.400,360.400 175.860,360.400 175.200 C 360.400 174.540,360.220 174.000,360.000 174.000 C 359.780 174.000,359.600 173.640,359.600 173.200 C 359.600 172.760,359.420 172.400,359.200 172.400 C 358.980 172.400,358.800 172.040,358.800 171.600 C 358.800 171.160,358.620 170.800,358.400 170.800 C 358.180 170.800,358.000 170.528,358.000 170.195 C 358.000 169.503,357.919 169.344,355.359 165.000 C 352.421 160.014,343.109 149.809,339.613 147.744 C 338.946 147.350,338.400 146.886,338.400 146.714 C 338.400 146.541,338.130 146.400,337.800 146.400 C 337.470 146.400,337.200 146.248,337.200 146.063 C 337.200 145.878,336.525 145.383,335.700 144.963 C 334.875 144.543,334.110 144.110,334.000 144.000 C 333.471 143.471,330.416 142.000,329.846 142.000 C 329.490 142.000,329.200 141.820,329.200 141.600 C 329.200 141.380,328.840 141.200,328.400 141.200 C 327.960 141.200,327.600 141.020,327.600 140.800 C 327.600 140.580,327.240 140.400,326.800 140.400 C 326.360 140.400,326.000 140.220,326.000 140.000 C 326.000 139.780,325.651 139.600,325.224 139.600 C 324.507 139.600,324.433 139.220,324.261 134.700 C 324.158 132.005,324.042 129.260,324.003 128.600 C 323.844 125.917,322.112 117.764,321.200 115.400 C 321.030 114.960,320.659 113.790,320.376 112.800 C 320.093 111.810,319.712 110.829,319.530 110.620 C 319.349 110.411,319.200 109.826,319.200 109.320 C 319.200 108.814,319.049 108.400,318.864 108.400 C 318.679 108.400,318.282 107.655,317.982 106.745 C 317.476 105.212,315.310 100.711,313.973 98.415 C 312.637 96.121,313.164 96.215,300.472 96.000 C 287.437 95.779,287.366 95.763,288.225 93.321 L 288.619 92.200 298.709 92.093 L 308.800 91.986 308.800 90.993 C 308.800 90.447,308.620 90.000,308.400 90.000 C 308.180 90.000,308.000 89.749,308.000 89.443 C 308.000 88.693,307.101 88.396,304.005 88.121 C 299.799 87.748,298.311 85.694,301.175 84.213 C 302.840 83.352,302.971 82.934,301.910 81.873 C 300.339 80.303,298.701 80.000,291.769 80.000 C 284.867 80.000,284.000 79.777,284.000 78.000 C 284.000 76.474,285.070 76.000,288.529 75.996 C 294.230 75.988,295.851 75.478,293.700 74.368 C 293.095 74.055,292.123 73.305,291.540 72.700 C 290.956 72.095,290.273 71.600,290.021 71.600 C 289.770 71.600,289.128 71.164,288.595 70.631 C 288.062 70.098,287.260 69.546,286.813 69.404 C 286.366 69.262,286.000 68.978,286.000 68.773 C 286.000 68.568,285.730 68.400,285.400 68.400 C 285.070 68.400,284.800 68.242,284.800 68.049 C 284.800 67.855,284.260 67.473,283.600 67.200 C 282.940 66.927,282.400 66.545,282.400 66.351 C 282.400 66.158,282.166 66.000,281.880 66.000 C 281.144 66.000,279.207 65.059,279.203 64.700 C 279.201 64.535,278.840 64.400,278.400 64.400 C 277.960 64.400,277.600 64.220,277.600 64.000 C 277.600 63.780,277.365 63.600,277.079 63.600 C 276.792 63.600,275.667 63.160,274.579 62.621 C 272.576 61.631,270.200 60.664,270.200 60.839 C 270.200 60.892,269.775 60.708,269.256 60.430 C 267.960 59.736,263.039 58.400,261.781 58.400 C 261.198 58.400,260.860 58.227,261.000 58.000 C 261.151 57.756,260.545 57.600,259.447 57.600 C 258.457 57.600,257.536 57.420,257.400 57.200 C 257.264 56.980,256.263 56.800,255.176 56.800 C 254.089 56.800,253.200 56.620,253.200 56.400 C 253.200 56.165,251.808 56.000,249.824 56.000 C 247.917 56.000,246.335 55.819,246.190 55.584 C 245.870 55.065,234.099 55.116,233.777 55.638 M128.200 71.575 C 127.362 71.770,127.845 71.857,129.800 71.862 C 131.627 71.866,132.253 71.767,131.600 71.574 C 130.376 71.214,129.747 71.214,128.200 71.575 M119.634 76.256 C 118.735 77.277,118.000 78.307,118.000 78.545 C 118.000 78.783,118.297 78.533,118.660 77.989 C 119.024 77.445,119.869 76.415,120.539 75.700 C 121.209 74.985,121.647 74.400,121.512 74.400 C 121.378 74.400,120.533 75.235,119.634 76.256 M117.179 80.255 C 116.958 80.836,116.852 81.385,116.943 81.476 C 117.033 81.567,117.299 81.092,117.533 80.420 C 118.053 78.928,117.739 78.782,117.179 80.255 M158.400 80.382 C 158.730 80.605,159.345 80.791,159.767 80.794 C 160.790 80.802,160.471 80.573,159.000 80.244 C 158.124 80.048,157.962 80.085,158.400 80.382 M149.893 81.814 C 149.072 82.372,148.400 82.915,148.400 83.020 C 148.400 83.125,149.120 82.735,150.000 82.153 C 151.397 81.228,151.870 80.800,151.493 80.800 C 151.434 80.800,150.714 81.256,149.893 81.814 M116.528 84.400 C 116.528 85.830,116.601 86.415,116.689 85.700 C 116.778 84.985,116.778 83.815,116.689 83.100 C 116.601 82.385,116.528 82.970,116.528 84.400 M164.000 83.400 C 164.746 84.170,165.447 84.800,165.557 84.800 C 165.667 84.800,165.146 84.170,164.400 83.400 C 163.654 82.630,162.953 82.000,162.843 82.000 C 162.733 82.000,163.254 82.630,164.000 83.400 M295.226 84.414 C 295.721 84.679,296.000 85.251,296.000 86.000 C 296.000 87.991,295.903 88.000,273.855 88.000 C 251.720 88.000,252.000 88.026,252.000 86.000 C 252.000 83.974,251.720 84.000,273.855 84.000 C 287.288 84.000,294.722 84.144,295.226 84.414 M166.806 87.833 C 166.809 88.255,166.995 88.870,167.218 89.200 C 167.515 89.638,167.552 89.476,167.356 88.600 C 167.027 87.129,166.798 86.810,166.806 87.833 M102.521 90.506 C 101.221 91.880,100.217 93.550,100.514 93.847 C 100.612 93.945,100.920 93.476,101.198 92.805 C 101.476 92.133,102.243 91.130,102.902 90.575 C 103.561 90.021,104.021 89.487,103.923 89.390 C 103.825 89.292,103.194 89.794,102.521 90.506 M167.709 92.400 C 167.709 93.390,167.787 93.795,167.882 93.300 C 167.978 92.805,167.978 91.995,167.882 91.500 C 167.787 91.005,167.709 91.410,167.709 92.400 M271.520 92.480 C 273.700 94.660,271.552 95.972,265.780 95.987 C 260.592 96.001,260.000 95.797,260.000 94.000 C 260.000 92.194,260.582 92.000,266.000 92.000 C 269.387 92.000,271.197 92.157,271.520 92.480 M283.673 93.000 C 284.667 95.183,283.667 96.000,280.000 96.000 C 276.957 96.000,276.758 95.946,276.327 95.000 C 275.333 92.817,276.333 92.000,280.000 92.000 C 283.043 92.000,283.242 92.054,283.673 93.000 M162.287 96.769 C 161.362 97.632,160.694 98.409,160.802 98.496 C 160.911 98.583,161.761 97.877,162.691 96.927 C 164.802 94.770,164.540 94.668,162.287 96.769 M172.800 97.379 C 172.800 97.489,173.340 97.859,174.000 98.200 C 174.660 98.541,175.200 98.731,175.200 98.621 C 175.200 98.511,174.660 98.141,174.000 97.800 C 173.340 97.459,172.800 97.269,172.800 97.379 M87.178 99.900 L 85.800 101.400 87.300 100.022 C 88.696 98.738,88.984 98.400,88.678 98.400 C 88.612 98.400,87.937 99.075,87.178 99.900 M295.520 100.480 C 295.784 100.744,296.000 101.428,296.000 102.000 C 296.000 103.810,295.423 104.000,289.911 104.000 C 284.160 104.000,283.196 103.482,284.327 101.000 C 284.849 99.854,294.448 99.408,295.520 100.480 M162.454 101.624 C 162.394 102.764,161.710 103.797,160.800 104.122 C 160.323 104.293,160.341 104.343,160.891 104.368 C 161.812 104.411,162.906 102.677,162.685 101.523 C 162.518 100.646,162.506 100.651,162.454 101.624 M83.693 108.000 C 83.693 108.770,83.775 109.085,83.876 108.700 C 83.976 108.315,83.976 107.685,83.876 107.300 C 83.775 106.915,83.693 107.230,83.693 108.000 M84.432 111.520 C 84.396 112.098,85.507 114.400,85.821 114.400 C 85.931 114.400,85.771 113.905,85.465 113.300 C 85.160 112.695,84.809 111.930,84.686 111.600 C 84.536 111.197,84.453 111.171,84.432 111.520 M87.200 116.147 C 87.970 116.982,88.960 117.855,89.400 118.087 C 89.840 118.319,90.110 118.425,90.000 118.322 C 87.442 115.943,85.928 114.767,87.200 116.147 M172.575 118.100 L 171.400 119.400 172.700 118.225 C 173.912 117.130,174.184 116.800,173.875 116.800 C 173.806 116.800,173.221 117.385,172.575 118.100 M96.800 119.484 C 108.149 119.759,126.283 119.773,125.863 119.506 C 125.608 119.344,117.930 119.248,108.800 119.292 C 99.670 119.336,94.270 119.422,96.800 119.484 M141.462 119.500 C 141.360 119.665,142.502 119.800,144.000 119.800 C 145.498 119.800,146.516 119.668,146.262 119.506 C 145.654 119.119,141.700 119.114,141.462 119.500 M153.736 119.506 C 153.481 119.668,156.271 119.752,159.936 119.694 C 170.582 119.526,171.671 119.357,162.600 119.282 C 157.980 119.244,153.991 119.344,153.736 119.506 M83.626 186.014 C 86.123 187.350,84.099 189.600,80.400 189.600 C 77.331 189.600,76.400 189.136,76.400 187.606 C 76.400 185.765,81.190 184.710,83.626 186.014 M83.920 194.080 C 84.184 194.344,84.400 195.028,84.400 195.600 C 84.400 197.568,84.205 197.600,72.311 197.600 L 61.183 197.600 60.727 196.600 C 60.386 195.852,60.386 195.348,60.727 194.600 L 61.183 193.600 72.311 193.600 C 80.434 193.600,83.570 193.730,83.920 194.080 M83.920 202.080 C 84.184 202.344,84.400 203.028,84.400 203.600 C 84.400 205.255,83.710 205.600,80.400 205.600 C 77.090 205.600,76.400 205.255,76.400 203.600 C 76.400 203.028,76.616 202.344,76.880 202.080 C 77.521 201.439,83.279 201.439,83.920 202.080 M59.743 208.879 C 60.032 209.339,60.042 209.920,59.776 210.679 C 58.971 212.974,52.000 212.366,52.000 210.000 C 52.000 207.985,58.582 207.032,59.743 208.879 M99.910 211.500 L 98.546 213.400 82.106 213.504 C 64.445 213.617,64.400 213.612,64.400 211.600 C 64.400 209.595,64.357 209.600,83.466 209.600 L 101.275 209.600 99.910 211.500 M71.226 216.414 C 71.721 216.679,72.000 217.251,72.000 218.000 C 72.000 219.691,71.073 220.000,66.000 220.000 C 63.551 220.000,61.199 219.814,60.774 219.586 C 59.778 219.053,59.730 216.997,60.700 216.432 C 61.620 215.896,70.231 215.881,71.226 216.414 M296.000 223.987 C 294.963 224.202,295.466 224.287,297.942 224.314 C 299.780 224.334,301.220 224.295,301.142 224.227 C 300.762 223.895,297.237 223.731,296.000 223.987 M310.000 229.000 C 310.746 229.770,311.447 230.400,311.557 230.400 C 311.667 230.400,311.146 229.770,310.400 229.000 C 309.654 228.230,308.953 227.600,308.843 227.600 C 308.733 227.600,309.254 228.230,310.000 229.000 M282.716 232.500 C 282.078 233.496,281.543 234.800,281.772 234.800 C 281.853 234.800,282.295 234.080,282.753 233.200 C 283.660 231.460,283.639 231.058,282.716 232.500 M327.600 236.395 C 327.191 236.655,327.510 236.699,328.600 236.532 C 330.577 236.229,330.914 235.998,329.367 236.006 C 328.725 236.009,327.930 236.184,327.600 236.395 M333.633 236.143 C 333.725 236.221,334.430 236.401,335.200 236.542 C 336.185 236.723,336.422 236.682,336.000 236.406 C 335.458 236.050,333.237 235.803,333.633 236.143 M315.082 238.821 C 315.208 239.799,315.375 240.675,315.455 240.767 C 315.781 241.142,315.560 238.155,315.221 237.621 C 314.984 237.246,314.935 237.670,315.082 238.821 M323.700 238.088 C 323.205 238.327,322.800 238.679,322.800 238.870 C 322.800 239.062,323.250 238.924,323.800 238.563 C 325.267 237.602,325.216 237.357,323.700 238.088 M280.540 241.200 C 280.540 243.070,280.609 243.835,280.693 242.900 C 280.777 241.965,280.777 240.435,280.693 239.500 C 280.609 238.565,280.540 239.330,280.540 241.200 M316.800 242.557 C 316.800 242.946,317.927 243.092,318.436 242.769 C 318.847 242.509,318.701 242.411,317.900 242.406 C 317.295 242.403,316.800 242.471,316.800 242.557 M266.691 244.689 C 267.401 244.777,268.661 244.779,269.491 244.692 C 270.321 244.605,269.740 244.533,268.200 244.531 C 266.660 244.529,265.981 244.600,266.691 244.689 M280.888 246.424 C 280.908 247.105,281.052 247.440,281.213 247.180 C 281.473 246.758,281.290 245.200,280.980 245.200 C 280.910 245.200,280.869 245.751,280.888 246.424 M259.381 248.100 L 257.800 249.800 259.500 248.219 C 261.081 246.748,261.384 246.400,261.081 246.400 C 261.016 246.400,260.251 247.165,259.381 248.100 M276.347 248.200 C 278.146 249.825,279.174 249.957,280.238 248.700 C 280.999 247.801,280.999 247.801,280.169 248.500 C 278.966 249.513,277.907 249.364,276.600 248.000 C 275.968 247.340,275.303 246.800,275.124 246.800 C 274.945 246.800,275.495 247.430,276.347 248.200 M347.068 248.600 C 347.371 250.577,347.602 250.914,347.594 249.367 C 347.591 248.725,347.416 247.930,347.205 247.600 C 346.945 247.191,346.901 247.510,347.068 248.600 M296.046 249.267 C 296.021 249.853,295.775 250.424,295.500 250.535 C 295.108 250.693,295.111 250.744,295.513 250.768 C 296.147 250.808,296.530 249.887,296.280 248.923 C 296.154 248.436,296.078 248.548,296.046 249.267 M284.743 250.100 C 283.979 250.815,283.724 251.113,284.177 250.762 C 284.630 250.412,285.445 249.827,285.989 249.462 C 286.533 249.098,286.788 248.800,286.556 248.800 C 286.323 248.800,285.508 249.385,284.743 250.100 M285.476 252.900 C 284.230 254.133,284.225 254.149,285.381 253.203 C 286.052 252.655,286.771 252.070,286.980 251.903 C 287.189 251.736,287.231 251.600,287.074 251.600 C 286.917 251.600,286.198 252.185,285.476 252.900 M344.204 253.994 C 344.052 254.240,344.455 254.294,345.280 254.137 C 347.049 253.800,347.201 253.600,345.690 253.600 C 345.007 253.600,344.338 253.777,344.204 253.994 M255.200 255.600 C 254.650 256.030,254.397 256.386,254.638 256.391 C 254.879 256.396,255.402 256.040,255.800 255.600 C 256.712 254.592,256.488 254.592,255.200 255.600 M274.600 255.600 C 273.997 255.859,274.242 255.944,275.600 255.944 C 276.958 255.944,277.203 255.859,276.600 255.600 C 276.160 255.411,275.710 255.256,275.600 255.256 C 275.490 255.256,275.040 255.411,274.600 255.600 M282.629 257.029 C 282.481 257.615,282.438 258.172,282.532 258.266 C 282.627 258.360,282.824 257.958,282.971 257.371 C 283.119 256.785,283.162 256.228,283.068 256.134 C 282.973 256.040,282.776 256.442,282.629 257.029 M339.199 256.900 C 338.649 257.395,337.938 258.160,337.618 258.600 C 337.299 259.040,337.794 258.688,338.719 257.819 C 340.255 256.374,340.581 255.999,340.300 256.000 C 340.245 256.001,339.750 256.406,339.199 256.900 M240.581 261.300 L 239.000 263.000 240.700 261.419 C 242.281 259.948,242.584 259.600,242.281 259.600 C 242.216 259.600,241.451 260.365,240.581 261.300 M358.400 259.767 C 358.400 260.188,359.605 261.328,359.821 261.112 C 359.922 261.011,359.644 260.602,359.202 260.202 C 358.761 259.803,358.400 259.607,358.400 259.767 M268.610 261.980 C 268.275 262.629,268.018 263.574,268.041 264.080 C 268.074 264.832,268.135 264.781,268.371 263.800 C 268.531 263.140,268.879 262.195,269.145 261.700 C 269.411 261.205,269.536 260.800,269.424 260.800 C 269.312 260.800,268.946 261.331,268.610 261.980 M335.756 261.771 C 335.091 263.504,336.863 265.297,338.059 264.101 C 338.281 263.879,337.927 263.808,337.163 263.920 C 335.920 264.103,335.903 264.082,336.070 262.653 C 336.247 261.135,336.128 260.801,335.756 261.771 M265.913 262.689 C 265.719 263.432,265.348 263.579,263.343 263.703 L 261.000 263.849 263.251 263.924 C 265.547 264.002,266.671 263.413,266.308 262.324 C 266.215 262.045,266.039 262.208,265.913 262.689 M256.501 265.973 C 254.931 267.110,252.800 269.543,252.800 270.198 C 252.800 270.375,253.339 269.776,253.997 268.868 C 254.655 267.959,255.915 266.738,256.797 266.155 C 258.237 265.202,258.671 264.800,258.260 264.800 C 258.183 264.800,257.392 265.328,256.501 265.973 M267.400 266.000 C 267.264 266.220,265.714 266.400,263.957 266.400 C 261.105 266.400,258.400 267.092,258.400 267.821 C 258.400 267.931,258.931 267.746,259.580 267.410 C 260.347 267.014,261.871 266.800,263.931 266.800 C 266.262 266.800,267.234 266.641,267.600 266.200 C 267.874 265.870,267.997 265.600,267.873 265.600 C 267.749 265.600,267.536 265.780,267.400 266.000 M256.575 269.300 L 255.400 270.600 256.700 269.425 C 257.415 268.779,258.000 268.194,258.000 268.125 C 258.000 267.816,257.670 268.088,256.575 269.300 M363.367 271.373 C 363.380 273.993,363.442 274.295,363.722 273.110 C 363.913 272.306,363.905 270.911,363.706 269.937 C 363.385 268.368,363.352 268.507,363.367 271.373 M236.040 271.833 C 236.062 272.475,236.233 273.450,236.420 274.000 C 236.649 274.674,236.684 274.349,236.528 273.000 C 236.269 270.750,235.979 270.059,236.040 271.833 M358.800 282.513 C 357.810 283.444,356.550 284.528,356.000 284.921 C 355.036 285.609,355.047 285.609,356.303 284.929 C 357.439 284.315,361.277 280.784,360.783 280.809 C 360.682 280.814,359.790 281.581,358.800 282.513 M241.344 283.509 C 241.660 284.021,244.000 285.753,244.000 285.475 C 244.000 285.376,243.339 284.791,242.532 284.175 C 241.724 283.559,241.189 283.259,241.344 283.509 M350.800 286.818 C 350.362 287.115,350.524 287.152,351.400 286.956 C 352.871 286.627,353.190 286.398,352.167 286.406 C 351.745 286.409,351.130 286.595,350.800 286.818 M251.000 287.615 C 254.714 288.076,315.114 288.062,314.400 287.600 C 314.023 287.357,301.661 287.232,281.200 287.265 C 263.270 287.294,249.680 287.452,251.000 287.615 " stroke="none" fill="#c4ebe3" fill-rule="evenodd"></path><path id="path2" d="M126.400 71.600 C 125.056 72.031,126.508 72.031,128.200 71.600 C 129.278 71.326,129.298 71.294,128.400 71.287 C 127.850 71.283,126.950 71.424,126.400 71.600 M131.600 71.600 C 132.150 71.776,132.960 71.926,133.400 71.932 L 134.200 71.944 133.400 71.600 C 132.960 71.411,132.150 71.262,131.600 71.268 L 130.600 71.280 131.600 71.600 M123.665 72.676 C 122.930 73.038,121.490 74.132,120.465 75.107 L 118.600 76.879 120.510 75.281 C 121.560 74.401,123.045 73.385,123.810 73.022 C 124.574 72.659,125.200 72.281,125.200 72.181 C 125.200 71.927,125.157 71.941,123.665 72.676 M136.600 73.065 C 136.820 73.274,137.661 73.928,138.470 74.519 C 139.278 75.110,140.523 76.496,141.237 77.597 C 142.698 79.852,143.137 80.212,142.188 78.376 C 141.295 76.650,139.112 74.334,137.537 73.443 C 136.802 73.027,136.380 72.857,136.600 73.065 M152.940 79.906 C 152.687 80.068,154.155 80.200,156.202 80.200 C 158.250 80.200,159.717 80.068,159.462 79.906 C 159.208 79.744,157.740 79.612,156.200 79.612 C 154.660 79.612,153.193 79.744,152.940 79.906 M142.828 80.676 C 142.813 81.158,142.980 81.664,143.200 81.800 C 143.673 82.092,143.673 81.701,143.200 80.600 C 142.869 79.829,142.855 79.831,142.828 80.676 M148.975 81.914 C 146.578 84.122,145.597 84.397,144.400 83.200 C 143.960 82.760,143.600 82.552,143.600 82.738 C 143.600 84.516,146.057 84.728,148.142 83.129 C 150.478 81.337,150.622 81.200,150.155 81.200 C 149.933 81.200,149.402 81.521,148.975 81.914 M163.084 82.221 C 163.790 82.777,164.823 83.810,165.379 84.516 C 165.936 85.222,166.393 85.608,166.396 85.374 C 166.401 84.818,162.782 81.199,162.226 81.204 C 161.992 81.207,162.378 81.664,163.084 82.221 M116.074 84.050 C 116.033 84.848,115.898 86.108,115.773 86.850 C 115.589 87.947,115.631 88.068,115.994 87.498 C 116.240 87.112,116.376 85.852,116.295 84.698 C 116.191 83.221,116.126 83.029,116.074 84.050 M167.438 89.000 C 167.770 90.984,168.002 91.304,167.994 89.767 C 167.991 89.125,167.804 88.330,167.579 88.000 C 167.286 87.570,167.246 87.854,167.438 89.000 M106.900 88.287 C 107.505 88.378,108.495 88.378,109.100 88.287 C 109.705 88.195,109.210 88.120,108.000 88.120 C 106.790 88.120,106.295 88.195,106.900 88.287 M111.437 88.845 C 112.449 89.241,115.105 89.279,115.335 88.900 C 115.435 88.735,114.428 88.588,113.096 88.573 C 111.638 88.556,110.978 88.664,111.437 88.845 M102.126 90.500 C 100.779 91.924,99.991 93.257,100.016 94.074 C 100.024 94.363,100.304 93.970,100.637 93.200 C 100.970 92.430,101.808 91.215,102.500 90.500 C 103.191 89.785,103.667 89.200,103.557 89.200 C 103.447 89.200,102.803 89.785,102.126 90.500 M172.060 90.910 C 172.008 92.218,172.147 92.473,173.100 92.821 C 177.268 94.339,180.506 97.355,182.452 101.532 C 184.061 104.986,183.759 104.974,186.200 101.690 C 190.867 95.412,193.596 93.258,198.269 92.162 C 204.850 90.619,211.336 93.871,214.473 100.286 L 215.800 103.000 215.919 135.900 L 216.039 168.800 263.919 168.814 C 315.281 168.830,314.078 168.784,318.226 170.856 C 327.700 175.587,331.029 188.431,325.056 197.200 C 324.382 198.190,321.877 201.430,319.490 204.400 C 317.104 207.370,314.934 210.070,314.670 210.400 C 314.405 210.730,313.561 211.810,312.794 212.800 C 312.028 213.790,311.296 214.690,311.170 214.800 C 310.786 215.134,306.000 221.242,306.000 221.398 C 306.000 221.478,306.797 221.942,307.771 222.428 C 312.566 224.823,318.800 232.198,318.800 235.475 C 318.800 236.279,319.496 236.109,321.328 234.859 C 328.748 229.795,339.399 230.972,346.014 237.586 C 349.587 241.160,350.864 243.890,351.884 250.136 C 352.191 252.014,352.259 252.092,354.200 252.780 C 372.350 259.209,372.452 284.048,354.355 290.460 C 351.979 291.302,350.905 291.383,339.000 291.624 L 326.200 291.884 339.639 291.842 C 348.262 291.815,353.278 291.651,353.639 291.383 C 353.947 291.154,354.920 290.724,355.800 290.427 C 372.809 284.685,371.949 257.479,354.596 252.356 C 353.315 251.977,352.726 251.575,352.626 251.008 C 349.642 234.128,335.741 226.322,322.052 233.839 C 320.651 234.608,319.474 235.184,319.438 235.119 C 319.401 235.053,318.698 233.650,317.875 232.000 C 315.778 227.795,309.419 221.600,307.199 221.600 C 306.727 221.600,307.737 219.646,308.817 218.471 C 309.156 218.102,311.584 215.100,314.213 211.800 C 316.842 208.500,319.085 205.710,319.198 205.600 C 319.312 205.490,319.878 204.770,320.457 204.000 C 321.036 203.230,321.845 202.210,322.255 201.734 C 323.617 200.150,324.204 199.411,325.059 198.200 C 326.480 196.188,327.600 194.014,327.600 193.268 C 327.600 192.879,327.812 192.348,328.072 192.088 C 328.643 191.517,328.701 183.075,328.140 182.309 C 327.935 182.029,327.524 181.080,327.227 180.200 C 325.609 175.406,320.905 170.973,315.582 169.225 C 313.098 168.410,312.484 168.400,264.745 168.400 L 216.422 168.400 216.307 135.500 C 216.181 99.622,216.325 101.799,213.836 98.000 C 212.027 95.237,207.585 92.000,205.604 92.000 C 205.188 92.000,204.736 91.820,204.600 91.600 C 204.261 91.052,199.382 91.095,197.628 91.661 C 193.193 93.094,191.300 94.537,187.183 99.621 L 183.881 103.698 183.203 101.912 C 181.864 98.385,177.583 93.647,175.700 93.610 C 175.425 93.604,175.200 93.420,175.200 93.200 C 175.200 92.980,174.885 92.794,174.500 92.787 C 173.389 92.767,172.483 91.861,172.294 90.581 C 172.140 89.537,172.113 89.575,172.060 90.910 M166.250 94.588 C 165.397 94.892,164.497 95.354,164.250 95.616 C 164.002 95.877,164.376 95.801,165.080 95.446 C 165.784 95.091,166.629 94.800,166.957 94.800 C 167.284 94.800,167.664 94.620,167.800 94.400 C 168.100 93.915,168.157 93.908,166.250 94.588 M92.058 96.356 C 91.741 96.556,92.739 96.624,94.458 96.518 C 98.413 96.274,98.815 96.069,95.400 96.038 C 93.860 96.024,92.356 96.167,92.058 96.356 M165.600 96.856 C 163.961 97.855,162.401 99.563,162.400 100.359 C 162.400 100.667,162.809 100.311,163.310 99.569 C 166.947 94.172,174.896 95.957,178.591 103.000 C 179.169 104.100,179.521 104.550,179.375 104.000 C 177.871 98.348,169.919 94.224,165.600 96.856 M89.400 97.543 C 87.248 98.871,84.403 102.206,84.403 103.400 C 84.403 103.620,84.781 103.170,85.243 102.400 C 86.459 100.375,87.565 99.239,89.578 97.944 C 91.515 96.698,91.355 96.337,89.400 97.543 M160.610 99.580 C 160.275 100.229,160.025 101.534,160.056 102.480 L 160.113 104.200 160.372 102.200 C 160.514 101.100,160.855 99.795,161.129 99.300 C 161.404 98.805,161.536 98.400,161.424 98.400 C 161.312 98.400,160.946 98.931,160.610 99.580 M199.400 99.920 C 197.175 100.698,195.146 103.028,182.200 119.673 C 174.500 129.573,167.891 138.062,167.513 138.536 C 165.957 140.494,154.162 155.607,152.167 158.200 C 150.982 159.740,148.795 162.562,147.306 164.472 C 144.697 167.819,115.889 204.738,109.458 212.976 C 103.265 220.909,103.110 227.026,109.000 231.034 C 111.693 232.867,110.782 232.838,161.000 232.716 L 208.600 232.600 208.704 213.958 C 208.819 193.340,208.796 193.511,211.336 194.148 C 212.775 194.509,212.789 194.701,212.795 214.484 L 212.800 232.768 213.900 233.787 L 215.000 234.807 215.200 270.104 C 215.395 304.567,215.419 305.432,216.205 306.770 C 217.804 309.492,222.079 310.759,224.994 309.376 C 226.302 308.755,227.163 307.746,236.656 295.701 L 241.512 289.539 238.420 286.470 C 226.130 274.269,232.331 254.939,249.400 252.242 C 252.011 251.830,252.246 251.708,252.880 250.437 C 256.905 242.375,264.712 238.449,272.413 240.615 C 275.798 241.567,275.721 241.589,276.084 239.600 C 277.986 229.164,284.913 221.892,294.395 220.374 C 296.648 220.013,296.895 219.832,299.282 216.782 C 299.878 216.022,304.440 210.270,309.421 204.000 C 320.222 190.403,319.787 191.117,319.794 186.969 C 319.804 181.629,316.438 177.590,311.497 177.011 C 310.344 176.876,287.710 176.818,261.200 176.883 L 213.000 177.000 212.800 182.515 C 212.593 188.215,212.410 188.778,210.762 188.794 C 209.129 188.810,208.801 187.608,208.786 181.569 C 208.775 177.323,208.621 175.536,208.200 174.800 C 207.717 173.955,207.626 168.471,207.614 139.426 C 207.600 105.929,207.580 105.011,206.803 103.426 C 205.501 100.767,201.881 99.053,199.400 99.920 M162.046 101.871 C 162.021 102.351,161.717 103.026,161.371 103.371 C 161.026 103.717,160.929 104.000,161.157 104.000 C 161.752 104.000,162.482 102.479,162.272 101.679 C 162.139 101.177,162.081 101.227,162.046 101.871 M83.849 104.615 C 83.712 104.973,83.616 105.656,83.636 106.133 C 83.662 106.747,83.785 106.608,84.059 105.656 C 84.457 104.272,84.294 103.458,83.849 104.615 M179.720 107.600 C 179.720 108.810,179.795 109.305,179.887 108.700 C 179.978 108.095,179.978 107.105,179.887 106.500 C 179.795 105.895,179.720 106.390,179.720 107.600 M83.646 110.000 C 83.627 110.550,83.787 111.270,84.000 111.600 C 84.494 112.364,84.494 111.542,84.000 110.000 L 83.680 109.000 83.646 110.000 M175.877 114.416 C 173.957 116.844,171.983 118.993,171.493 119.190 C 170.843 119.451,170.784 119.556,171.275 119.575 C 172.084 119.605,173.111 118.541,176.805 113.850 C 179.406 110.547,179.786 110.000,179.485 110.000 C 179.421 110.000,177.798 111.987,175.877 114.416 M85.212 114.233 C 85.225 114.655,87.067 116.716,88.219 117.598 C 88.649 117.926,88.204 117.296,87.232 116.198 C 86.259 115.099,85.404 114.125,85.332 114.033 C 85.259 113.942,85.205 114.032,85.212 114.233 M89.200 118.219 C 89.200 118.513,91.649 119.650,92.009 119.524 C 92.204 119.456,91.651 119.098,90.782 118.730 C 89.912 118.361,89.200 118.131,89.200 118.219 M109.600 119.987 C 127.484 120.216,127.200 120.180,127.200 122.224 C 127.200 123.953,128.382 123.725,118.000 123.996 L 109.000 124.230 117.851 124.315 C 127.640 124.409,127.763 124.379,127.527 121.935 C 127.304 119.623,127.144 119.603,109.200 119.693 L 93.000 119.775 109.600 119.987 M141.326 120.003 C 139.819 120.610,139.390 121.927,140.300 123.150 C 141.505 124.768,146.326 124.928,147.536 123.391 C 149.545 120.836,145.175 118.452,141.326 120.003 M153.242 120.106 C 151.801 120.849,151.484 122.145,152.444 123.366 C 153.242 124.379,153.265 124.382,160.465 124.491 L 167.686 124.600 164.543 128.644 C 162.814 130.869,160.950 133.282,160.400 134.008 C 159.850 134.733,159.220 135.523,159.000 135.763 C 158.780 136.004,157.790 137.276,156.800 138.591 C 155.810 139.906,154.700 141.346,154.334 141.791 C 153.967 142.236,151.487 145.390,148.822 148.800 C 146.157 152.210,143.755 155.270,143.483 155.600 C 143.211 155.930,142.550 156.830,142.014 157.600 C 141.477 158.370,140.937 159.090,140.813 159.200 C 140.524 159.456,138.857 161.517,137.716 163.029 C 136.055 165.230,130.331 172.599,129.659 173.400 C 129.290 173.840,128.550 174.830,128.013 175.600 C 127.477 176.370,126.751 177.270,126.400 177.600 C 126.049 177.930,125.327 178.830,124.794 179.600 C 124.262 180.370,123.640 181.196,123.413 181.437 C 123.186 181.677,122.550 182.470,122.000 183.200 C 121.450 183.930,120.190 185.556,119.200 186.814 C 118.210 188.072,116.320 190.500,115.000 192.209 C 113.680 193.918,112.420 195.515,112.200 195.758 C 111.980 196.001,110.990 197.276,110.000 198.591 C 108.082 201.138,107.244 202.212,106.600 202.945 C 106.380 203.195,105.390 204.480,104.401 205.800 C 103.412 207.120,102.510 208.290,102.397 208.400 C 101.966 208.822,99.998 212.000,100.168 212.000 C 100.267 212.000,101.676 210.245,103.299 208.100 C 105.934 204.616,117.660 189.521,118.912 188.000 C 119.184 187.670,123.184 182.540,127.802 176.600 C 132.420 170.660,136.419 165.530,136.690 165.200 C 136.960 164.870,139.916 161.090,143.259 156.800 C 146.602 152.510,150.390 147.650,151.678 146.000 C 152.965 144.350,154.992 141.740,156.182 140.200 C 157.373 138.660,160.591 134.520,163.333 131.000 C 166.075 127.480,168.236 124.465,168.136 124.300 C 168.035 124.135,164.802 124.000,160.950 124.000 C 153.257 124.000,152.400 123.800,152.400 122.010 C 152.400 120.279,152.686 120.218,162.000 119.978 L 170.600 119.757 162.400 119.684 C 156.550 119.633,153.925 119.753,153.242 120.106 M132.480 120.480 C 132.216 120.744,132.005 121.149,132.012 121.380 C 132.019 121.611,132.208 121.485,132.432 121.100 C 132.672 120.688,133.317 120.400,134.000 120.400 C 134.683 120.400,135.328 120.688,135.568 121.100 C 135.792 121.485,135.981 121.611,135.988 121.380 C 136.009 120.648,135.076 120.000,134.000 120.000 C 133.428 120.000,132.744 120.216,132.480 120.480 M147.190 120.594 C 147.915 121.042,147.660 123.139,146.826 123.586 C 143.895 125.154,138.881 123.192,140.500 121.110 C 141.305 120.075,145.790 119.729,147.190 120.594 M132.000 122.738 C 132.000 124.113,134.344 124.766,135.338 123.669 C 136.277 122.630,136.162 122.238,135.200 123.200 C 134.760 123.640,134.220 124.000,134.000 124.000 C 133.780 124.000,133.240 123.640,132.800 123.200 C 132.360 122.760,132.000 122.552,132.000 122.738 M324.501 136.200 C 324.505 137.080,324.587 137.393,324.683 136.895 C 324.779 136.398,324.775 135.678,324.675 135.295 C 324.575 134.913,324.496 135.320,324.501 136.200 M98.680 213.700 C 97.593 215.169,97.356 215.732,96.563 218.720 C 94.769 225.477,97.915 233.526,103.903 237.498 C 107.515 239.894,109.844 240.817,112.119 240.753 L 113.800 240.706 111.649 240.349 C 99.324 238.302,92.543 223.541,99.313 213.500 C 100.350 211.962,99.847 212.121,98.680 213.700 M293.800 224.000 C 292.137 224.423,293.774 224.442,295.800 224.023 C 297.145 223.745,297.209 223.692,296.200 223.693 C 295.540 223.694,294.460 223.832,293.800 224.000 M301.031 224.126 C 305.869 225.146,310.003 227.865,312.403 231.605 C 313.118 232.719,313.787 233.546,313.890 233.443 C 313.993 233.340,313.525 232.453,312.849 231.471 C 310.113 227.495,305.000 224.254,300.799 223.834 L 298.600 223.614 301.031 224.126 M288.719 226.017 C 286.838 227.011,283.387 230.447,282.592 232.118 C 281.987 233.389,281.988 233.392,282.687 232.400 C 284.189 230.271,287.463 227.082,288.897 226.350 C 289.724 225.929,290.400 225.497,290.400 225.392 C 290.400 225.130,290.396 225.132,288.719 226.017 M280.649 236.215 C 280.512 236.573,280.415 237.166,280.434 237.533 C 280.453 237.900,280.627 237.669,280.821 237.020 C 281.198 235.758,281.065 235.133,280.649 236.215 M330.500 235.891 C 331.325 235.978,332.675 235.978,333.500 235.891 C 334.325 235.805,333.650 235.734,332.000 235.734 C 330.350 235.734,329.675 235.805,330.500 235.891 M314.812 236.400 C 314.812 236.730,314.987 237.270,315.200 237.600 C 315.545 238.133,315.588 238.133,315.588 237.600 C 315.588 237.270,315.413 236.730,315.200 236.400 C 314.855 235.867,314.812 235.867,314.812 236.400 M336.000 236.400 C 336.330 236.613,336.870 236.788,337.200 236.788 C 337.733 236.788,337.733 236.745,337.200 236.400 C 336.870 236.187,336.330 236.012,336.000 236.012 C 335.467 236.012,335.467 236.055,336.000 236.400 M324.300 237.429 C 322.749 238.270,322.925 238.561,324.500 237.759 C 326.008 236.993,326.275 236.794,325.767 236.816 C 325.565 236.825,324.905 237.101,324.300 237.429 M339.145 237.623 C 339.885 238.074,340.577 238.357,340.682 238.251 C 340.884 238.050,338.673 236.799,338.120 236.801 C 337.944 236.802,338.405 237.172,339.145 237.623 M320.812 240.188 C 319.531 241.493,318.695 242.000,317.637 242.112 L 316.200 242.266 317.600 242.323 C 318.873 242.376,323.269 239.136,322.698 238.565 C 322.617 238.483,321.768 239.214,320.812 240.188 M341.200 238.462 C 341.200 238.785,344.889 242.445,345.050 242.283 C 345.123 242.211,344.286 241.269,343.191 240.191 C 342.096 239.112,341.200 238.335,341.200 238.462 M280.131 241.400 C 280.133 242.940,280.205 243.521,280.292 242.691 C 280.379 241.861,280.377 240.601,280.289 239.891 C 280.200 239.181,280.129 239.860,280.131 241.400 M315.600 239.910 C 315.600 240.593,315.777 241.262,315.994 241.396 C 316.240 241.548,316.294 241.145,316.137 240.320 C 315.800 238.551,315.600 238.399,315.600 239.910 M160.000 241.197 L 206.200 241.400 206.400 274.480 C 206.555 300.193,206.711 307.672,207.100 308.060 C 207.375 308.335,207.600 308.807,207.600 309.108 C 207.600 310.785,211.506 315.070,214.400 316.569 C 221.892 320.447,229.216 318.353,235.104 310.648 C 236.133 309.302,237.208 307.959,237.494 307.665 C 237.779 307.371,238.504 306.471,239.106 305.665 C 239.708 304.859,240.402 303.985,240.648 303.723 C 240.895 303.461,243.041 300.806,245.418 297.823 L 249.740 292.400 282.241 292.400 L 314.742 292.400 315.532 291.395 C 316.339 290.370,316.302 289.148,315.442 288.435 C 314.962 288.037,249.069 287.603,249.466 288.000 C 249.576 288.110,264.456 288.290,282.533 288.400 L 315.400 288.600 315.534 289.780 C 315.797 292.087,317.111 292.000,281.870 292.000 L 249.494 292.000 248.702 292.900 C 248.266 293.395,247.436 294.430,246.857 295.200 C 246.278 295.970,245.700 296.690,245.571 296.800 C 245.443 296.910,242.486 300.600,238.999 305.000 C 235.513 309.400,232.065 313.550,231.337 314.222 C 223.073 321.854,209.017 316.907,207.185 305.721 C 206.968 304.396,206.804 289.969,206.802 272.100 L 206.800 240.800 160.300 240.897 L 113.800 240.995 160.000 241.197 M345.200 242.990 C 345.200 243.095,345.559 243.770,345.999 244.490 C 346.938 246.031,347.069 245.681,346.190 243.980 C 345.641 242.919,345.200 242.478,345.200 242.990 M264.800 244.288 C 264.250 244.387,263.620 244.659,263.400 244.893 C 263.126 245.183,263.160 245.227,263.505 245.032 C 263.783 244.875,265.493 244.603,267.305 244.428 C 270.304 244.138,270.385 244.109,268.200 244.109 C 266.880 244.109,265.350 244.190,264.800 244.288 M272.328 245.146 C 273.279 245.532,274.932 246.602,276.003 247.524 C 277.073 248.446,278.056 249.200,278.188 249.200 C 278.319 249.200,277.514 248.390,276.400 247.400 C 274.504 245.716,272.087 244.371,271.051 244.422 C 270.803 244.435,271.378 244.760,272.328 245.146 M280.400 246.002 C 280.400 247.050,280.129 248.066,279.715 248.569 C 279.101 249.314,279.128 249.309,279.981 248.523 C 280.682 247.876,280.917 247.258,280.876 246.167 C 280.797 244.059,280.400 243.922,280.400 246.002 M260.032 247.047 C 258.902 248.063,257.784 249.278,257.547 249.747 C 257.311 250.216,257.706 249.904,258.426 249.054 C 259.145 248.203,260.451 246.988,261.327 246.354 C 262.203 245.719,262.732 245.200,262.503 245.200 C 262.274 245.200,261.162 246.031,260.032 247.047 M346.812 246.400 C 346.812 246.730,346.987 247.270,347.200 247.600 C 347.545 248.133,347.588 248.133,347.588 247.600 C 347.588 247.270,347.413 246.730,347.200 246.400 C 346.855 245.867,346.812 245.867,346.812 246.400 M290.000 247.981 C 289.346 248.178,290.037 248.282,292.000 248.283 C 293.863 248.284,294.697 248.165,294.200 247.970 C 293.204 247.579,291.318 247.584,290.000 247.981 M286.700 249.029 C 286.095 249.357,285.600 249.714,285.600 249.823 C 285.600 249.932,286.095 249.771,286.700 249.465 C 287.305 249.160,288.070 248.809,288.400 248.686 C 288.933 248.488,288.933 248.461,288.400 248.448 C 288.070 248.439,287.305 248.701,286.700 249.029 M347.600 251.167 C 347.600 252.686,347.421 253.606,347.100 253.735 C 346.801 253.856,346.882 253.950,347.300 253.968 C 347.898 253.995,348.000 253.622,348.000 251.400 C 348.000 249.970,347.910 248.800,347.800 248.800 C 347.690 248.800,347.600 249.865,347.600 251.167 M294.200 250.030 C 293.320 250.171,292.900 250.312,293.267 250.343 C 293.634 250.374,294.174 250.488,294.467 250.596 C 294.991 250.788,296.356 250.172,295.988 249.909 C 295.885 249.835,295.080 249.889,294.200 250.030 M284.000 250.926 C 283.450 251.421,282.739 252.180,282.419 252.613 C 282.099 253.046,282.594 252.688,283.519 251.819 C 285.035 250.393,285.401 249.975,285.100 250.013 C 285.045 250.020,284.550 250.430,284.000 250.926 M288.800 250.421 C 288.370 250.714,288.654 250.754,289.800 250.562 C 291.784 250.230,292.104 249.998,290.567 250.006 C 289.925 250.009,289.130 250.196,288.800 250.421 M284.974 252.974 C 283.778 254.170,282.811 255.385,282.824 255.674 C 282.837 255.975,283.051 255.860,283.324 255.405 C 283.586 254.968,284.432 253.978,285.205 253.205 C 285.978 252.432,286.968 251.586,287.405 251.324 C 287.860 251.051,287.975 250.837,287.674 250.824 C 287.385 250.811,286.170 251.778,284.974 252.974 M255.748 254.204 C 255.350 255.497,255.367 255.605,255.882 255.089 C 256.205 254.766,256.409 254.104,256.335 253.618 C 256.226 252.901,256.114 253.012,255.748 254.204 M343.496 254.572 C 340.428 255.666,335.908 260.328,336.018 262.284 C 336.027 262.458,336.408 261.880,336.863 261.000 C 338.426 257.977,340.893 255.867,344.175 254.747 C 345.289 254.367,345.930 254.051,345.600 254.046 C 345.270 254.040,344.323 254.277,343.496 254.572 M280.532 255.940 C 280.358 256.603,280.122 256.763,279.647 256.539 C 279.291 256.371,277.560 256.204,275.800 256.168 L 272.600 256.102 275.800 256.374 C 277.560 256.523,279.301 256.784,279.669 256.954 C 280.358 257.271,281.539 255.806,281.017 255.283 C 280.880 255.147,280.662 255.442,280.532 255.940 M251.600 256.000 L 248.600 256.256 251.476 256.328 C 253.058 256.368,254.464 256.220,254.600 256.000 C 254.736 255.780,254.792 255.632,254.724 255.672 C 254.656 255.712,253.250 255.859,251.600 256.000 M347.000 255.992 C 345.531 256.188,346.110 256.255,349.177 256.242 C 351.474 256.233,352.914 256.102,352.377 255.952 C 351.201 255.624,349.676 255.636,347.000 255.992 M245.400 257.340 C 241.951 258.948,235.872 265.605,236.907 266.640 C 237.009 266.743,237.576 265.839,238.167 264.632 C 239.770 261.356,242.931 258.751,247.600 256.859 C 248.150 256.636,248.330 256.444,248.000 256.431 C 247.670 256.418,246.500 256.827,245.400 257.340 M271.000 257.029 C 268.936 258.103,265.905 261.638,266.520 262.254 C 266.636 262.370,267.040 261.814,267.418 261.019 C 268.121 259.536,270.599 257.200,271.468 257.200 C 271.734 257.200,272.064 257.020,272.200 256.800 C 272.526 256.272,272.415 256.293,271.000 257.029 M282.249 257.015 C 282.112 257.373,282.015 257.966,282.034 258.333 C 282.053 258.700,282.227 258.469,282.421 257.820 C 282.798 256.558,282.665 255.933,282.249 257.015 M342.957 257.032 C 342.273 257.369,341.103 258.310,340.357 259.123 L 339.000 260.600 340.409 259.309 C 341.185 258.599,342.535 257.662,343.409 257.225 C 344.284 256.789,344.820 256.429,344.600 256.425 C 344.380 256.421,343.640 256.694,342.957 257.032 M353.600 256.585 C 353.600 256.692,354.411 257.150,355.403 257.601 C 356.394 258.053,358.229 259.452,359.481 260.711 C 360.940 262.179,361.373 262.489,360.687 261.574 C 358.992 259.313,353.600 255.517,353.600 256.585 M271.329 258.609 C 269.698 259.587,267.665 262.198,268.154 262.688 C 268.289 262.823,268.400 262.730,268.400 262.481 C 268.400 261.784,270.784 259.229,272.040 258.580 C 273.928 257.603,276.630 257.844,279.002 259.201 C 280.969 260.327,281.134 260.358,281.631 259.701 C 282.079 259.109,282.076 259.076,281.611 259.490 C 281.170 259.882,280.650 259.744,278.982 258.790 C 276.273 257.240,273.714 257.179,271.329 258.609 M337.681 263.218 C 337.372 263.713,337.346 264.000,337.609 264.000 C 337.838 264.000,338.132 263.722,338.262 263.383 C 338.622 262.445,338.233 262.334,337.681 263.218 M265.200 263.861 C 264.241 264.367,264.236 264.388,265.076 264.394 C 265.558 264.397,266.071 264.208,266.216 263.973 C 266.621 263.318,266.298 263.283,265.200 263.861 M267.660 263.926 C 267.627 264.436,267.399 265.246,267.153 265.726 C 266.738 266.539,266.754 266.555,267.385 265.954 C 267.823 265.537,268.003 264.899,267.892 264.154 C 267.755 263.234,267.708 263.188,267.660 263.926 M260.000 264.400 C 259.236 264.894,260.058 264.894,261.600 264.400 L 262.600 264.080 261.600 264.046 C 261.050 264.027,260.330 264.187,260.000 264.400 M262.307 266.290 C 263.026 266.379,264.106 266.377,264.707 266.286 C 265.308 266.195,264.720 266.122,263.400 266.124 C 262.080 266.126,261.588 266.201,262.307 266.290 M255.000 267.600 C 254.368 268.260,254.019 268.790,254.225 268.778 C 254.578 268.757,256.639 266.400,256.305 266.400 C 256.220 266.400,255.632 266.940,255.000 267.600 M363.275 267.400 C 363.286 267.840,363.432 268.740,363.600 269.400 L 363.905 270.600 363.925 269.400 C 363.935 268.740,363.789 267.840,363.600 267.400 L 363.256 266.600 363.275 267.400 M236.200 268.800 C 236.046 269.710,236.011 270.544,236.121 270.654 C 236.231 270.764,236.446 270.110,236.600 269.200 C 236.754 268.290,236.789 267.456,236.679 267.346 C 236.569 267.236,236.354 267.890,236.200 268.800 M256.287 269.188 C 254.693 270.961,253.492 273.161,254.437 272.577 C 254.637 272.454,254.800 272.085,254.800 271.757 C 254.800 271.430,255.691 270.270,256.781 269.181 C 257.870 268.091,258.607 267.200,258.418 267.200 C 258.229 267.200,257.270 268.095,256.287 269.188 M253.000 270.400 C 252.638 271.101,252.426 271.759,252.529 271.862 C 252.632 271.965,253.006 271.469,253.360 270.760 C 253.714 270.051,253.926 269.393,253.831 269.298 C 253.736 269.203,253.362 269.699,253.000 270.400 M251.967 273.515 C 251.693 275.065,252.381 276.247,253.342 275.878 C 253.750 275.721,253.985 275.203,253.960 274.513 C 253.921 273.424,253.914 273.421,253.649 274.370 C 253.182 276.041,252.459 275.798,252.324 273.925 C 252.204 272.249,252.193 272.238,251.967 273.515 M363.422 274.222 C 363.272 275.025,363.238 275.772,363.348 275.882 C 363.458 275.992,363.672 275.425,363.822 274.622 C 363.973 273.819,364.006 273.073,363.896 272.963 C 363.786 272.853,363.573 273.419,363.422 274.222 M236.080 274.000 C 236.080 274.550,236.224 275.450,236.400 276.000 L 236.720 277.000 236.720 276.000 C 236.720 275.450,236.576 274.550,236.400 274.000 L 236.080 273.000 236.080 274.000 M362.062 278.554 C 361.619 279.555,360.395 281.325,359.343 282.487 L 357.429 284.600 359.275 282.855 C 361.053 281.175,363.499 277.365,363.073 276.940 C 362.960 276.826,362.505 277.553,362.062 278.554 M236.800 277.416 C 236.800 279.628,243.679 286.815,245.778 286.796 C 246.010 286.794,245.296 286.274,244.192 285.641 C 241.699 284.211,238.979 281.306,237.946 278.970 C 237.249 277.395,236.800 276.786,236.800 277.416 M354.200 286.022 C 353.320 286.438,352.834 286.784,353.120 286.790 C 353.702 286.801,356.000 285.684,356.000 285.390 C 356.000 285.156,356.118 285.114,354.200 286.022 M246.800 287.182 C 247.130 287.405,247.745 287.591,248.167 287.594 C 249.190 287.602,248.871 287.373,247.400 287.044 C 246.524 286.848,246.362 286.885,246.800 287.182 M338.400 287.200 L 325.400 287.417 338.400 287.502 C 346.269 287.554,351.637 287.435,352.000 287.200 C 352.533 286.855,352.533 286.822,352.000 286.898 C 351.670 286.945,345.550 287.081,338.400 287.200 M324.480 288.080 C 323.490 289.070,324.145 291.624,325.380 291.588 C 325.611 291.581,325.485 291.392,325.100 291.168 C 324.296 290.700,324.161 288.799,324.880 288.080 C 325.144 287.816,325.270 287.600,325.160 287.600 C 325.050 287.600,324.744 287.816,324.480 288.080 " stroke="none" fill="#8bcbd3" fill-rule="evenodd"></path><path id="path3" d="M127.600 71.988 C 121.906 72.780,116.800 78.539,116.800 84.170 C 116.800 85.411,116.533 87.065,116.206 87.847 L 115.612 89.269 113.106 89.048 C 111.728 88.926,109.638 88.712,108.461 88.572 C 107.104 88.411,106.161 88.479,105.881 88.759 C 105.639 89.001,105.201 89.200,104.909 89.200 C 103.992 89.200,101.738 91.560,100.979 93.315 C 99.729 96.203,99.422 96.400,96.162 96.400 C 94.559 96.400,93.136 96.580,93.000 96.800 C 92.864 97.020,92.401 97.200,91.971 97.200 C 90.973 97.200,89.750 97.887,88.056 99.400 C 82.911 103.995,82.852 111.914,87.928 116.491 C 90.977 119.239,90.672 119.200,108.869 119.200 C 128.032 119.200,128.685 119.330,127.773 122.966 C 127.514 123.996,127.523 124.000,130.037 124.000 C 131.999 124.000,132.453 123.893,132.080 123.520 C 131.233 122.673,131.510 120.877,132.597 120.165 C 134.674 118.805,137.087 120.773,136.073 123.000 L 135.617 124.000 138.109 123.968 C 139.479 123.951,140.375 123.846,140.100 123.735 C 139.088 123.327,139.518 120.913,140.762 120.027 C 143.913 117.784,148.970 119.789,148.173 122.966 C 147.919 123.977,147.959 124.000,149.961 124.000 L 152.009 124.000 151.757 122.423 C 151.297 119.543,152.465 119.203,162.835 119.201 L 171.470 119.200 173.035 117.500 C 173.896 116.565,175.410 114.720,176.399 113.400 C 177.388 112.080,178.306 110.910,178.439 110.800 C 181.903 107.927,176.509 97.200,171.601 97.200 C 171.186 97.200,170.736 97.020,170.600 96.800 C 169.253 94.620,162.800 98.715,162.800 101.750 C 162.800 103.259,161.424 104.709,160.525 104.148 C 157.687 102.377,162.647 94.400,166.586 94.400 C 170.230 94.400,165.796 83.317,161.400 81.436 C 156.220 79.220,153.995 79.485,148.923 82.920 C 145.321 85.359,142.800 84.584,142.800 81.038 C 142.800 80.467,142.620 80.000,142.400 80.000 C 142.180 80.000,142.000 79.732,142.000 79.405 C 142.000 78.818,141.687 78.365,139.486 75.774 C 137.156 73.030,131.976 71.380,127.600 71.988 M293.800 75.600 C 293.140 75.768,290.948 75.927,288.929 75.953 C 285.104 76.002,283.993 76.448,284.006 77.929 C 284.022 79.666,284.470 79.788,291.884 80.080 C 295.798 80.234,300.847 80.476,303.105 80.618 C 308.334 80.946,310.873 78.492,307.939 75.947 C 307.019 75.149,296.578 74.893,293.800 75.600 M177.123 82.700 C 176.418 83.521,175.890 84.400,176.101 84.400 C 176.183 84.400,176.649 83.860,177.137 83.200 C 178.101 81.896,178.092 81.572,177.123 82.700 M301.300 84.070 C 298.586 85.748,299.562 87.608,303.400 88.072 C 312.348 89.156,312.800 89.056,312.800 86.000 C 312.800 83.423,312.333 83.195,307.129 83.233 C 303.329 83.261,302.391 83.396,301.300 84.070 M252.629 84.629 C 252.283 84.974,252.000 85.591,252.000 86.000 C 252.000 88.026,251.720 88.000,273.855 88.000 C 295.903 88.000,296.000 87.991,296.000 86.000 C 296.000 85.251,295.721 84.679,295.226 84.414 C 293.814 83.658,253.395 83.862,252.629 84.629 M308.800 91.600 C 308.800 91.856,305.205 92.000,298.814 92.000 C 287.948 92.000,288.000 91.989,288.000 94.325 C 288.000 95.853,288.595 95.902,310.700 96.198 L 332.400 96.489 332.400 94.416 C 332.400 91.087,332.833 91.200,320.029 91.200 C 312.810 91.200,308.800 91.343,308.800 91.600 M260.480 92.480 C 260.216 92.744,260.000 93.428,260.000 94.000 C 260.000 95.797,260.592 96.001,265.780 95.987 C 271.017 95.973,272.000 95.649,272.000 93.936 C 272.000 92.200,271.379 92.000,266.000 92.000 C 262.613 92.000,260.803 92.157,260.480 92.480 M276.327 93.000 C 275.333 95.183,276.333 96.000,280.000 96.000 C 283.667 96.000,284.667 95.183,283.673 93.000 C 283.242 92.054,283.043 92.000,280.000 92.000 C 276.957 92.000,276.758 92.054,276.327 93.000 M284.327 101.000 C 283.196 103.482,284.160 104.000,289.911 104.000 C 295.423 104.000,296.000 103.810,296.000 102.000 C 296.000 100.190,295.423 100.000,289.911 100.000 C 284.829 100.000,284.779 100.009,284.327 101.000 M324.501 133.400 C 324.505 134.280,324.587 134.593,324.683 134.095 C 324.779 133.598,324.775 132.878,324.675 132.495 C 324.575 132.113,324.496 132.520,324.501 133.400 M346.000 153.023 C 346.000 153.521,347.541 155.219,347.715 154.913 C 347.814 154.741,347.468 154.189,346.947 153.686 C 346.426 153.183,346.000 152.885,346.000 153.023 M77.100 186.032 C 76.130 186.597,76.178 188.653,77.174 189.186 C 79.619 190.494,84.400 189.445,84.400 187.600 C 84.400 185.764,79.403 184.691,77.100 186.032 M60.727 194.600 C 60.386 195.348,60.386 195.852,60.727 196.600 L 61.183 197.600 72.311 197.600 C 84.205 197.600,84.400 197.568,84.400 195.600 C 84.400 193.632,84.205 193.600,72.311 193.600 L 61.183 193.600 60.727 194.600 M27.266 200.772 C 26.597 202.313,27.230 204.006,28.742 204.720 C 30.323 205.466,43.561 205.355,44.576 204.587 C 45.222 204.099,47.523 204.000,58.196 204.000 C 71.951 204.000,72.000 203.993,72.000 201.969 C 72.000 200.114,72.004 200.114,49.400 199.822 L 27.800 199.544 27.266 200.772 M76.880 202.080 C 75.022 203.938,76.684 205.600,80.400 205.600 C 83.710 205.600,84.400 205.255,84.400 203.600 C 84.400 203.028,84.184 202.344,83.920 202.080 C 83.279 201.439,77.521 201.439,76.880 202.080 M52.645 208.613 C 50.698 210.559,52.384 212.067,56.336 211.916 C 59.641 211.790,60.879 210.686,59.743 208.879 C 59.125 207.896,53.570 207.687,52.645 208.613 M65.029 210.229 C 64.224 211.033,64.226 212.169,65.033 212.976 C 65.593 213.536,67.554 213.597,82.106 213.504 L 98.546 213.400 99.910 211.500 L 101.275 209.600 83.466 209.600 C 67.809 209.600,65.581 209.676,65.029 210.229 M60.700 216.432 C 59.730 216.997,59.778 219.053,60.774 219.586 C 61.199 219.814,63.551 220.000,66.000 220.000 C 71.073 220.000,72.000 219.691,72.000 218.000 C 72.000 217.251,71.721 216.679,71.226 216.414 C 70.231 215.881,61.620 215.896,60.700 216.432 M295.800 224.322 C 294.480 224.389,293.229 224.614,293.020 224.822 C 292.811 225.030,292.226 225.200,291.720 225.200 C 291.214 225.200,290.800 225.380,290.800 225.600 C 290.800 225.820,290.440 226.000,290.000 226.000 C 289.560 226.000,289.200 226.180,289.200 226.400 C 289.200 226.620,288.938 226.800,288.617 226.800 C 287.049 226.800,283.017 232.118,281.249 236.519 C 280.703 237.880,280.654 244.363,281.179 245.746 C 282.317 248.738,278.694 250.456,276.200 248.107 C 273.132 245.218,265.353 243.334,264.200 245.200 C 264.064 245.420,263.623 245.600,263.220 245.600 C 262.150 245.600,258.508 249.030,257.768 250.735 C 257.419 251.541,256.968 252.513,256.766 252.895 C 256.565 253.277,256.400 253.924,256.400 254.333 C 256.400 255.737,255.116 256.400,252.397 256.400 C 235.892 256.400,230.469 279.309,245.400 285.959 C 246.060 286.253,246.913 286.652,247.295 286.847 C 247.680 287.043,262.649 287.201,280.895 287.201 C 318.573 287.203,316.742 287.036,316.287 290.424 L 316.076 292.000 320.738 291.954 C 323.302 291.928,325.097 291.827,324.726 291.729 C 323.728 291.466,323.396 289.371,324.167 288.194 L 324.804 287.221 337.702 287.092 C 353.129 286.938,354.252 286.704,358.587 282.742 C 366.127 275.851,364.252 261.675,355.286 257.778 C 354.469 257.423,353.487 256.968,353.105 256.766 C 352.217 256.298,345.810 256.287,344.895 256.753 C 344.513 256.948,343.660 257.353,343.000 257.653 C 341.214 258.467,340.066 259.760,338.935 262.230 C 337.791 264.729,335.955 265.299,335.665 263.246 C 335.302 260.681,340.758 254.400,343.348 254.400 C 343.681 254.400,344.064 254.220,344.200 254.000 C 344.336 253.780,345.157 253.600,346.024 253.600 C 347.847 253.600,347.941 253.219,347.167 248.973 C 344.932 236.710,327.697 231.430,320.853 240.911 C 318.323 244.417,315.663 243.238,315.008 238.321 C 314.267 232.764,309.593 227.489,303.000 224.769 C 301.995 224.354,298.922 224.163,295.800 224.322 M295.401 248.073 C 297.608 249.079,296.610 250.619,293.835 250.491 C 288.277 250.233,284.068 253.033,282.695 257.900 C 281.908 260.690,280.967 261.160,279.292 259.600 C 278.820 259.160,278.167 258.800,277.840 258.800 C 277.514 258.800,277.136 258.620,277.000 258.400 C 276.316 257.294,271.924 258.419,270.202 260.141 C 269.441 260.902,268.543 262.847,268.255 264.362 C 267.833 266.574,267.432 266.800,263.935 266.800 C 258.442 266.800,254.000 270.602,254.000 275.304 C 254.000 276.139,252.830 276.523,252.109 275.924 C 251.665 275.556,251.582 274.957,251.775 273.501 C 252.468 268.277,257.196 264.094,262.865 263.688 L 265.610 263.492 266.402 261.702 C 267.230 259.830,270.103 256.800,271.049 256.800 C 271.352 256.800,271.600 256.644,271.600 256.453 C 271.600 256.262,272.365 255.978,273.300 255.822 C 275.592 255.439,275.903 255.445,278.118 255.905 L 280.036 256.303 280.996 254.409 C 283.561 249.346,291.007 246.071,295.401 248.073 M91.590 269.119 L 91.783 271.000 91.919 269.447 C 91.993 268.593,91.907 267.747,91.726 267.566 C 91.545 267.385,91.484 268.084,91.590 269.119 " stroke="none" fill="#fbfbed" fill-rule="evenodd"></path></g></svg>