<?xml version="1.0" standalone="no"?>
<!DOCTYPE svg PUBLIC "-//W3C//DTD SVG 20010904//EN"
 "http://www.w3.org/TR/2001/REC-SVG-20010904/DTD/svg10.dtd">
<svg version="1.0" xmlns="http://www.w3.org/2000/svg"
 width="500.000000pt" height="500.000000pt" viewBox="0 0 500.000000 500.000000"
 preserveAspectRatio="xMidYMid meet">

<g transform="translate(0.000000,500.000000) scale(0.100000,-0.100000)"
fill="#000000" stroke="none">
<path d="M2442 4147 c-71 -152 -102 -343 -102 -648 l0 -216 -57 -10 -58 -11
-44 37 c-90 75 -152 193 -186 357 -11 50 -20 154 -24 284 -5 186 -8 205 -24
208 -14 3 -29 -21 -72 -110 -178 -376 -185 -670 -18 -849 l24 -26 -68 -32
c-50 -24 -72 -30 -83 -22 -8 5 -37 23 -65 40 -80 47 -150 116 -209 204 -64 97
-107 198 -172 405 -54 172 -67 190 -109 148 -84 -84 -100 -302 -40 -511 56
-192 130 -340 226 -449 l43 -49 -29 -24 c-49 -39 -66 -38 -167 7 -252 114
-353 202 -440 388 -23 48 -46 119 -55 165 -21 113 -28 129 -56 125 -17 -2 -27
-17 -46 -68 -34 -91 -35 -268 -4 -386 64 -234 202 -422 370 -502 l73 -34 -20
-27 c-38 -54 -45 -56 -174 -55 -105 0 -131 4 -201 28 -149 51 -286 145 -363
247 -47 63 -75 64 -80 3 -11 -156 230 -441 449 -530 32 -13 72 -24 89 -24 16
0 30 -3 30 -8 0 -4 -16 -30 -35 -59 l-34 -51 -91 -8 c-67 -5 -97 -12 -115 -26
-14 -11 -23 -24 -20 -29 4 -5 50 -9 103 -9 53 0 102 -4 107 -8 6 -4 30 -28 53
-54 l44 -46 -55 -25 c-151 -69 -230 -247 -183 -411 28 -95 51 -88 123 36 59
103 102 138 225 183 l101 37 41 -22 c22 -13 44 -26 49 -30 4 -3 -6 -31 -22
-61 -44 -81 -55 -158 -48 -322 7 -145 16 -174 49 -162 9 4 23 26 33 51 46 121
172 263 290 325 l44 23 90 -29 c70 -22 90 -32 86 -44 -37 -127 -56 -205 -64
-271 -19 -148 21 -326 71 -318 18 2 25 15 39 75 31 125 88 214 235 365 50 51
84 78 98 78 33 0 36 -8 18 -48 -23 -51 -21 -287 2 -387 19 -79 57 -145 84
-145 36 0 73 55 103 151 15 52 54 160 86 242 50 125 61 147 78 145 17 -3 21
-13 27 -69 8 -88 53 -250 88 -318 34 -69 61 -95 89 -86 29 9 75 111 111 245
17 63 42 143 56 178 25 59 28 62 60 62 28 0 44 -11 103 -69 86 -87 115 -145
146 -297 30 -143 38 -164 65 -164 68 0 140 295 126 513 -6 89 -5 97 11 97 25
-1 176 -203 229 -305 26 -51 46 -108 54 -153 10 -54 18 -73 31 -77 27 -9 35
-1 54 53 39 112 28 305 -28 501 l-25 83 52 24 c28 13 57 24 64 24 21 0 148
-98 192 -147 50 -57 91 -128 120 -210 12 -34 29 -64 38 -68 34 -13 42 17 49
167 8 200 -10 288 -83 385 -13 17 -24 34 -24 36 0 2 17 12 38 21 l39 18 106
-52 c122 -59 151 -87 202 -193 19 -40 43 -81 55 -92 19 -18 22 -18 38 -1 14
14 17 36 17 129 0 107 -2 116 -33 179 -38 78 -119 158 -187 183 -43 17 -54 28
-37 39 5 3 52 6 105 7 105 2 134 12 123 46 -7 21 -55 33 -130 33 -32 0 -34 2
-73 141 -4 13 5 17 44 21 148 14 356 197 460 405 39 79 46 101 47 155 1 57 -1
63 -21 66 -16 2 -29 -9 -53 -43 -135 -196 -400 -334 -593 -310 -48 6 -59 12
-86 45 l-30 37 75 37 c171 85 307 288 361 541 20 95 13 279 -14 355 -32 89
-76 80 -88 -18 -9 -75 -58 -223 -97 -290 -42 -75 -128 -164 -201 -210 -74 -47
-195 -109 -251 -128 -37 -13 -41 -13 -83 12 l-44 26 43 46 c124 132 237 413
256 633 13 155 -15 284 -74 340 -24 23 -25 23 -43 3 -10 -10 -46 -106 -80
-211 -70 -219 -147 -381 -216 -460 -25 -29 -79 -74 -120 -102 l-74 -50 -63 31
c-35 16 -65 32 -67 34 -2 1 12 25 32 51 76 105 102 190 101 333 -1 150 -46
318 -140 518 -34 73 -47 93 -61 90 -16 -3 -19 -22 -25 -188 -12 -351 -64 -526
-191 -651 l-52 -51 -60 6 c-150 16 -155 18 -160 40 -4 23 -33 185 -66 371 -40
230 -82 450 -90 473 -14 37 -44 27 -67 -21z m468 -950 c321 -77 625 -254 900
-527 169 -168 294 -353 349 -518 l21 -63 -31 -45 c-95 -138 -228 -242 -440
-343 -401 -190 -756 -271 -1194 -271 -493 0 -984 119 -1418 342 -98 51 -135
78 -225 160 -59 54 -109 103 -110 109 -6 15 26 64 159 246 217 298 312 400
499 535 287 207 544 325 826 377 156 29 159 29 369 26 161 -3 206 -7 295 -28z"/>
<path d="M2505 3140 c-332 -52 -561 -228 -656 -504 -47 -134 -62 -353 -34
-483 37 -176 95 -286 214 -403 96 -96 184 -146 306 -177 86 -21 330 -24 420
-5 332 72 536 245 627 532 20 65 23 96 23 225 0 168 -14 238 -70 361 -79 172
-198 296 -360 374 -55 27 -132 55 -171 64 -93 20 -224 27 -299 16z m245 -75
c63 -9 171 -48 237 -86 65 -37 165 -128 210 -191 l32 -45 -40 -13 c-54 -18
-95 -56 -80 -74 10 -11 21 -9 69 10 31 13 62 24 68 24 20 0 84 -184 84 -240 0
-5 -14 -4 -32 1 -43 12 -128 1 -135 -17 -9 -23 4 -28 66 -30 36 0 67 -7 84
-19 24 -16 27 -23 27 -77 0 -53 -2 -60 -17 -55 -73 24 -167 46 -174 41 -35
-21 27 -62 130 -87 l48 -11 -9 -38 c-4 -21 -20 -67 -34 -103 l-26 -65 -52 46
c-67 62 -93 77 -111 70 -28 -10 -15 -34 45 -87 84 -73 86 -88 19 -156 -49 -50
-129 -113 -143 -113 -3 0 -6 10 -6 23 -1 39 -37 105 -85 152 -43 44 -65 50
-65 20 0 -8 18 -42 40 -76 35 -55 60 -114 60 -144 0 -21 -249 -99 -265 -83 -3
3 -1 17 5 32 22 59 7 203 -25 235 -26 26 -33 -1 -32 -123 0 -74 -4 -119 -12
-135 -13 -24 -14 -24 -136 -18 -68 2 -128 8 -134 12 -8 4 -5 15 8 34 40 56 57
235 26 261 -24 20 -31 4 -44 -94 -13 -96 -29 -136 -62 -160 -20 -14 -27 -12
-83 16 -76 39 -189 150 -240 238 -36 61 -96 220 -96 254 0 15 3 15 30 1 66
-34 200 -11 290 51 28 19 53 34 54 32 1 -2 14 -24 29 -49 29 -51 89 -109 138
-135 249 -128 542 -50 647 174 25 52 27 68 27 177 0 106 -3 129 -28 195 -82
224 -297 346 -529 300 -173 -33 -269 -133 -314 -323 l-18 -78 -115 7 c-91 5
-125 3 -159 -9 l-44 -15 7 26 c13 54 68 174 81 179 8 3 35 -7 60 -22 51 -30
71 -24 60 18 -4 17 -20 32 -46 44 -22 10 -40 21 -40 26 0 4 15 24 33 43 l33
36 48 -41 c50 -44 66 -45 66 -5 0 16 -12 33 -39 52 l-39 29 54 36 c87 57 254
115 374 129 36 5 168 0 220 -7z m-542 -612 c1 -21 5 -50 8 -64 11 -56 -138
-149 -241 -149 -35 0 -52 6 -75 28 -57 51 -50 169 13 204 18 10 267 29 287 21
3 -1 7 -19 8 -40z"/>
<path d="M2040 2137 c-35 -18 -70 -74 -70 -113 0 -60 89 -133 163 -134 141 -1
190 183 64 241 -48 21 -121 24 -157 6z m140 -52 c71 -37 36 -145 -46 -145 -28
0 -98 38 -112 60 -40 65 77 127 158 85z"/>
<path d="M1515 2664 c-98 -76 -335 -321 -420 -436 -90 -120 -169 -253 -160
-268 13 -21 31 -8 69 51 137 212 318 419 529 603 42 37 77 74 77 82 0 26 -34
14 -95 -32z"/>
<path d="M3491 2696 c-9 -11 6 -31 71 -97 46 -46 120 -125 166 -176 54 -61 88
-90 97 -86 24 9 18 27 -32 94 -54 75 -258 279 -277 279 -8 0 -19 -6 -25 -14z"/>
<path d="M2087 3900 c-37 -29 -52 -83 -38 -131 29 -98 161 -117 206 -29 29 56
11 145 -34 170 -33 17 -106 12 -134 -10z m103 -50 c39 -39 15 -110 -37 -110
-29 0 -73 42 -73 69 0 23 44 61 71 61 11 0 28 -9 39 -20z"/>
<path d="M2736 3855 c-36 -33 -38 -38 -33 -78 8 -62 51 -97 118 -97 111 0 152
67 93 153 -46 68 -118 77 -178 22z m136 -49 c35 -42 13 -76 -51 -76 -30 0 -71
29 -71 50 0 18 29 68 42 73 15 6 56 -18 80 -47z"/>
<path d="M3451 3753 c-31 -38 -35 -67 -16 -108 40 -82 161 -86 194 -7 38 91
-118 192 -178 115z m107 -49 c24 -17 29 -43 10 -62 -31 -31 -88 1 -88 50 0 24
4 28 28 28 15 0 38 -7 50 -16z"/>
<path d="M1463 3762 c-61 -19 -86 -73 -59 -128 44 -93 184 -98 222 -8 18 43
10 74 -26 109 -30 29 -93 41 -137 27z m102 -72 c26 -29 8 -66 -36 -72 -27 -4
-39 0 -62 23 -23 24 -26 32 -17 49 15 28 89 28 115 0z"/>
<path d="M893 3490 c-27 -11 -63 -66 -63 -97 0 -93 141 -157 205 -93 51 52 48
132 -6 173 -30 22 -103 31 -136 17z m112 -65 c30 -29 32 -58 5 -85 -24 -24
-51 -25 -90 -5 -56 29 -61 73 -11 100 39 21 69 18 96 -10z"/>
<path d="M4017 3472 c-45 -47 -32 -131 29 -177 10 -8 41 -15 67 -15 121 0 146
137 37 199 -54 30 -100 28 -133 -7z m113 -39 c14 -9 28 -22 32 -27 16 -22 7
-56 -17 -72 -34 -22 -81 -3 -103 42 -14 31 -14 35 3 54 22 24 52 26 85 3z"/>
<path d="M397 2979 c-15 -11 -32 -37 -38 -59 -10 -33 -9 -43 7 -71 37 -63 135
-89 186 -49 58 45 61 129 7 174 -40 34 -123 37 -162 5z m135 -46 c22 -20 23
-61 1 -85 -36 -40 -133 -6 -133 47 0 48 92 75 132 38z"/>
<path d="M4427 2969 c-23 -14 -47 -62 -47 -96 0 -38 23 -69 70 -93 94 -48 170
-2 170 101 0 31 -7 47 -29 70 -26 25 -36 29 -88 29 -32 0 -66 -5 -76 -11z
m136 -56 c21 -20 22 -52 1 -81 -25 -36 -99 -24 -129 21 -20 31 -10 56 29 73
35 15 72 10 99 -13z"/>
</g>
</svg>
