<?xml version="1.0" standalone="no"?>
<!DOCTYPE svg PUBLIC "-//W3C//DTD SVG 20010904//EN"
 "http://www.w3.org/TR/2001/REC-SVG-20010904/DTD/svg10.dtd">
<svg version="1.0" xmlns="http://www.w3.org/2000/svg"
 width="500.000000pt" height="500.000000pt" viewBox="0 0 500.000000 500.000000"
 preserveAspectRatio="xMidYMid meet">

<g transform="translate(0.000000,500.000000) scale(0.100000,-0.100000)"
fill="#000000" stroke="none">
<path d="M2232 4700 c-503 -76 -931 -334 -1243 -747 -363 -481 -472 -1111
-288 -1673 99 -301 237 -522 478 -760 114 -114 161 -152 291 -238 85 -56 171
-112 191 -126 77 -51 101 -172 55 -271 -31 -67 -67 -108 -138 -156 -62 -42
-98 -89 -98 -126 0 -54 3 -53 -214 -54 -208 -2 -192 -15 24 -19 58 -1 130 -5
160 -10 46 -6 36 -7 -63 -9 -76 0 -116 -5 -112 -11 3 -6 51 -10 107 -10 56 0
99 -2 97 -4 -2 -2 -62 -7 -134 -11 -71 -4 -132 -9 -135 -12 -3 -3 81 -3 185 0
105 3 213 2 240 -2 l50 -7 -64 -7 c-35 -4 -86 -7 -112 -7 -27 0 -49 -4 -49
-10 0 -6 72 -10 197 -10 108 0 194 -3 190 -6 -3 -3 -59 -12 -124 -19 l-118
-14 150 7 c83 4 204 5 270 2 153 -6 764 -6 915 0 63 3 187 2 275 -2 l160 -7
-122 14 c-67 7 -128 15 -135 18 -7 3 77 6 187 8 178 2 191 3 120 11 -169 19
-133 25 154 26 162 1 297 4 299 7 3 3 -102 6 -234 6 -205 2 -224 3 -134 10 58
4 251 12 430 19 178 6 327 13 330 17 3 3 -182 3 -410 0 -230 -3 -391 -2 -360
3 30 4 118 9 195 10 216 4 226 17 13 19 -102 0 -193 4 -202 7 -10 4 -16 18
-16 38 0 44 -29 83 -107 141 -103 77 -153 164 -153 268 0 68 34 124 102 169
29 19 105 69 169 111 290 190 533 467 671 765 56 122 113 293 145 439 26 121
28 141 28 368 -1 223 -3 248 -27 355 -98 427 -316 786 -656 1076 -386 331
-933 489 -1430 414z m581 -74 c576 -117 1060 -502 1315 -1046 278 -594 188
-1333 -226 -1850 -111 -139 -275 -291 -422 -393 -331 -227 -652 -320 -1060
-304 -238 9 -419 46 -601 123 -218 92 -435 239 -609 414 -265 265 -429 569
-501 926 -31 154 -38 439 -15 599 59 405 248 765 559 1061 252 241 568 403
920 474 181 36 448 35 640 -4z m-808 -3648 c140 -16 826 -16 973 1 63 7 116
11 118 8 11 -11 -217 -37 -414 -48 -254 -15 -588 -1 -741 31 -88 18 -146 40
-71 26 19 -3 80 -11 135 -18z m-31 -128 c8 0 16 14 20 31 6 29 7 30 48 24 60
-8 414 -25 525 -25 51 0 95 -4 98 -10 4 -6 10 -8 15 -5 5 3 12 -6 16 -20 7
-28 24 -34 24 -8 0 16 1 16 13 0 9 -12 31 -17 82 -19 l70 -3 -70 -9 -70 -8 3
-48 4 -47 -154 -7 c-231 -10 -657 20 -685 48 -6 6 16 113 30 146 l11 25 4 -32
c2 -19 9 -33 16 -33z m-123 -51 c-10 -23 -10 -23 -10 7 -1 17 2 34 7 38 11 12
14 -18 3 -45z m59 41 c0 -5 -4 -10 -10 -10 -5 0 -10 5 -10 10 0 6 5 10 10 10
6 0 10 -4 10 -10z m-162 -89 c136 -46 413 -71 782 -71 328 0 555 24 700 74 51
18 62 13 34 -14 -22 -23 -133 -52 -284 -76 -139 -21 -644 -31 -830 -15 -299
25 -470 66 -470 113 0 11 3 11 68 -11z m42 -111 c190 -37 315 -44 725 -45 401
0 525 7 689 41 38 8 71 12 74 10 4 -4 -17 -11 -115 -35 -21 -6 -99 -18 -173
-28 -170 -23 -794 -26 -985 -5 -133 15 -301 46 -340 64 -34 15 -32 32 3 23 15
-4 70 -15 122 -25z m-202 -75 c18 -3 49 -9 70 -15 54 -15 62 -12 22 10 l-35
19 40 -5 c22 -3 81 -12 130 -19 210 -33 585 -55 948 -56 126 -1 226 -4 222 -7
-4 -4 -43 -12 -88 -19 l-82 -12 90 4 c50 3 106 7 125 10 27 4 30 3 14 -4 -100
-45 -632 -66 -926 -37 -312 32 -530 78 -588 127 l-25 21 25 -7 c14 -4 40 -8
58 -10z m1852 0 c0 -6 -56 -35 -67 -35 -4 1 8 9 27 20 39 22 40 22 40 15z"/>
<path d="M2698 4566 c-30 -15 -84 -106 -104 -175 -22 -75 -14 -129 35 -244 49
-116 71 -194 71 -258 0 -56 -32 -183 -59 -238 -36 -69 -40 -54 -7 27 29 71 31
85 30 192 0 86 -5 125 -17 153 -21 46 -31 48 -22 5 5 -27 0 -22 -27 27 -18 33
-45 76 -59 95 -57 75 -71 118 -67 193 3 63 3 68 -9 41 -29 -69 -14 -129 65
-257 102 -164 114 -261 58 -467 -19 -69 -43 -164 -54 -213 -32 -137 -102 -262
-75 -134 16 80 16 219 -1 282 -15 56 -65 159 -106 220 -15 22 -39 62 -54 90
-14 27 -26 43 -26 34 0 -17 28 -75 113 -229 46 -84 78 -181 76 -230 0 -14 -11
11 -23 55 -36 130 -78 200 -212 352 -90 103 -120 156 -138 245 -14 69 -26 86
-19 26 13 -106 47 -169 153 -283 31 -33 70 -82 88 -110 l33 -50 -38 45 c-21
25 -72 81 -114 125 -94 100 -125 153 -145 246 -20 93 -7 187 36 269 l29 55
-28 -33 c-33 -39 -71 -145 -71 -200 0 -69 21 -164 47 -215 14 -29 70 -97 127
-156 150 -156 206 -246 232 -375 25 -120 4 -205 -80 -317 -60 -80 -90 -145
-121 -269 -30 -116 -31 -119 -91 -211 -61 -93 -112 -204 -124 -272 -10 -54 -9
-62 16 -115 l27 -57 8 73 c9 73 70 276 94 309 8 11 4 -18 -11 -76 -30 -117
-32 -219 -4 -301 18 -53 140 -256 140 -233 0 5 -22 48 -50 95 -68 120 -87 194
-82 326 2 47 22 50 22 4 0 -15 12 -49 25 -77 14 -27 23 -43 21 -33 -19 70 -27
182 -16 226 15 63 74 172 133 251 26 35 46 65 45 67 -6 6 -95 -110 -127 -166
-25 -44 -31 -50 -31 -30 0 34 30 96 81 172 65 95 242 269 321 314 37 21 65 40
63 42 -8 9 -152 -66 -188 -98 -50 -43 -47 -24 5 35 57 64 102 90 225 130 103
34 185 73 199 97 5 7 2 8 -7 3 -8 -4 13 20 46 55 l60 63 -68 -52 c-89 -67
-126 -84 -62 -30 141 122 161 159 170 314 6 88 2 89 -15 5 -6 -31 -22 -73 -36
-95 l-25 -40 6 37 c3 21 6 74 6 118 0 91 -17 139 -72 200 -26 29 -28 30 -15 8
9 -16 23 -39 32 -53 33 -51 7 -30 -93 76 -116 123 -159 199 -168 295 l-5 59
19 -68 c11 -38 23 -72 27 -75 4 -4 4 2 -1 13 -4 11 -10 64 -13 117 -4 94 -3
100 27 157 17 33 31 69 31 79 0 25 -31 33 -62 18z m157 -728 c68 -125 29 -327
-83 -435 -52 -50 -73 -56 -42 -14 11 17 33 56 48 88 25 54 27 67 26 183 -1 79
-7 150 -17 193 -10 38 -17 73 -17 79 0 21 57 -42 85 -94z m-67 -182 c-2 -39
-7 -71 -13 -71 -5 0 -16 21 -24 47 -13 43 -13 51 4 94 17 45 19 46 27 24 5
-13 7 -56 6 -94z m133 -40 c0 -41 -6 -76 -16 -93 -9 -16 -13 -19 -10 -8 4 11
9 55 12 98 7 93 15 95 14 3z m-264 -107 c-6 -45 -49 -114 -81 -131 -20 -10
-20 -10 -5 8 26 30 79 129 79 147 0 9 3 17 6 17 4 0 4 -18 1 -41z m-340 -455
c-19 -43 -42 -104 -51 -134 -10 -30 -20 -61 -22 -69 -2 -8 -7 -11 -10 -9 -8 8
22 126 46 183 21 50 62 117 68 111 1 -2 -13 -39 -31 -82z"/>
<path d="M2485 4524 c-58 -59 -113 -171 -123 -249 -11 -86 3 -147 50 -222 22
-35 47 -83 54 -106 l14 -42 -3 50 c-3 31 -20 85 -46 141 -32 73 -41 103 -41
148 0 92 56 227 115 276 18 15 39 50 30 50 -3 0 -26 -21 -50 -46z"/>
<path d="M2569 4553 c-32 -39 -44 -57 -32 -50 13 8 57 67 50 67 -2 0 -10 -8
-18 -17z"/>
<path d="M2809 4558 c0 -2 -3 -33 -5 -70 -3 -38 -11 -87 -19 -109 -19 -52 -19
-84 -1 -44 8 17 30 57 50 89 40 67 46 110 17 126 -18 9 -40 13 -42 8z"/>
<path d="M2920 4477 c0 -29 -9 -90 -21 -134 -16 -67 -18 -89 -9 -122 12 -47
28 -63 22 -23 -2 15 10 70 27 122 34 104 36 118 20 173 -16 58 -39 49 -39 -16z"/>
<path d="M2212 4468 c2 -12 10 -23 18 -23 22 0 19 39 -3 43 -15 3 -18 -1 -15
-20z"/>
<path d="M3070 4485 c0 -11 54 -90 143 -210 51 -69 110 -158 130 -199 68 -138
95 -292 78 -441 -8 -71 -47 -202 -56 -193 -2 2 5 37 16 78 24 91 25 219 3 309
-20 80 -75 194 -145 298 -71 107 -83 122 -91 123 -4 0 21 -46 56 -103 136
-219 176 -326 176 -466 0 -163 -51 -292 -159 -404 -84 -88 -209 -170 -358
-237 -339 -150 -398 -186 -477 -290 -79 -106 -107 -190 -105 -314 l2 -61 8 79
c9 84 34 181 48 190 5 3 3 -15 -5 -41 -8 -25 -14 -60 -13 -77 0 -26 3 -22 18
24 9 30 23 64 30 75 10 17 11 15 4 -15 -14 -61 -9 -162 11 -195 l17 -30 -5 38
c-3 20 -3 37 -1 37 2 0 11 -21 19 -47 17 -51 65 -119 66 -93 0 8 -9 43 -20 77
-26 83 -35 194 -21 268 15 80 35 99 27 25 -3 -30 -2 -82 2 -115 l8 -60 17 49
c9 28 17 81 18 120 1 101 15 129 21 41 3 -53 13 -89 40 -148 30 -67 35 -87 32
-138 -2 -32 -8 -68 -14 -80 -18 -33 -5 -33 24 1 22 27 26 41 26 96 0 35 -9 97
-20 136 -24 87 -26 178 -4 241 22 65 34 68 17 4 -7 -28 -12 -81 -12 -117 l2
-65 7 80 c8 95 35 160 80 198 37 32 54 28 22 -6 -69 -74 -80 -190 -32 -357 17
-58 30 -118 30 -135 0 -30 -33 -95 -48 -95 -23 0 -83 -77 -97 -124 -29 -104
-26 -111 15 -31 29 56 61 98 105 140 74 70 84 98 86 225 1 77 2 81 11 45 5
-22 7 -92 5 -155 -5 -114 -24 -195 -73 -298 -9 -19 -13 -36 -11 -39 13 -12 69
32 94 75 28 46 28 50 28 210 0 89 3 162 6 162 9 0 19 -94 20 -195 1 -135 20
-73 26 85 4 96 1 139 -11 187 -27 105 -34 156 -26 208 l7 50 2 -60 c0 -33 13
-107 27 -165 14 -58 29 -141 33 -185 l7 -80 12 40 c18 60 14 119 -13 230 -47
185 -30 264 79 361 66 60 71 48 7 -16 -73 -73 -95 -120 -88 -191 3 -32 16 -81
30 -111 l25 -53 1 55 c2 72 14 52 42 -71 31 -135 31 -281 1 -373 -29 -85 -62
-153 -98 -195 -14 -18 -25 -34 -23 -36 10 -9 139 89 165 126 32 46 39 39 29
-28 -6 -41 -17 -56 -102 -142 -115 -116 -153 -186 -159 -289 l-4 -67 14 61
c23 98 61 161 161 265 118 121 121 131 106 329 -6 80 -10 192 -9 250 1 78 -4
126 -19 185 -32 123 -35 151 -22 216 14 73 62 154 145 246 143 159 227 293
260 412 10 33 21 58 26 55 4 -3 8 -34 8 -70 0 -69 -27 -165 -63 -223 -11 -19
-15 -31 -9 -27 18 11 57 92 76 155 9 33 16 93 17 150 0 73 3 90 10 72 19 -49
12 -181 -15 -266 -14 -43 -24 -81 -22 -82 6 -6 36 45 56 96 29 74 35 163 16
249 -20 95 -51 162 -135 292 -75 116 -126 208 -119 216 3 2 26 -33 52 -78 26
-46 56 -94 67 -108 24 -29 24 -30 -24 71 -37 78 -54 129 -43 129 3 0 17 -22
31 -49 13 -27 63 -101 111 -163 100 -131 127 -181 144 -261 39 -189 -79 -399
-312 -557 -51 -35 -103 -72 -115 -83 -13 -11 -25 -18 -27 -16 -3 2 41 42 97
89 55 47 103 91 105 99 3 8 -31 -15 -74 -50 -200 -164 -238 -218 -237 -343 1
-76 53 -308 70 -313 14 -5 83 73 83 95 1 9 5 63 10 120 12 130 28 164 28 61 1
-41 6 -90 11 -109 6 -19 11 -62 11 -95 0 -57 -4 -67 -56 -150 -30 -48 -58
-102 -61 -119 -5 -27 -1 -24 33 26 21 31 77 98 124 148 47 51 90 104 97 119
17 38 15 93 -7 201 -20 98 -19 142 7 194 18 35 92 116 106 116 5 0 -11 -22
-37 -50 -25 -27 -51 -61 -56 -75 -14 -37 -12 -101 5 -165 33 -124 37 -168 20
-227 -9 -30 -39 -92 -67 -137 -76 -120 -88 -165 -96 -338 -6 -132 -3 -163 11
-118 2 8 3 2 1 -15 -9 -67 -54 -133 -151 -222 -52 -49 -104 -104 -114 -125
-24 -46 -69 -167 -69 -182 1 -25 78 77 90 119 15 52 46 86 116 124 63 34 116
105 156 208 33 88 47 103 28 32 -32 -119 -100 -215 -201 -284 -33 -23 -54 -50
-84 -108 -28 -54 -66 -105 -128 -169 -48 -50 -86 -95 -85 -100 3 -9 101 52
148 92 24 21 24 21 3 15 -30 -8 -29 -2 7 38 16 19 42 58 57 88 20 39 43 64 83
91 171 117 230 238 268 548 l9 75 1 -80 c2 -112 -15 -210 -65 -364 -10 -31 38
45 78 122 22 43 49 113 59 155 l20 77 -5 -65 c-8 -85 -50 -249 -86 -328 -27
-61 -64 -120 -116 -189 -14 -18 -23 -33 -20 -33 16 0 136 178 172 255 72 155
66 145 59 110 -11 -56 -66 -175 -116 -253 -84 -127 -228 -256 -382 -338 -71
-39 -57 -44 26 -10 83 34 171 101 278 212 108 111 171 206 236 354 60 137 74
201 74 351 0 135 -13 194 -65 287 -31 55 -26 66 8 20 73 -97 97 -182 97 -340
0 -172 -48 -326 -156 -505 -36 -58 -58 -101 -50 -94 20 17 109 148 135 199 32
62 37 45 9 -26 -46 -113 -145 -241 -267 -345 -25 -20 -41 -37 -37 -37 16 0 74
47 159 129 48 46 87 81 87 77 0 -20 -152 -163 -219 -208 -168 -110 -437 -221
-642 -264 -130 -28 -386 -25 -554 5 -71 12 -164 34 -205 47 -88 28 -96 29 -81
10 26 -31 345 -93 506 -99 290 -10 509 41 810 188 83 40 184 96 227 125 150
101 320 270 415 413 135 207 250 539 283 822 8 61 18 115 23 122 5 7 6 17 2
23 -4 6 -10 79 -15 163 -18 310 -95 551 -262 821 -59 95 -106 152 -247 298
-107 112 -136 131 -122 80 16 -55 52 -112 121 -192 84 -97 143 -182 172 -247
17 -37 22 -69 22 -139 1 -83 -1 -94 -27 -133 -29 -43 -90 -80 -134 -81 -37 0
-26 16 25 38 104 45 125 98 92 226 -29 114 -78 208 -165 316 -84 105 -120 166
-130 226 -4 21 -14 47 -23 57 -25 28 -159 110 -279 171 -113 56 -123 60 -123
51z m947 -1026 c20 -58 12 -192 -11 -169 -10 11 -37 166 -31 188 8 32 27 23
42 -19z m-229 -120 c-2 -6 -8 -10 -13 -10 -5 0 -11 4 -13 10 -2 6 4 11 13 11
9 0 15 -5 13 -11z m-564 -110 c-27 -27 -107 -90 -179 -139 -134 -92 -175 -127
-219 -194 -29 -44 -34 -41 -10 7 34 67 70 101 193 181 70 45 156 110 191 143
77 73 95 74 24 2z m654 8 c4 -21 -25 -34 -40 -19 -8 8 -8 16 2 27 16 19 34 15
38 -8z m-228 -12 c0 -8 -7 -15 -15 -15 -8 0 -15 7 -15 15 0 8 7 15 15 15 8 0
15 -7 15 -15z m180 -121 c0 -8 -7 -14 -15 -14 -15 0 -21 21 -9 33 10 9 24 -2
24 -19z m183 -47 c3 -8 1 -20 -4 -28 -11 -19 -32 2 -23 24 7 20 20 22 27 4z
m-360 -46 c14 -11 14 -14 -4 -32 -10 -10 -19 -29 -19 -41 -1 -20 -3 -18 -14 8
-8 18 -22 37 -33 42 -17 10 -17 11 0 18 10 4 23 18 29 33 10 25 10 25 18 6 4
-12 15 -26 23 -34z m-353 -11 c-6 -12 -14 -20 -17 -17 -2 3 1 14 8 26 7 11 15
18 17 16 2 -2 -2 -13 -8 -25z m466 -257 c15 -11 15 -13 2 -18 -9 -4 -24 -22
-34 -41 l-19 -34 -21 42 c-19 37 -20 46 -9 68 7 14 16 40 20 59 l7 35 19 -50
c10 -27 26 -55 35 -61z m234 -83 c0 -5 -4 -10 -10 -10 -5 0 -10 5 -10 10 0 6
5 10 10 10 6 0 10 -4 10 -10z m-1253 -97 c-2 -16 -4 -5 -4 22 0 28 2 40 4 28
2 -13 2 -35 0 -50z m1239 -79 c-4 -12 -10 -14 -17 -7 -5 5 -7 17 -3 27 4 12
10 14 17 7 5 -5 7 -17 3 -27z m-526 -70 c0 -8 -4 -12 -10 -9 -5 3 -10 10 -10
16 0 5 5 9 10 9 6 0 10 -7 10 -16z m118 -11 c-4 -22 -22 -20 -26 1 -2 10 3 16
13 16 10 0 15 -7 13 -17z m169 -45 c-2 -13 -4 -3 -4 22 0 25 2 35 4 23 2 -13
2 -33 0 -45z m91 -80 c-5 -43 -99 -211 -106 -190 -3 11 11 43 67 146 17 32 31
64 31 72 0 8 3 14 6 14 4 0 4 -19 2 -42z m32 -218 c0 -5 -4 -10 -10 -10 -5 0
-10 5 -10 10 0 6 5 10 10 10 6 0 10 -4 10 -10z m-140 -314 c0 -3 -4 -8 -10
-11 -5 -3 -10 -1 -10 4 0 6 5 11 10 11 6 0 10 -2 10 -4z"/>
<path d="M3037 4326 c10 -13 19 -23 21 -21 7 6 -19 45 -29 45 -5 0 -2 -11 8
-24z"/>
<path d="M1446 4189 c-129 -135 -205 -241 -231 -321 -9 -29 -47 -114 -85 -188
-107 -213 -182 -417 -211 -570 -6 -36 -16 -69 -22 -75 -11 -12 -3 97 18 225
24 152 26 172 16 166 -5 -4 -24 -45 -42 -91 -17 -47 -35 -85 -39 -85 -4 0 -8
-10 -7 -22 0 -28 -41 -240 -49 -247 -8 -9 6 145 22 236 55 311 187 548 486
875 66 71 117 132 114 135 -16 16 -270 -239 -357 -357 -195 -264 -318 -584
-348 -903 -13 -133 1 -366 29 -497 43 -203 130 -415 235 -577 80 -123 119
-169 274 -324 153 -152 279 -243 466 -334 231 -114 415 -155 730 -162 232 -6
360 7 535 53 261 68 545 236 728 428 77 81 101 124 29 53 -343 -341 -871 -528
-1380 -487 -152 12 -290 38 -403 76 -180 61 -371 158 -519 264 -77 56 -223
198 -276 270 -32 42 -83 130 -76 130 2 0 29 -33 59 -72 140 -186 369 -371 575
-465 90 -41 70 -19 -28 31 -271 138 -470 319 -608 555 -49 82 -31 70 32 -22
30 -45 79 -107 107 -137 l51 -55 -49 70 c-90 128 -96 159 -8 42 84 -112 298
-314 392 -369 73 -44 194 -102 194 -94 0 2 -43 31 -94 65 -93 60 -118 81 -97
81 6 0 -26 32 -71 72 -100 87 -169 159 -192 201 -14 27 -10 24 28 -16 55 -58
59 -51 11 20 -49 73 -110 198 -130 266 -25 88 -13 88 23 -1 18 -44 51 -108 74
-143 40 -63 193 -229 210 -229 5 0 -33 47 -85 105 -108 120 -129 158 -222 380
-108 257 -107 254 -99 372 10 151 16 137 59 -127 22 -131 113 -356 189 -465
11 -16 59 -73 106 -126 47 -53 111 -126 142 -162 69 -78 167 -154 263 -203 43
-21 58 -27 40 -13 -76 57 -163 159 -222 261 -34 58 -94 146 -134 195 -77 96
-131 194 -153 276 -8 28 -26 72 -40 97 -14 25 -26 58 -26 73 0 33 23 91 40
102 6 4 4 -7 -5 -26 -32 -61 0 -169 52 -177 30 -4 41 16 54 99 12 83 59 191
138 323 75 124 114 212 127 291 l11 70 2 -63 c1 -78 -23 -153 -95 -292 -62
-119 -45 -102 33 33 68 117 86 180 81 277 -9 156 -82 250 -269 346 -145 74
-212 137 -253 239 -50 123 -36 288 39 435 29 56 121 187 187 263 89 103 44 71
-76 -54z m-253 -674 c1 -5 -6 -11 -15 -13 -11 -2 -18 3 -18 13 0 17 30 18 33
0z m1 -174 c9 -15 -23 -36 -36 -23 -5 5 -7 15 -4 21 9 13 33 14 40 2z m436
-111 c17 -13 0 -9 -53 14 -43 19 -81 36 -84 40 -14 14 114 -37 137 -54z m-340
-16 c0 -9 -5 -14 -12 -12 -18 6 -21 28 -4 28 9 0 16 -7 16 -16z m-70 -90 c11
-12 10 -18 -3 -32 -16 -15 -18 -15 -34 0 -13 14 -14 20 -3 32 7 9 16 16 20 16
4 0 13 -7 20 -16z m219 2 c9 -10 9 -20 0 -40 -15 -32 -21 -32 -35 -3 -7 17 -7
28 0 40 13 21 20 21 35 3z m-399 -146 c13 -8 12 -12 -7 -25 -12 -8 -25 -29
-28 -47 l-7 -32 -14 39 c-7 21 -18 41 -24 45 -8 5 -6 18 9 46 12 21 21 48 22
59 0 11 8 -2 17 -28 10 -26 24 -52 32 -57z m505 -20 c0 -8 -8 -16 -17 -18 -13
-2 -18 3 -18 18 0 15 5 20 18 18 9 -2 17 -10 17 -18z m-137 -31 c-2 -6 -8 -10
-13 -10 -5 0 -11 4 -13 10 -2 6 4 11 13 11 9 0 15 -5 13 -11z m261 -99 c0 -23
-1 -23 -9 -5 -5 11 -9 29 -9 40 -1 17 1 17 9 5 5 -8 9 -26 9 -40z m-329 -55
c-19 -23 -44 0 -29 27 10 18 12 19 27 5 13 -13 13 -19 2 -32z m-184 -41 c8
-30 14 -60 11 -67 -2 -6 -11 14 -21 45 -9 32 -19 65 -23 74 -4 12 -3 15 5 10
7 -4 19 -32 28 -62z m-138 -147 c-4 -27 -22 -32 -42 -11 -16 15 -16 18 0 35
13 15 20 16 31 7 8 -6 13 -20 11 -31z m506 -24 c-9 -15 -46 -58 -81 -95 -35
-38 -71 -85 -80 -106 -16 -39 -22 -159 -9 -202 6 -22 5 -21 -10 5 -11 19 -17
52 -17 95 0 89 28 144 125 246 43 46 78 89 79 96 0 11 2 11 6 0 3 -7 -3 -25
-13 -39z m-142 2 c0 -5 -5 -11 -11 -13 -6 -2 -11 4 -11 13 0 9 5 15 11 13 6
-2 11 -8 11 -13z m-572 -65 c0 -5 -5 -10 -11 -10 -5 0 -7 5 -4 10 3 6 8 10 11
10 2 0 4 -4 4 -10z m250 -269 c0 -6 -4 -13 -10 -16 -5 -3 -10 1 -10 9 0 9 5
16 10 16 6 0 10 -4 10 -9z m30 -161 c0 -5 -4 -10 -10 -10 -5 0 -10 5 -10 10 0
6 5 10 10 10 6 0 10 -4 10 -10z m-83 -56 c-9 -9 -28 6 -21 18 4 6 10 6 17 -1
6 -6 8 -13 4 -17z m193 -24 c0 -5 -4 -10 -10 -10 -5 0 -10 5 -10 10 0 6 5 10
10 10 6 0 10 -4 10 -10z m40 -55 c0 -8 -4 -15 -10 -15 -5 0 -10 7 -10 15 0 8
5 15 10 15 6 0 10 -7 10 -15z m290 -45 c0 -5 -4 -10 -10 -10 -5 0 -10 5 -10
10 0 6 5 10 10 10 6 0 10 -4 10 -10z m188 -226 c47 -84 52 -100 23 -84 -16 8
-112 189 -111 209 1 13 49 -55 88 -125z m-123 -172 c-3 -3 -16 5 -28 17 l-22
23 28 -17 c15 -10 25 -20 22 -23z"/>
<path d="M1849 4278 c-69 -76 -87 -201 -38 -273 25 -37 98 -78 157 -89 51 -9
37 9 -22 27 -144 46 -183 181 -91 318 39 57 37 63 -6 17z"/>
<path d="M1563 4227 c-142 -178 -186 -322 -132 -434 30 -62 80 -88 219 -111
63 -11 141 -30 172 -42 69 -26 167 -90 203 -131 28 -34 32 -31 11 10 -21 39
-96 106 -153 134 -26 13 -92 41 -147 62 -121 47 -172 84 -208 154 -52 99 -34
217 53 351 22 34 38 64 36 66 -2 2 -26 -24 -54 -59z"/>
<path d="M3080 4276 c0 -2 31 -53 69 -113 119 -189 172 -308 190 -428 l9 -60
1 50 c2 108 -53 239 -185 443 -64 98 -84 124 -84 108z"/>
<path d="M1620 4230 c-56 -79 -90 -199 -76 -273 11 -58 77 -122 172 -167 46
-22 96 -45 111 -51 15 -6 23 -13 17 -16 -6 -2 -56 12 -110 31 -109 39 -101 19
9 -24 211 -82 284 -135 332 -243 25 -54 29 -78 33 -183 7 -189 -21 -272 -169
-501 -147 -226 -161 -265 -179 -487 -14 -184 -13 -285 6 -339 16 -46 86 -137
107 -137 6 0 -3 15 -20 32 -51 54 -66 95 -71 190 -4 88 2 138 17 138 4 0 10
-39 13 -88 6 -105 35 -171 99 -226 59 -50 72 -45 17 7 -50 46 -72 83 -82 137
-6 31 -4 29 25 -23 18 -31 53 -76 78 -98 98 -87 110 -102 125 -147 8 -26 18
-90 22 -142 3 -52 10 -101 14 -109 4 -7 6 8 4 35 -2 27 -5 83 -7 124 -5 98
-28 146 -112 239 -43 48 -81 102 -104 150 -32 68 -37 87 -41 181 -5 90 -7 99
-14 65 -15 -70 -25 -74 -26 -9 0 131 29 218 132 394 80 135 144 271 176 370
24 75 27 101 27 220 0 221 -39 298 -207 411 -49 33 -120 73 -158 88 -144 59
-211 119 -224 199 -9 49 17 142 59 220 37 67 39 80 5 32z"/>
<path d="M2770 4227 c0 -36 42 -98 129 -191 52 -55 100 -117 116 -150 32 -66
40 -72 20 -17 -22 63 -31 75 -131 187 -53 59 -104 125 -115 148 -10 22 -19 33
-19 23z"/>
<path d="M3112 4058 c2 -15 10 -23 23 -23 30 0 27 39 -3 43 -20 3 -23 0 -20
-20z"/>
<path d="M1710 3931 c0 -25 19 -38 31 -20 12 19 6 33 -14 37 -11 2 -17 -3 -17
-17z"/>
<path d="M3034 3928 c9 -23 44 -142 55 -188 10 -44 10 -43 6 21 -4 61 -44 179
-60 179 -4 0 -4 -6 -1 -12z"/>
<path d="M1313 3724 c3 -63 10 -95 30 -137 48 -96 91 -135 238 -212 155 -81
224 -142 267 -232 25 -53 27 -68 27 -178 0 -141 -9 -169 -117 -360 -107 -188
-113 -208 -112 -355 1 -105 5 -139 28 -213 46 -154 85 -214 187 -293 53 -40
60 -51 79 -111 22 -71 55 -133 72 -133 6 0 7 7 3 18 -4 9 -20 50 -36 91 -29
76 -34 83 -132 188 -33 36 -71 91 -90 130 -29 62 -32 76 -32 163 1 158 22 391
40 445 21 60 53 125 104 208 122 200 154 288 155 418 0 84 -3 103 -27 151 -53
109 -151 169 -306 188 -168 21 -213 36 -277 93 -40 34 -84 116 -84 157 0 14
-5 32 -11 40 -7 11 -9 -8 -6 -66z m651 -479 c17 -35 22 -145 7 -145 -4 0 -11
31 -13 70 -4 54 -12 80 -33 112 l-28 43 26 -24 c14 -13 33 -38 41 -56z"/>
<path d="M2102 3775 c2 -5 19 -40 37 -77 62 -127 76 -242 46 -378 -8 -36 -14
-83 -14 -105 l0 -40 19 37 c28 52 50 143 50 203 -1 114 -52 266 -116 340 -14
17 -24 26 -22 20z"/>
<path d="M3244 3755 c-9 -23 10 -40 25 -22 9 11 8 17 -4 27 -12 10 -16 9 -21
-5z"/>
<path d="M3170 3598 c0 -60 -5 -84 -30 -135 -35 -75 -102 -149 -190 -211 -82
-57 -94 -69 -50 -47 28 14 32 14 20 2 -8 -8 -105 -60 -215 -116 -110 -55 -218
-117 -240 -136 -36 -31 -31 -30 40 15 44 27 157 85 251 128 198 91 239 118
319 204 84 91 109 150 113 271 3 66 0 97 -7 97 -7 0 -11 -27 -11 -72z"/>
<path d="M1752 3598 c5 -15 28 -18 29 -3 0 6 -7 12 -17 13 -10 3 -15 -1 -12
-10z"/>
<path d="M4081 3588 c-1 -4 19 -65 43 -135 24 -71 56 -180 71 -243 16 -63 30
-117 32 -119 23 -28 -13 152 -58 288 -30 91 -86 225 -88 209z"/>
<path d="M1490 3356 c0 -2 7 -7 16 -10 8 -3 12 -2 9 4 -6 10 -25 14 -25 6z"/>
<path d="M2037 3245 c3 -33 7 -62 9 -64 8 -9 2 85 -6 104 -6 13 -7 -2 -3 -40z"/>
<path d="M2769 3183 c-13 -16 -12 -17 4 -4 16 13 21 21 13 21 -2 0 -10 -8 -17
-17z"/>
<path d="M2255 3124 c-15 -25 -25 -47 -22 -50 2 -2 16 18 31 46 34 63 27 66
-9 4z"/>
<path d="M2042 3090 c0 -19 2 -27 5 -17 2 9 2 25 0 35 -3 9 -5 1 -5 -18z"/>
<path d="M2202 3011 c-6 -17 -9 -31 -6 -31 7 0 25 52 20 57 -2 2 -8 -10 -14
-26z"/>
<path d="M2170 2886 c-6 -19 -36 -74 -66 -123 -35 -57 -44 -76 -24 -53 34 39
116 197 108 206 -3 3 -11 -10 -18 -30z"/>
<path d="M4207 2863 c-3 -5 -7 -75 -10 -158 -4 -102 -3 -139 3 -115 5 19 13
90 16 158 6 110 4 137 -9 115z"/>
<path d="M3261 2645 c-7 -21 -32 -49 -61 -72 -27 -21 -54 -51 -61 -66 -18 -41
-5 -156 31 -271 33 -108 38 -187 16 -240 -8 -19 -47 -69 -87 -112 l-73 -79 83
80 c132 127 144 173 87 346 -57 174 -55 209 16 292 46 55 78 112 78 139 0 29
-15 20 -29 -17z"/>
<path d="M2051 2631 c-40 -56 -82 -159 -92 -226 -18 -111 -8 -241 21 -299 34
-68 65 -90 108 -75 32 11 40 23 23 33 -5 3 -21 36 -36 73 -14 37 -40 86 -58
110 -57 80 -47 199 29 342 36 70 39 90 5 42z"/>
<path d="M4216 2545 c-12 -73 -72 -275 -112 -377 -42 -107 -37 -130 7 -33 62
137 126 378 117 438 -2 13 -7 2 -12 -28z"/>
<path d="M4141 2548 c-4 -13 -11 -45 -15 -73 -14 -100 -59 -263 -103 -373 -25
-62 -43 -115 -41 -118 7 -6 72 138 108 239 37 103 80 272 80 315 0 37 -17 43
-29 10z"/>
<path d="M3027 2453 c-7 -92 -19 -125 -69 -200 -20 -28 -39 -68 -43 -89 -4
-21 -13 -51 -22 -67 -8 -16 -12 -31 -9 -34 2 -3 21 28 41 68 21 41 53 101 73
134 32 53 36 68 40 145 6 115 -2 146 -11 43z"/>
<path d="M3302 2355 c0 -16 2 -22 5 -12 2 9 2 23 0 30 -3 6 -5 -1 -5 -18z"/>
<path d="M3293 2280 c0 -25 2 -35 4 -22 2 12 2 32 0 45 -2 12 -4 2 -4 -23z"/>
<path d="M1565 2228 c-8 -86 4 -168 38 -260 46 -128 89 -185 221 -292 35 -28
56 -57 78 -105 34 -77 58 -105 111 -133 39 -19 69 -16 32 4 -45 24 -113 106
-130 157 -14 44 -28 62 -89 112 -80 65 -118 113 -163 204 -59 117 -76 182 -77
287 -1 54 -4 98 -8 98 -3 0 -9 -33 -13 -72z"/>
<path d="M2245 2270 c4 -14 27 -62 52 -108 24 -46 51 -102 59 -125 l14 -42 -5
60 c-6 61 -18 86 -92 190 -23 33 -33 41 -28 25z"/>
<path d="M3301 2204 c0 -11 3 -14 6 -6 3 7 2 16 -1 19 -3 4 -6 -2 -5 -13z"/>
<path d="M1487 2184 c-14 -14 -5 -70 19 -119 14 -29 22 -39 20 -25 -3 14 -8
48 -12 75 -7 56 -17 79 -27 69z"/>
<path d="M3251 2109 c0 -13 4 -33 9 -44 7 -14 8 -8 3 20 -7 46 -13 59 -12 24z"/>
<path d="M1950 2095 c0 -5 5 -17 10 -25 5 -8 10 -10 10 -5 0 6 -5 17 -10 25
-5 8 -10 11 -10 5z"/>
<path d="M2979 2045 c-82 -54 -146 -126 -155 -172 -9 -46 1 -52 22 -11 9 18
62 77 118 130 55 54 97 98 91 98 -5 0 -40 -20 -76 -45z"/>
<path d="M2011 1997 c2 -2 21 -15 42 -30 28 -21 37 -24 37 -13 0 9 -16 23 -36
31 -33 14 -54 19 -43 12z"/>
<path d="M2187 1983 c-12 -11 -8 -48 7 -68 12 -17 13 -17 20 9 11 43 -6 80
-27 59z"/>
<path d="M3199 1923 c-13 -16 -12 -17 4 -4 16 13 21 21 13 21 -2 0 -10 -8 -17
-17z"/>
<path d="M3009 1843 c-13 -16 -12 -17 4 -4 16 13 21 21 13 21 -2 0 -10 -8 -17
-17z"/>
<path d="M1962 1775 c48 -47 63 -88 82 -226 4 -26 14 -55 22 -65 15 -19 15
-19 9 1 -3 10 -11 55 -16 100 -17 131 -38 178 -97 217 -48 32 -48 19 0 -27z"/>
<path d="M2962 1783 c-20 -53 -22 -65 -32 -153 -6 -49 -12 -97 -15 -107 -3
-10 1 -4 9 12 8 17 17 57 21 90 4 33 14 86 22 118 17 60 13 88 -5 40z"/>
<path d="M3864 1737 c-22 -29 -44 -59 -48 -67 -9 -18 58 54 86 93 35 48 4 28
-38 -26z"/>
<path d="M3225 1683 c-54 -41 -75 -67 -93 -106 -13 -29 -31 -60 -39 -69 -10
-11 -12 -18 -5 -18 7 0 38 32 69 72 32 39 77 93 101 120 65 75 61 75 -33 1z"/>
<path d="M2851 1426 c-34 -36 -112 -74 -193 -96 -58 -15 -66 -19 -38 -19 85
-2 217 58 254 115 21 31 6 31 -23 0z"/>
<path d="M2090 1414 c0 -6 114 -58 150 -68 14 -4 -10 11 -52 33 -74 39 -98 48
-98 35z"/>
<path d="M1880 1386 c0 -3 9 -10 20 -16 11 -6 20 -8 20 -6 0 3 -9 10 -20 16
-11 6 -20 8 -20 6z"/>
<path d="M1930 1356 c0 -3 9 -10 20 -16 11 -6 20 -8 20 -6 0 3 -9 10 -20 16
-11 6 -20 8 -20 6z"/>
<path d="M2075 1334 c21 -15 93 -38 155 -48 25 -4 31 -3 20 4 -8 5 -24 10 -35
10 -11 0 -51 11 -90 24 -42 15 -62 18 -50 10z"/>
<path d="M2795 1321 c-29 -14 -34 -20 -19 -20 28 -1 84 19 84 30 0 14 -21 10
-65 -10z"/>
<path d="M2356 1250 c3 -2 26 -8 52 -12 32 -5 19 -6 -43 -3 -71 3 -85 2 -65
-7 52 -23 438 -11 414 12 -5 5 -89 10 -186 12 -97 2 -174 1 -172 -2z"/>
<path d="M2200 1195 c58 -16 310 -33 298 -21 -3 4 -69 12 -145 17 -76 5 -154
11 -173 14 -20 2 -11 -2 20 -10z"/>
<path d="M1950 798 c1 -31 1 -32 15 -14 19 25 19 46 0 46 -10 0 -15 -10 -15
-32z"/>
<path d="M2003 815 c-3 -9 -3 -18 -1 -21 3 -3 8 4 11 16 6 23 -1 27 -10 5z"/>
<path d="M2683 443 c9 -2 23 -2 30 0 6 3 -1 5 -18 5 -16 0 -22 -2 -12 -5z"/>
<path d="M623 513 c9 -2 23 -2 30 0 6 3 -1 5 -18 5 -16 0 -22 -2 -12 -5z"/>
<path d="M770 510 c36 -4 157 -8 270 -7 138 0 185 2 145 7 -33 4 -154 8 -270
7 -143 0 -189 -2 -145 -7z"/>
<path d="M4323 513 c9 -2 23 -2 30 0 6 3 -1 5 -18 5 -16 0 -22 -2 -12 -5z"/>
<path d="M1058 463 c17 -2 47 -2 65 0 17 2 3 4 -33 4 -36 0 -50 -2 -32 -4z"/>
<path d="M1583 403 c9 -2 25 -2 35 0 9 3 1 5 -18 5 -19 0 -27 -2 -17 -5z"/>
<path d="M3358 403 c6 -2 18 -2 25 0 6 3 1 5 -13 5 -14 0 -19 -2 -12 -5z"/>
</g>
</svg>
