<?xml version="1.0" standalone="no"?>
<!DOCTYPE svg PUBLIC "-//W3C//DTD SVG 20010904//EN"
 "http://www.w3.org/TR/2001/REC-SVG-20010904/DTD/svg10.dtd">
<svg version="1.0" xmlns="http://www.w3.org/2000/svg"
 width="300.000000pt" height="300.000000pt" viewBox="0 0 300.000000 300.000000"
 preserveAspectRatio="xMidYMid meet">
<metadata>
Created by potrace 1.10, written by Peter Selinger 2001-2011
</metadata>
<g transform="translate(0.000000,300.000000) scale(0.100000,-0.100000)"
fill="#000000" stroke="none">
<path d="M187 2822 c-20 -22 -22 -65 -4 -80 39 -32 87 -9 87 44 0 50 -51 72
-83 36z m51 -11 c8 -4 12 -19 10 -32 -2 -18 -9 -24 -28 -24 -28 0 -39 27 -20
50 14 17 20 18 38 6z"/>
<path d="M1530 2720 c0 -53 4 -90 10 -90 6 0 10 12 10 27 0 20 12 38 41 63
l42 36 -40 27 c-60 42 -63 39 -63 -63z m50 45 c10 -12 10 -18 0 -30 -19 -23
-30 -18 -30 15 0 33 11 38 30 15z"/>
<path d="M2694 2789 c-32 -11 -45 -35 -42 -75 6 -73 95 -86 127 -20 27 57 -27
117 -85 95z m54 -31 c18 -18 15 -66 -5 -77 -25 -13 -36 -12 -55 6 -34 31 -17
83 27 83 12 0 26 -5 33 -12z"/>
<path d="M780 2753 c-50 -64 32 -141 90 -83 39 39 11 110 -44 110 -15 0 -33
-11 -46 -27z m76 -14 c19 -22 13 -43 -18 -63 -34 -21 -66 42 -36 72 17 17 32
15 54 -9z"/>
<path d="M2057 2773 c-4 -3 4 -18 18 -33 l25 -26 -25 -24 c-14 -13 -25 -27
-25 -32 0 -16 23 -7 45 18 l22 26 21 -26 c11 -14 23 -26 26 -26 13 0 5 28 -14
45 -20 18 -20 18 6 46 14 15 21 29 16 33 -5 3 -20 -6 -32 -19 l-24 -25 -26 25
c-15 14 -30 22 -33 18z"/>
<path d="M1266 2538 l-19 -31 -21 26 c-12 15 -25 27 -29 27 -14 0 -7 -24 14
-46 l21 -23 -26 -34 c-15 -20 -23 -38 -17 -41 5 -4 19 8 32 25 l22 31 22 -29
c31 -38 45 -21 16 18 l-23 31 21 29 c12 15 21 33 21 39 0 20 -16 10 -34 -22z"/>
<path d="M473 2523 c-19 -7 -16 -51 4 -62 23 -12 53 4 53 29 0 16 -29 42 -42
39 -2 0 -9 -3 -15 -6z"/>
<path d="M2385 2468 c-11 -28 -1 -161 13 -166 8 -2 12 7 12 26 0 22 9 36 35
56 19 15 35 30 34 34 0 9 -52 50 -73 58 -9 4 -18 0 -21 -8z m65 -49 c0 -13
-29 -31 -40 -24 -11 7 -14 38 -4 48 7 6 44 -14 44 -24z"/>
<path d="M1706 2448 c-9 -12 -16 -30 -16 -40 0 -24 35 -58 60 -58 27 0 60 35
60 63 0 53 -75 77 -104 35z m74 -13 c14 -17 5 -51 -17 -59 -26 -10 -53 24 -42
52 10 25 41 29 59 7z"/>
<path d="M850 2305 c0 -72 3 -85 16 -85 14 0 16 10 12 65 -2 36 -2 65 1 65 2
0 13 -8 23 -17 18 -16 20 -15 50 15 37 36 30 57 -7 22 l-25 -23 -23 21 c-40
38 -47 29 -47 -63z"/>
<path d="M2060 2225 c0 -65 3 -94 10 -90 6 4 10 14 9 23 -3 34 2 35 31 7 38
-37 53 -24 16 14 l-27 28 28 23 28 22 -30 24 c-66 54 -65 55 -65 -51z m42 41
c17 -12 17 -14 0 -30 -26 -23 -31 -20 -30 14 1 33 5 35 30 16z"/>
<path d="M226 2253 c-10 -11 -7 -173 4 -173 6 0 10 12 10 28 0 20 9 33 35 51
19 13 35 27 35 31 0 11 -77 70 -84 63z m54 -63 c0 -5 -9 -14 -20 -20 -18 -10
-20 -8 -20 20 0 28 2 30 20 20 11 -6 20 -15 20 -20z"/>
<path d="M2660 2204 c0 -3 11 -20 25 -38 17 -23 25 -46 25 -74 0 -23 5 -42 10
-42 6 0 10 18 10 41 0 29 7 50 25 71 14 16 25 34 25 39 0 17 -18 9 -39 -18
l-21 -28 -21 28 c-19 24 -39 36 -39 21z"/>
<path d="M1270 2173 c0 -4 10 -17 22 -30 l21 -23 -23 -25 c-31 -32 -17 -46 15
-15 l25 23 25 -23 c32 -31 46 -17 15 15 l-23 25 23 25 c31 32 17 46 -15 15
l-25 -23 -23 21 c-24 22 -37 28 -37 15z"/>
<path d="M1707 2123 c-11 -11 -8 -183 3 -183 6 0 10 13 10 29 0 22 9 35 40 56
22 15 40 33 40 40 0 7 -18 24 -40 39 -44 29 -44 29 -53 19z m45 -40 c17 -15
17 -17 2 -35 -25 -27 -34 -22 -34 17 0 39 5 42 32 18z"/>
<path d="M677 2113 c-4 -3 -7 -22 -7 -40 l0 -34 -37 35 c-21 20 -41 36 -45 36
-5 0 -8 -38 -8 -85 0 -50 4 -85 10 -85 6 0 10 28 10 65 0 36 3 65 6 65 3 0 19
-12 35 -27 22 -22 29 -37 29 -66 0 -26 4 -37 12 -35 8 3 13 30 13 81 1 76 -5
104 -18 90z"/>
<path d="M2370 2015 c-26 -31 13 -82 44 -56 22 18 20 48 -3 61 -25 13 -26 13
-41 -5z"/>
<path d="M960 1930 c-26 -26 -25 -60 0 -88 27 -29 55 -28 85 3 30 29 32 54 5
83 -26 27 -64 28 -90 2z m74 -16 c19 -18 19 -20 6 -45 -12 -21 -55 -26 -67 -6
-10 16 -4 50 11 59 17 12 33 9 50 -8z"/>
<path d="M302 1784 c-15 -10 -22 -25 -22 -49 0 -28 6 -37 30 -50 23 -12 35
-13 50 -5 58 31 41 120 -22 120 -8 0 -24 -7 -36 -16z m58 -18 c6 -8 10 -25 8
-38 -4 -32 -61 -34 -66 -2 -3 21 20 54 37 54 5 0 14 -7 21 -14z"/>
<path d="M1900 1720 c0 -44 2 -80 5 -80 10 0 105 74 105 82 0 4 -10 13 -22 19
l-22 12 22 17 c12 10 22 21 22 24 0 12 -28 6 -40 -9 -12 -14 -15 -14 -30 0
-33 30 -40 18 -40 -65z m58 -17 c-31 -33 -38 -29 -38 22 l0 46 30 -23 30 -22
-22 -23z"/>
<path d="M1376 1771 c-26 -29 -18 -82 16 -100 25 -14 29 -14 55 5 34 25 40 57
19 90 -20 30 -65 32 -90 5z m74 -21 c15 -28 -4 -60 -35 -60 -18 0 -26 7 -31
25 -12 48 44 77 66 35z"/>
<path d="M2246 1708 c-9 -12 -16 -29 -16 -38 0 -50 69 -79 104 -44 23 22 21
81 -3 94 -32 17 -69 12 -85 -12z m78 -20 c8 -13 8 -23 0 -35 -28 -45 -89 -9
-64 38 13 24 48 22 64 -3z"/>
<path d="M2647 1723 c-11 -10 -8 -163 3 -163 6 0 10 29 10 67 l0 66 25 -23
c23 -22 26 -22 43 -7 10 10 21 17 23 17 3 0 3 -27 1 -60 -3 -40 -1 -60 7 -60
7 0 11 28 11 80 0 45 -4 80 -10 80 -5 0 -18 -10 -30 -22 l-20 -22 -28 27 c-16
15 -31 24 -35 20z"/>
<path d="M710 1594 c0 -64 3 -85 13 -81 6 2 12 16 12 30 -1 15 1 27 4 27 3 0
22 -16 42 -36 20 -20 39 -32 42 -27 4 6 -12 27 -33 48 l-40 39 42 40 c26 26
36 42 28 44 -8 3 -29 -12 -47 -32 -38 -41 -48 -45 -40 -15 6 24 -1 49 -14 49
-5 0 -9 -39 -9 -86z"/>
<path d="M1085 1531 c-9 -28 -4 -161 6 -167 5 -3 9 10 9 28 0 27 8 38 41 62
l41 29 -29 23 c-49 42 -61 46 -68 25z m39 -27 c28 -11 13 -44 -20 -44 -2 0 -4
11 -4 25 0 27 1 28 24 19z"/>
<path d="M1610 1497 c0 -8 9 -22 20 -32 25 -23 25 -31 0 -62 -11 -14 -17 -30
-13 -36 4 -6 16 2 30 19 l24 29 20 -28 c12 -15 25 -24 30 -21 6 3 -1 21 -15
39 l-26 34 25 29 c28 34 31 42 12 42 -8 0 -20 -11 -27 -25 -7 -14 -17 -25 -21
-25 -5 0 -16 11 -25 25 -18 27 -34 33 -34 12z"/>
<path d="M187 1433 c-4 -6 2 -22 13 -36 25 -32 25 -49 0 -72 -11 -10 -20 -22
-20 -27 0 -16 23 -7 42 17 l19 25 24 -28 c13 -15 27 -24 31 -19 4 4 -2 17 -14
30 -27 29 -28 49 -2 72 11 10 20 22 20 27 0 16 -22 8 -41 -14 l-18 -23 -24 29
c-14 17 -26 25 -30 19z"/>
<path d="M1990 1296 c0 -71 3 -86 15 -86 9 0 15 7 13 15 -2 8 13 27 32 44 19
16 32 33 27 37 -4 4 -17 -2 -30 -14 -27 -26 -37 -28 -37 -8 0 8 18 27 40 43
22 15 40 34 40 41 0 19 -14 14 -40 -13 -29 -31 -42 -32 -38 -3 2 11 -3 23 -9
25 -10 4 -13 -17 -13 -81z"/>
<path d="M2487 1343 l-28 -28 -18 24 c-10 13 -24 22 -31 19 -8 -2 -4 -14 14
-35 20 -23 26 -42 26 -77 0 -25 5 -46 10 -46 6 0 10 21 10 47 0 37 6 53 26 74
35 37 27 57 -9 22z"/>
<path d="M570 1240 c0 -53 4 -90 10 -90 6 0 10 12 10 28 0 19 10 35 36 56 l37
29 -39 33 c-22 18 -42 33 -46 34 -5 0 -8 -40 -8 -90z m60 26 c0 -2 -9 -11 -20
-21 -20 -18 -20 -17 -20 14 0 29 2 31 20 21 11 -6 20 -12 20 -14z"/>
<path d="M1330 1186 c0 -47 5 -88 10 -91 6 -4 10 7 10 26 l0 33 30 -29 c37
-36 54 -24 17 12 l-27 27 28 22 27 22 -34 31 c-54 49 -61 43 -61 -53z m60 24
c0 -3 -9 -11 -20 -18 -18 -11 -20 -10 -20 18 0 28 2 29 20 18 11 -7 20 -15 20
-18z"/>
<path d="M2730 1220 c-25 -25 -25 -52 -2 -73 35 -32 73 -19 84 30 12 47 -47
78 -82 43z m60 -34 c0 -29 -28 -42 -48 -22 -20 20 -8 46 23 46 20 0 25 -5 25
-24z"/>
<path d="M910 1162 c0 -7 10 -26 22 -42 l22 -30 -28 -29 c-19 -20 -24 -31 -16
-36 7 -5 21 4 35 21 l22 28 18 -27 c9 -15 21 -27 26 -27 16 0 10 23 -12 46
l-21 23 22 31 c29 41 20 63 -10 22 l-24 -32 -27 33 c-16 17 -28 26 -29 19z"/>
<path d="M1672 1057 l-32 -33 30 -29 c19 -19 30 -39 30 -57 0 -15 5 -28 10
-28 6 0 10 10 10 22 0 12 16 39 36 59 l35 36 -38 32 c-20 17 -40 31 -43 31 -3
0 -20 -15 -38 -33z m72 -15 c15 -18 15 -20 -4 -37 -20 -18 -20 -18 -20 18 0
43 1 43 24 19z m-34 -15 c0 -32 -9 -39 -27 -21 -12 12 -13 18 -3 29 18 22 30
18 30 -8z"/>
<path d="M2180 1032 c0 -4 11 -24 26 -43 19 -26 24 -41 19 -66 -4 -25 -2 -33
8 -33 10 0 14 12 14 41 0 30 7 47 27 68 18 18 24 31 17 35 -6 4 -21 -5 -34
-20 l-23 -26 -17 26 c-17 25 -37 35 -37 18z"/>
<path d="M320 983 c-50 -18 -68 -84 -32 -116 42 -38 122 -7 122 47 0 43 -51
83 -90 69z m10 -68 c0 -46 -7 -54 -28 -33 -15 15 -15 51 0 66 21 21 28 13 28
-33z m50 25 c13 -24 5 -56 -14 -63 -10 -4 -15 6 -18 39 -3 48 13 60 32 24z"/>
<path d="M2561 884 c-27 -35 -26 -49 4 -80 19 -19 31 -23 48 -18 36 11 47 25
47 59 0 62 -62 86 -99 39z m77 -42 c-2 -23 -8 -27 -33 -27 -24 0 -31 5 -33 24
-5 32 23 54 50 40 13 -7 18 -19 16 -37z"/>
<path d="M1180 785 c0 -50 4 -85 10 -85 6 0 10 29 10 67 0 64 1 66 19 49 17
-16 20 -15 50 9 17 15 28 31 25 37 -3 5 -16 0 -30 -13 l-24 -22 -23 21 c-13
12 -26 22 -30 22 -4 0 -7 -38 -7 -85z"/>
<path d="M640 771 c0 -44 5 -83 10 -86 6 -4 10 8 10 29 0 20 3 36 7 36 4 0 22
-14 40 -32 46 -45 55 -26 9 21 l-38 39 36 27 c20 15 36 31 36 36 0 19 -29 7
-53 -21 -14 -16 -28 -30 -31 -30 -3 0 -6 14 -6 30 0 17 -4 30 -10 30 -6 0 -10
-33 -10 -79z"/>
<path d="M1904 747 c-3 -8 -4 -47 -2 -87 2 -52 7 -75 17 -78 10 -3 12 0 8 13
-13 32 5 38 29 9 17 -19 28 -24 35 -17 7 7 1 17 -22 33 l-32 23 33 27 32 26
-34 25 c-51 39 -58 42 -64 26z m48 -41 c17 -12 17 -14 0 -30 -22 -19 -32 -12
-32 21 0 26 7 28 32 9z"/>
<path d="M1507 692 c-23 -25 -21 -58 3 -82 41 -41 100 -13 100 46 0 17 -5 35
-12 42 -18 18 -73 14 -91 -6z m81 -31 c5 -29 -20 -51 -48 -44 -14 4 -20 14
-20 32 0 35 8 43 40 39 18 -2 26 -10 28 -27z"/>
<path d="M2280 555 c0 -52 3 -95 8 -95 4 0 25 12 46 27 l39 26 -23 19 -24 20
24 18 24 18 -34 31 c-55 49 -60 44 -60 -64z m60 35 c0 -3 -9 -11 -20 -18 -18
-11 -20 -10 -20 18 0 28 2 29 20 18 11 -7 20 -15 20 -18z m-11 -64 c10 -12 8
-17 -8 -26 -19 -9 -21 -8 -21 15 0 28 12 32 29 11z"/>
<path d="M920 500 c0 -53 4 -90 10 -90 6 0 10 11 10 25 0 31 3 31 36 -2 21
-20 29 -24 32 -13 3 7 -8 24 -24 37 -24 20 -26 25 -14 33 47 29 47 29 5 65
-22 19 -43 35 -47 35 -5 0 -8 -40 -8 -90z m49 37 c8 -10 7 -17 -1 -25 -19 -19
-28 -14 -28 13 0 27 12 32 29 12z"/>
<path d="M270 561 c-13 -25 -13 -27 6 -45 12 -12 20 -13 35 -6 23 13 25 55 3
64 -25 10 -33 7 -44 -13z"/>
<path d="M2710 515 c-18 -21 -8 -50 19 -53 31 -5 45 11 37 42 -7 29 -36 35
-56 11z"/>
<path d="M1360 393 l-22 -28 -18 23 c-17 20 -40 30 -40 16 0 -3 11 -19 25 -36
16 -19 25 -42 25 -64 0 -23 4 -33 11 -29 6 4 8 13 5 21 -8 21 7 17 22 -6 7
-12 17 -18 23 -15 5 4 -1 20 -15 38 l-25 31 25 33 c13 17 20 34 15 37 -5 4
-19 -6 -31 -21z"/>
<path d="M533 367 c-3 -4 11 -28 31 -52 20 -24 36 -46 36 -49 0 -3 -16 -6 -36
-6 -21 0 -33 -4 -29 -10 8 -12 105 -13 105 -1 0 4 -18 29 -41 55 l-41 46 36 0
c55 0 52 18 -5 22 -28 1 -53 -1 -56 -5z"/>
<path d="M1700 276 c0 -47 5 -88 10 -91 6 -4 10 7 10 27 0 26 8 39 36 62 l37
29 -34 28 c-54 45 -59 40 -59 -55z m49 18 c-17 -21 -29 -17 -29 11 0 23 2 24
21 15 16 -9 18 -14 8 -26z"/>
<path d="M2068 319 c-21 -12 -24 -69 -6 -87 19 -19 55 -14 72 10 21 29 20 40
-4 66 -23 24 -36 27 -62 11z m46 -24 c27 -28 -10 -69 -40 -44 -17 14 -18 31
-2 47 16 16 23 15 42 -3z"/>
<path d="M2490 226 c0 -41 5 -78 10 -81 6 -4 10 8 10 27 0 28 8 41 45 71 25
21 45 42 45 47 0 19 -22 10 -52 -20 -16 -16 -31 -30 -34 -30 -2 0 -4 14 -4 30
0 17 -4 30 -10 30 -6 0 -10 -31 -10 -74z"/>
<path d="M184 236 c-32 -50 22 -105 75 -76 24 12 29 68 9 88 -21 21 -66 14
-84 -12z m75 -15 c13 -24 -8 -55 -35 -49 -20 3 -30 29 -20 54 8 20 43 17 55
-5z"/>
<path d="M904 206 c-10 -25 0 -51 20 -54 27 -6 48 25 35 49 -12 22 -47 25 -55
5z"/>
</g>
</svg>
